<svg width="252" height="155" viewBox="0 0 252 155" fill="none" xmlns="http://www.w3.org/2000/svg">
<path d="M85.5741 100.218L79.6538 101.149L81.3453 106.815L81.7682 112.905L81.4299 118.233L79.6538 122.293L78.8926 123.561L82.0219 123.984L214.215 104.024L217.344 103.432L218.443 101.149L219.289 95.5665L219.035 88.6313L218.021 83.3876L217.513 82.2881L92.8477 103.178H89.6338L85.5741 100.218Z" fill="#5EC69D"/>
<path d="M73.646 88.8L72.0391 93.8746L79.6509 101.148L85.5713 100.218L73.646 88.8Z" fill="#E2EEF8"/>
<path d="M81.0047 66.2185L77.5371 78.0591L90.6464 91.3376L91.9151 93.2829L91.9996 96.0739L91.5768 99.0341L90.6464 101.487L89.0395 102.586L91.7459 103.432L96.9897 102.755L230.028 80.1735L234.003 79.0741L236.118 77.0442L236.371 71.293L235.695 67.4871L232.735 63.9349L225.376 57.5917L214.381 56.4922H204.063L195.521 57.7608L187.994 60.129L180.974 62.8354L169.302 70.4473L159.576 69.0095L146.044 68.5866L135.134 69.7707L122.363 73.2383L113.059 77.0442L105.87 80.7656L95.721 88.0392L81.0047 66.2185Z" fill="#5EC69D" fill-opacity="0.15"/>
<path d="M109.254 119.755L114.413 125.844L248.805 102.755L221.148 81.6111L217.173 81.6957L218.865 87.1085L219.034 94.9742L218.78 100.049L217.342 103.432L212.014 104.108L109.254 119.755Z" fill="#5EC69D"/>
<path d="M242.039 107.576L250.413 114.681L112.638 138.447L101.051 121.531L104.857 120.939L114.16 133.626L242.716 112.228L242.039 107.576Z" fill="#5EC69D"/>
<path d="M66.6271 111.213L62.1445 124.999L76.3533 142.591L111.875 136.67L101.05 121.024L80.5822 124.153L76.7762 121.87L66.6271 111.213Z" fill="#5EC69D" fill-opacity="0.15"/>
<path d="M118.895 15.7263L168.964 70.6163C188.924 53.7857 213.535 54.2085 239.754 60.2134L185.202 4.90055C164.058 -1.86555 142.322 1.17921 118.895 15.7263Z" stroke="#E2EEF8" stroke-width="1.20927" stroke-miterlimit="10" stroke-linecap="round" stroke-linejoin="round"/>
<path d="M169.05 70.6164C142.916 64.696 115.682 71.2084 95.8069 88.0391L81.2598 66.1338L85.7423 51.1638" stroke="#E2EEF8" stroke-width="1.20927" stroke-miterlimit="10" stroke-linecap="round" stroke-linejoin="round"/>
<path d="M57.3242 23.1689C79.1449 10.6516 99.1049 8.70632 119.065 15.1341" stroke="#E2EEF8" stroke-width="1.20927" stroke-miterlimit="10" stroke-linecap="round" stroke-linejoin="round"/>
<path d="M94.3672 84.1488C94.3672 84.1488 112.382 69.8554 129.72 66.9798C151.71 63.343 168.033 70.532 168.033 70.532" stroke="#E2EEF8" stroke-width="1.20927" stroke-miterlimit="10" stroke-linecap="round" stroke-linejoin="round"/>
<path d="M168.879 68.9249C168.879 68.9249 176.914 59.9598 191.038 55.731C213.535 48.9649 235.61 56.0693 235.61 56.0693" stroke="#E2EEF8" stroke-width="1.20927" stroke-miterlimit="10" stroke-linecap="round" stroke-linejoin="round"/>
<path d="M224.953 57.5068L234.256 65.457C235.525 66.7256 236.286 68.3326 236.371 70.1933L236.54 74.845C236.624 77.1285 235.017 79.1584 232.734 79.4967L92.6755 103.263C89.7154 103.347 88.8696 103.347 85.5711 99.8796L73.7305 88.2926" stroke="#E2EEF8" stroke-width="1.20927" stroke-miterlimit="10" stroke-linecap="round" stroke-linejoin="round"/>
<path d="M217.681 82.6262C219.795 88.6311 219.711 94.9743 218.611 101.487C218.358 102.755 217.343 103.77 216.074 103.939L81.7669 123.899C79.145 124.491 76.5231 121.7 74.6625 120.009L66.7969 111.636" stroke="#E2EEF8" stroke-width="1.20927" stroke-miterlimit="10" stroke-linecap="round" stroke-linejoin="round"/>
<path d="M101.641 121.87L113.143 138.108L250.749 114.681L242.122 107.407" stroke="#E2EEF8" stroke-width="1.20927" stroke-miterlimit="10" stroke-linecap="round" stroke-linejoin="round"/>
<path d="M221.994 82.1187L248.889 102.84" stroke="#E2EEF8" stroke-width="1.20927" stroke-miterlimit="10" stroke-linecap="round" stroke-linejoin="round"/>
<path d="M85.488 51.4174L67.9807 50.6562L29.8368 11.0746L1.25 97.4269L36.5183 154.093L53.1798 152.655L85.6571 51.1637L44.0456 9.80591L41.4237 14.7113" fill="#5EC69D" fill-opacity="0.15"/>
<path d="M85.488 51.4174L67.9807 50.6562L29.8368 11.0746L1.25 97.4269L36.5183 154.093L53.1798 152.655L85.6571 51.1637L44.0456 9.80591L41.4237 14.7113" stroke="#E2EEF8" stroke-width="1.20927" stroke-miterlimit="10" stroke-linecap="round" stroke-linejoin="round"/>
<path d="M227.66 119.332C228.76 122.292 228.675 124.661 227.66 126.521L76.5223 152.74L59.9453 132.188" stroke="#E2EEF8" stroke-width="1.20927" stroke-miterlimit="10" stroke-linecap="round" stroke-linejoin="round"/>
<path d="M88.1949 102.163C91.4088 104.531 93.4386 94.3821 90.9013 91.5065C88.1949 88.4618 77.3691 77.8052 77.3691 77.8052" stroke="#E2EEF8" stroke-width="1.20927" stroke-miterlimit="10" stroke-linecap="round" stroke-linejoin="round"/>
<path d="M98.0059 93.1136L227.915 70.9546" stroke="#E2EEF8" stroke-width="1.20927" stroke-miterlimit="10" stroke-linecap="round" stroke-linejoin="round"/>
<path d="M78.7229 123.138C82.6134 121.108 82.8672 108.083 79.6533 100.979L72.5488 93.79" stroke="#E2EEF8" stroke-width="1.20927" stroke-miterlimit="10" stroke-linecap="round" stroke-linejoin="round"/>
<path d="M79.6523 100.979L85.6572 99.8796" stroke="#E2EEF8" stroke-width="1.20927" stroke-miterlimit="10" stroke-linecap="round" stroke-linejoin="round"/>
<path d="M248.89 102.84L114.582 125.845L109.508 119.924" stroke="#E2EEF8" stroke-width="1.20927" stroke-miterlimit="10" stroke-linecap="round" stroke-linejoin="round"/>
<path d="M242.461 104.024C242.461 104.024 241.362 106.392 241.785 108.929C242.208 111.467 243.222 112.228 243.222 112.228L114.328 133.71L105.109 121.193" stroke="#E2EEF8" stroke-width="1.20927" stroke-miterlimit="10" stroke-linecap="round" stroke-linejoin="round"/>
<path d="M114.414 133.795C114.414 133.795 116.444 131.85 116.613 129.059C116.698 126.86 116.613 125.76 116.613 125.76" stroke="#E2EEF8" stroke-width="1.20927" stroke-miterlimit="10" stroke-linecap="round" stroke-linejoin="round"/>
<path d="M112.043 136.755L76.5213 142.422L62.3125 124.999" stroke="#E2EEF8" stroke-width="1.20927" stroke-miterlimit="10" stroke-linecap="round" stroke-linejoin="round"/>
<path d="M76.5234 142.421C77.3692 146.396 77.3692 149.526 76.5234 151.725" stroke="#E2EEF8" stroke-width="1.20927" stroke-miterlimit="10" stroke-linecap="round" stroke-linejoin="round"/>
<path d="M32.2891 13.2737C32.2891 13.2737 37.1099 16.1493 40.6621 15.4727C44.2989 14.7115 44.1297 13.612 44.1297 13.612L80.0747 50.5718" stroke="#E2EEF8" stroke-width="1.20927" stroke-miterlimit="10" stroke-linecap="round" stroke-linejoin="round"/>
<path d="M67.9799 50.6562L36.5176 154.093" stroke="#E2EEF8" stroke-width="1.20927" stroke-miterlimit="10" stroke-linecap="round" stroke-linejoin="round"/>
<path d="M129.215 18.0944L168.712 63.089C168.712 63.089 177.931 54.7159 195.269 49.6413C210.07 45.328 225.378 50.4026 225.378 50.4026L184.359 9.38305C184.359 9.38305 170.15 4.73134 156.787 7.09948C141.056 9.80592 129.215 18.0944 129.215 18.0944Z" stroke="#E2EEF8" stroke-width="1.20927" stroke-miterlimit="10" stroke-linecap="round" stroke-linejoin="round"/>
<path d="M135.559 14.627L174.21 58.6912" stroke="#E2EEF8" stroke-width="1.20927" stroke-miterlimit="10" stroke-linecap="round" stroke-linejoin="round"/>
<path d="M178.775 8.19922L217.68 48.6267" stroke="#E2EEF8" stroke-width="1.20927" stroke-miterlimit="10" stroke-linecap="round" stroke-linejoin="round"/>
<path d="M172.686 7.01514L211.591 47.7809" stroke="#E2EEF8" stroke-width="1.20927" stroke-miterlimit="10" stroke-linecap="round" stroke-linejoin="round"/>
<path d="M139.363 13.189L177.592 56.3229" stroke="#E2EEF8" stroke-width="1.20927" stroke-miterlimit="10" stroke-linecap="round" stroke-linejoin="round"/>
<path d="M162.283 55.308C162.283 55.308 172.686 48.0345 184.95 43.2982C200.765 37.2087 217.342 42.2833 217.342 42.2833" stroke="#E2EEF8" stroke-width="1.20927" stroke-miterlimit="10" stroke-linecap="round" stroke-linejoin="round"/>
<path d="M155.348 47.0198C155.348 47.0198 165.92 40.8457 178.099 36.1094C193.914 30.0199 209.646 34.6717 209.646 34.6717" stroke="#E2EEF8" stroke-width="1.20927" stroke-miterlimit="10" stroke-linecap="round" stroke-linejoin="round"/>
<path d="M148.328 39.6616C148.328 39.6616 159.323 33.8258 172.009 29.597C188.079 24.2687 202.795 28.1592 202.795 28.1592" stroke="#E2EEF8" stroke-width="1.20927" stroke-miterlimit="10" stroke-linecap="round" stroke-linejoin="round"/>
<path d="M142.07 32.4723C142.07 32.4723 152.981 25.6216 165.667 22.4923C181.906 18.4326 197.129 22.3231 197.129 22.3231" stroke="#E2EEF8" stroke-width="1.20927" stroke-miterlimit="10" stroke-linecap="round" stroke-linejoin="round"/>
<path d="M135.895 24.6067C135.895 24.6067 146.636 18.0943 159.238 14.7112C176.237 10.2287 191.038 15.9799 191.038 15.9799" stroke="#E2EEF8" stroke-width="1.20927" stroke-miterlimit="10" stroke-linecap="round" stroke-linejoin="round"/>
<path d="M76.3535 26.9748C88.1942 21.0545 101.388 19.4476 115.766 21.562" stroke="#E2EEF8" stroke-width="1.20927" stroke-miterlimit="10" stroke-linecap="round" stroke-linejoin="round"/>
<path d="M78.7207 30.9502C90.5614 25.0299 103.755 23.4229 118.133 25.5373" stroke="#E2EEF8" stroke-width="1.20927" stroke-miterlimit="10" stroke-linecap="round" stroke-linejoin="round"/>
<path d="M81.5977 35.4326C93.3538 29.2585 106.463 27.3979 120.841 29.174" stroke="#E2EEF8" stroke-width="1.20927" stroke-miterlimit="10" stroke-linecap="round" stroke-linejoin="round"/>
<path d="M84.6426 39.7459C96.3141 33.4026 109.423 31.3728 123.801 32.8952" stroke="#E2EEF8" stroke-width="1.20927" stroke-miterlimit="10" stroke-linecap="round" stroke-linejoin="round"/>
<path d="M88.1953 44.4824C99.7823 38.0546 112.892 35.8556 127.27 37.2934" stroke="#E2EEF8" stroke-width="1.20927" stroke-miterlimit="10" stroke-linecap="round" stroke-linejoin="round"/>
<path d="M91.7461 49.7261C103.164 42.96 116.189 40.3381 130.651 41.4376" stroke="#E2EEF8" stroke-width="1.20927" stroke-miterlimit="10" stroke-linecap="round" stroke-linejoin="round"/>
<path d="M116.613 128.467L165.245 120.263" stroke="#E2EEF8" stroke-width="1.20927" stroke-miterlimit="10" stroke-linecap="round" stroke-linejoin="round"/>
<path d="M170.148 119.502L241.362 107.238" stroke="#E2EEF8" stroke-width="1.20927" stroke-miterlimit="10" stroke-linecap="round" stroke-linejoin="round"/>
<path d="M113.652 128.467L115.598 130.75L204.91 116.119" stroke="#E2EEF8" stroke-width="1.20927" stroke-miterlimit="10" stroke-linecap="round" stroke-linejoin="round"/>
<path d="M129.551 109.944C130.566 106.646 132.173 103.516 134.287 100.725C135.725 102.84 136.655 105.208 136.993 107.745C138.008 105.292 139.192 102.84 140.377 100.556C141.645 101.74 143.421 105.462 144.605 108.168" stroke="#E2EEF8" stroke-width="1.20927" stroke-miterlimit="10" stroke-linecap="round" stroke-linejoin="round"/>
<path d="M151.541 103.094C155.685 103.009 159.66 101.91 163.72 101.318" stroke="#E2EEF8" stroke-width="1.20927" stroke-miterlimit="10" stroke-linecap="round" stroke-linejoin="round"/>
<path d="M170.57 99.3724C172.769 97.5963 175.391 95.1436 176.068 95.3127C177.083 98.3575 177.083 100.387 176.068 104.701" stroke="#E2EEF8" stroke-width="1.20927" stroke-miterlimit="10" stroke-linecap="round" stroke-linejoin="round"/>
<path d="M37.6172 37.0398L48.0201 47.8656" stroke="#E2EEF8" stroke-width="1.20927" stroke-miterlimit="10" stroke-linecap="round" stroke-linejoin="round"/>
<path d="M29.9219 40.0842L48.867 58.7756" stroke="#E2EEF8" stroke-width="1.20927" stroke-miterlimit="10" stroke-linecap="round" stroke-linejoin="round"/>
<path d="M32.9659 58.0144C33.3888 57.3378 34.0654 56.6611 34.9111 56.4074C35.7569 56.1537 36.7718 56.4074 37.1947 57.1686C37.7868 58.1835 37.0255 59.3676 36.2643 60.2133C33.5579 62.8352 29.16 63.681 27.2993 66.9794C27.2147 67.1486 27.1301 67.3177 27.2147 67.4869C27.2993 67.6561 27.3838 67.656 27.553 67.8252C29.5828 69.6013 31.5281 72.2232 33.3888 73.8301" stroke="#E2EEF8" stroke-width="1.20927" stroke-miterlimit="10" stroke-linecap="round" stroke-linejoin="round"/>
</svg>
