<svg width="254" height="198" viewBox="0 0 254 198" fill="none" xmlns="http://www.w3.org/2000/svg">
<path d="M251.975 6.02173H6.04688V196.091H251.975V6.02173Z" fill="#5EC69D" fill-opacity="0.15" stroke="#5EC69D" stroke-opacity="0.15" stroke-width="2.23436" stroke-miterlimit="10" stroke-linecap="round" stroke-linejoin="round"/>
<path d="M247.954 2H2.02539V192.069H247.954V2Z" fill="white" stroke="#5EC69D" stroke-width="2.23436" stroke-miterlimit="10" stroke-linecap="round" stroke-linejoin="round"/>
<path d="M47.3096 11.533H3.36719V190.728H47.3096V11.533Z" fill="#5EC69D" fill-opacity="0.15"/>
<path d="M2.91797 11.5331L246.612 10.9373" stroke="#5EC69D" stroke-width="2.23436" stroke-miterlimit="10" stroke-linecap="round" stroke-linejoin="round"/>
<path d="M244.081 22.4075H55.7988V50.4115H244.081V22.4075Z" fill="#5EC69D" fill-opacity="0.15"/>
<path d="M60.5664 27.7693H125.512" stroke="#5EC69D" stroke-width="2.23436" stroke-miterlimit="10" stroke-linecap="round" stroke-linejoin="round"/>
<path d="M135.193 27.3225H189.861" stroke="#5EC69D" stroke-width="2.23436" stroke-miterlimit="10" stroke-linecap="round" stroke-linejoin="round"/>
<path d="M93.4844 34.6213H61.0117V41.4733H93.4844V34.6213Z" stroke="#5EC69D" stroke-width="2.23436" stroke-miterlimit="10" stroke-linecap="round" stroke-linejoin="round"/>
<path d="M168.412 34.6213H135.939V41.4733H168.412V34.6213Z" stroke="#5EC69D" stroke-width="2.23436" stroke-miterlimit="10" stroke-linecap="round" stroke-linejoin="round"/>
<path d="M78.8861 66.7964H58.9258V86.7567H78.8861V66.7964Z" stroke="#5EC69D" stroke-width="2.23436" stroke-miterlimit="10" stroke-linecap="round" stroke-linejoin="round"/>
<path d="M78.8861 101.503H58.9258V121.463H78.8861V101.503Z" stroke="#5EC69D" stroke-width="2.23436" stroke-miterlimit="10" stroke-linecap="round" stroke-linejoin="round"/>
<path d="M78.8861 136.956H58.9258V156.916H78.8861V136.956Z" stroke="#5EC69D" stroke-width="2.23436" stroke-miterlimit="10" stroke-linecap="round" stroke-linejoin="round"/>
<path d="M78.8861 171.662H58.9258V191.622H78.8861V171.662Z" stroke="#5EC69D" stroke-width="2.23436" stroke-miterlimit="10" stroke-linecap="round" stroke-linejoin="round"/>
<path d="M65.1836 74.9887C65.7794 77.2231 66.3752 79.3085 67.12 81.5429C68.0138 80.2023 69.2054 79.0106 70.3971 77.819C74.4189 73.7971 79.0366 69.7752 84.697 68.4346C84.548 68.4346 84.2501 68.5835 84.1012 68.5835" stroke="#5EC69D" stroke-width="2.23436" stroke-miterlimit="10" stroke-linecap="round" stroke-linejoin="round"/>
<path d="M65.332 109.993C66.5237 111.93 67.4175 114.015 68.1623 116.101C72.9289 109.993 79.0362 105.078 85.8882 101.503C85.5903 101.652 85.2923 101.652 84.9944 101.801" stroke="#5EC69D" stroke-width="2.23436" stroke-miterlimit="10" stroke-linecap="round" stroke-linejoin="round"/>
<path d="M94.9746 70.3711H121.042" stroke="#5EC69D" stroke-width="2.23436" stroke-miterlimit="10" stroke-linecap="round" stroke-linejoin="round"/>
<path d="M94.8262 78.4146H148.749" stroke="#5EC69D" stroke-width="2.23436" stroke-miterlimit="10" stroke-linecap="round" stroke-linejoin="round"/>
<path d="M94.9746 107.015H110.317" stroke="#5EC69D" stroke-width="2.23436" stroke-miterlimit="10" stroke-linecap="round" stroke-linejoin="round"/>
<path d="M94.8262 115.058H148.749" stroke="#5EC69D" stroke-width="2.23436" stroke-miterlimit="10" stroke-linecap="round" stroke-linejoin="round"/>
<path d="M94.9746 141.573H135.193" stroke="#5EC69D" stroke-width="2.23436" stroke-miterlimit="10" stroke-linecap="round" stroke-linejoin="round"/>
<path d="M94.8262 149.616H148.749" stroke="#5EC69D" stroke-width="2.23436" stroke-miterlimit="10" stroke-linecap="round" stroke-linejoin="round"/>
<path d="M94.9746 176.726H121.042" stroke="#5EC69D" stroke-width="2.23436" stroke-miterlimit="10" stroke-linecap="round" stroke-linejoin="round"/>
<path d="M94.8262 184.771H148.749" stroke="#5EC69D" stroke-width="2.23436" stroke-miterlimit="10" stroke-linecap="round" stroke-linejoin="round"/>
<path d="M227.102 92.4166C236.727 92.4166 244.53 84.6137 244.53 74.9885C244.53 65.3633 236.727 57.5605 227.102 57.5605C217.477 57.5605 209.674 65.3633 209.674 74.9885C209.674 84.6137 217.477 92.4166 227.102 92.4166Z" fill="#2DAB66" stroke="#5EC69D" stroke-width="2.23436" stroke-miterlimit="10" stroke-linecap="round" stroke-linejoin="round"/>
<path d="M227.1 65.0083V84.6706" stroke="white" stroke-width="2.23436" stroke-miterlimit="10" stroke-linecap="round" stroke-linejoin="round"/>
<path d="M237.08 74.6904H217.418" stroke="white" stroke-width="2.23436" stroke-miterlimit="10" stroke-linecap="round" stroke-linejoin="round"/>
</svg>
