<svg width="250" height="243" viewBox="0 0 250 243" fill="none" xmlns="http://www.w3.org/2000/svg">
<g clip-path="url(#clip0_1524_83303)">
<path d="M158.644 54.5867H91.4142C89.8821 54.5886 88.4134 55.1959 87.3301 56.2756C86.2467 57.3552 85.6373 58.819 85.6355 60.3459V209.259L84.865 209.493L68.3725 214.527C67.5909 214.764 66.7467 214.683 66.0251 214.301C65.3036 213.919 64.7637 213.267 64.524 212.488L15.4665 52.786C15.2278 52.007 15.3091 51.1654 15.6927 50.4462C16.0763 49.727 16.7308 49.189 17.5122 48.9504L42.927 41.1947L116.606 18.7186L142.02 10.9629C142.407 10.8442 142.813 10.8028 143.216 10.8409C143.619 10.879 144.01 10.9959 144.368 11.1849C144.725 11.3739 145.042 11.6313 145.3 11.9424C145.557 12.2534 145.751 12.6121 145.869 12.9978L158.409 53.8188L158.644 54.5867Z" fill="#F5FBFF"/>
<path d="M173.313 53.8196L158.199 4.62087C157.948 3.80113 157.537 3.0388 156.99 2.37744C156.443 1.71609 155.77 1.16867 155.011 0.766471C154.251 0.364272 153.419 0.11517 152.563 0.0334095C151.707 -0.0483512 150.843 0.0388315 150.021 0.289967L114.289 11.1902L40.6145 33.6702L4.88287 44.5742C3.22296 45.0822 1.8331 46.2258 1.01836 47.754C0.203614 49.2822 0.0305507 51.0701 0.537163 52.7254L52.1911 220.867C52.6027 222.203 53.4331 223.372 54.5605 224.203C55.6879 225.035 57.0529 225.484 58.4553 225.485C59.1044 225.486 59.7498 225.389 60.3699 225.197L84.8639 217.726L85.6344 217.488V216.685L84.8639 216.92L60.1427 224.464C58.6775 224.909 57.095 224.757 55.7423 224.041C54.3896 223.325 53.3771 222.103 52.927 220.644L1.277 52.4989C1.05397 51.7759 0.976242 51.0161 1.04825 50.2631C1.12027 49.5101 1.3406 48.7787 1.69665 48.1107C2.05271 47.4427 2.53748 46.8513 3.12321 46.3703C3.70894 45.8893 4.38412 45.5281 5.11009 45.3076L40.8417 34.4035L114.516 11.9274L150.248 1.02331C150.799 0.855832 151.371 0.770439 151.947 0.769904C153.182 0.772669 154.385 1.16965 155.377 1.90271C156.37 2.63576 157.101 3.66636 157.464 4.84356L172.508 53.8196L172.747 54.5875H173.548L173.313 53.8196Z" fill="#E2EEF8"/>
<path d="M47.5117 49.076C46.7692 49.0755 46.0463 48.8378 45.4493 48.3979C44.8522 47.9579 44.4124 47.3389 44.1942 46.6315L39.2321 30.4783C39.0987 30.0444 39.0524 29.5885 39.0959 29.1368C39.1393 28.6851 39.2717 28.2463 39.4853 27.8456C39.6989 27.4448 39.9896 27.0899 40.3409 26.8011C40.6922 26.5124 41.097 26.2954 41.5324 26.1626L109.312 5.4819C110.192 5.2145 111.142 5.3057 111.953 5.73548C112.765 6.16527 113.373 6.89853 113.643 7.77433L118.605 23.9278C118.873 24.8041 118.782 25.7506 118.35 26.5597C117.919 27.3688 117.183 27.9744 116.305 28.2436L48.5246 48.9243C48.1964 49.0247 47.855 49.0758 47.5117 49.076Z" fill="#5EC69D"/>
<path d="M73.5077 17.2599C77.763 17.2599 81.2126 13.8219 81.2126 9.581C81.2126 5.34006 77.763 1.9021 73.5077 1.9021C69.2524 1.9021 65.8027 5.34006 65.8027 9.581C65.8027 13.8219 69.2524 17.2599 73.5077 17.2599Z" fill="#5EC69D"/>
<path d="M73.5079 14.444C76.2025 14.444 78.3869 12.267 78.3869 9.58151C78.3869 6.89602 76.2025 4.71899 73.5079 4.71899C70.8133 4.71899 68.6289 6.89602 68.6289 9.58151C68.6289 12.267 70.8133 14.444 73.5079 14.444Z" fill="white"/>
<path d="M232.414 223.523H102.2C101.332 223.522 100.5 223.178 99.886 222.566C99.2721 221.954 98.9268 221.124 98.9258 220.259V64.7613C98.9268 63.8961 99.2721 63.0666 99.886 62.4547C100.5 61.8429 101.332 61.4988 102.2 61.4978H232.414C233.282 61.4988 234.114 61.843 234.728 62.4548C235.342 63.0666 235.688 63.8961 235.689 64.7613V220.259C235.688 221.124 235.342 221.954 234.728 222.566C234.114 223.177 233.282 223.522 232.414 223.523Z" fill="#F2F7FB"/>
<path d="M172.507 53.8191H91.4125C89.6763 53.8215 88.0119 54.51 86.7842 55.7335C85.5565 56.9571 84.8657 58.6158 84.8633 60.3462V216.919L85.6338 216.685V60.3462C85.6356 58.8193 86.2451 57.3555 87.3284 56.2759C88.4117 55.1962 89.8804 54.5888 91.4125 54.587H172.746L172.507 53.8191ZM243.2 53.8191H91.4125C89.6763 53.8215 88.0119 54.51 86.7842 55.7335C85.5565 56.9571 84.8657 58.6158 84.8633 60.3462V236.193C84.8657 237.923 85.5565 239.582 86.7842 240.806C88.0119 242.029 89.6763 242.718 91.4125 242.72H243.2C244.936 242.718 246.6 242.029 247.828 240.806C249.056 239.582 249.747 237.923 249.749 236.193V60.3462C249.747 58.6158 249.056 56.9571 247.828 55.7335C246.6 54.51 244.936 53.8215 243.2 53.8191ZM248.979 236.193C248.977 237.72 248.367 239.184 247.284 240.263C246.201 241.343 244.732 241.95 243.2 241.952H91.4125C89.8804 241.95 88.4117 241.343 87.3284 240.263C86.2451 239.184 85.6356 237.72 85.6338 236.193V60.3462C85.6356 58.8193 86.2451 57.3555 87.3284 56.2759C88.4117 55.1962 89.8804 54.5888 91.4125 54.587H243.2C244.732 54.5888 246.201 55.1962 247.284 56.2759C248.367 57.3555 248.977 58.8193 248.979 60.3462V236.193Z" fill="#E2EEF8"/>
<path d="M202.749 70.7128H131.864C130.944 70.7118 130.063 70.3474 129.413 69.6996C128.763 69.0518 128.398 68.1734 128.396 67.2573V50.3637C128.398 49.4476 128.763 48.5692 129.413 47.9214C130.063 47.2736 130.944 46.9092 131.864 46.9082H202.749C203.668 46.9092 204.55 47.2736 205.2 47.9214C205.85 48.5692 206.215 49.4476 206.216 50.3637V67.2573C206.215 68.1734 205.85 69.0518 205.2 69.6996C204.55 70.3474 203.668 70.7118 202.749 70.7128Z" fill="#5EC69D"/>
<path d="M167.308 48.06C171.564 48.06 175.013 44.622 175.013 40.3811C175.013 36.1401 171.564 32.7021 167.308 32.7021C163.053 32.7021 159.604 36.1401 159.604 40.3811C159.604 44.622 163.053 48.06 167.308 48.06Z" fill="#5EC69D"/>
<path d="M167.306 45.0582C169.898 45.0582 171.999 42.9642 171.999 40.381C171.999 37.7979 169.898 35.7039 167.306 35.7039C164.714 35.7039 162.613 37.7979 162.613 40.381C162.613 42.9642 164.714 45.0582 167.306 45.0582Z" fill="white"/>
</g>
<defs>
<clipPath id="clip0_1524_83303">
<rect width="249.5" height="242.72" fill="white" transform="translate(0.25)"/>
</clipPath>
</defs>
</svg>
