<svg width="307" height="192" viewBox="0 0 307 192" fill="none" xmlns="http://www.w3.org/2000/svg">
<path opacity="0.28" d="M31.5915 58.4998L1.89158 82.4998C-0.308419 84.1998 -0.608468 87.3998 1.09153 89.5998L79.1914 189.5C80.6914 191.4 83.3915 192 85.5915 190.8L172.691 144C175.491 142.5 176.191 138.9 174.291 136.4L104.592 47.8999C103.492 46.3999 101.591 45.6998 99.7915 45.9998L33.9914 57.3999C33.0914 57.5999 32.2915 57.9998 31.5915 58.4998Z" fill="#E2EEF8"/>
<path d="M110.691 51.3999L239.991 51.2998L273.392 23.4999L153.292 23.3999L110.691 51.3999Z" stroke="#E2EEF8" stroke-width="1.3168" stroke-miterlimit="10" stroke-linecap="round" stroke-linejoin="round"/>
<path d="M136.291 58.2998L242.091 58.3999L273.391 31.8999" stroke="#E2EEF8" stroke-width="1.3168" stroke-miterlimit="10" stroke-linecap="round" stroke-linejoin="round"/>
<path d="M132.092 65.6001L232.992 66.0001" stroke="#E2EEF8" stroke-width="1.3168" stroke-miterlimit="10" stroke-linecap="round" stroke-linejoin="round"/>
<path d="M133.691 71.7001H244.491L280.292 40.1001H264.191" stroke="#E2EEF8" stroke-width="1.3168" stroke-miterlimit="10" stroke-linecap="round" stroke-linejoin="round"/>
<path d="M277.892 51.3999L247.191 79.1998L150.691 79.0999" stroke="#E2EEF8" stroke-width="1.3168" stroke-miterlimit="10" stroke-linecap="round" stroke-linejoin="round"/>
<path d="M140.092 85.2998H248.492L281.192 56.2998" stroke="#E2EEF8" stroke-width="1.3168" stroke-miterlimit="10" stroke-linecap="round" stroke-linejoin="round"/>
<path d="M174.992 92.4999H271.492L305.192 55.3999H290.192" stroke="#E2EEF8" stroke-width="1.3168" stroke-miterlimit="10" stroke-linecap="round" stroke-linejoin="round"/>
<path d="M169.492 98.5L275.492 98.9L306.292 64H297.292" stroke="#E2EEF8" stroke-width="1.3168" stroke-miterlimit="10" stroke-linecap="round" stroke-linejoin="round"/>
<path d="M265.291 98.8999L257.99 105L160.391 104.6" stroke="#E2EEF8" stroke-width="1.3168" stroke-miterlimit="10" stroke-linecap="round" stroke-linejoin="round"/>
<path d="M158.691 111.8H247.491" stroke="#E2EEF8" stroke-width="1.3168" stroke-miterlimit="10" stroke-linecap="round" stroke-linejoin="round"/>
<path d="M171.992 117.7H259.092L271.192 105.7" stroke="#E2EEF8" stroke-width="1.3168" stroke-miterlimit="10" stroke-linecap="round" stroke-linejoin="round"/>
<path d="M163.592 124.5H260.892L290.092 95.7" stroke="#E2EEF8" stroke-width="1.3168" stroke-miterlimit="10" stroke-linecap="round" stroke-linejoin="round"/>
<path d="M14.7918 51L13.7918 54.2C13.4918 55.2 13.5918 56.4 14.0918 57.4L81.9917 184.3C82.3917 185.1 83.3917 185.4 84.1917 185L173.092 137.4C173.992 136.9 174.792 136.2 175.292 135.3L177.892 130.9" fill="white"/>
<path d="M14.7918 51L13.7918 54.2C13.4918 55.2 13.5918 56.4 14.0918 57.4L81.9917 184.3C82.3917 185.1 83.3917 185.4 84.1917 185L173.092 137.4C173.992 136.9 174.792 136.2 175.292 135.3L177.892 130.9" stroke="#E2EEF8" stroke-width="1.3168" stroke-miterlimit="10" stroke-linecap="round" stroke-linejoin="round"/>
<path d="M177.991 130.8L84.5911 180.7L14.791 51L108.191 1L177.991 130.8Z" fill="#5EC69D" fill-opacity="0.15" stroke="#E2EEF8" stroke-width="1.3168" stroke-miterlimit="10" stroke-linecap="round" stroke-linejoin="round"/>
<path d="M181.691 104.8L96.791 162.8C77.391 145.9 67.691 136.9 23.791 51.6L102.191 8.19995C123.491 47.4 149.991 90.0999 181.691 104.8Z" fill="white" stroke="#E2EEF8" stroke-width="1.3168" stroke-miterlimit="10" stroke-linecap="round" stroke-linejoin="round"/>
<path d="M83.0926 21.5998L42.3926 43.3998L39.4925 37.9998C37.7925 34.7998 38.9924 30.7998 42.1924 28.9998L71.1924 13.4998C74.3924 11.7998 78.3924 12.9998 80.1924 16.1998L83.0926 21.5998Z" fill="#5EC69D" stroke="#E2EEF8" stroke-width="1.3168" stroke-miterlimit="10" stroke-linecap="round" stroke-linejoin="round"/>
<path d="M65.7917 44.7C64.8917 42.6 66.8916 40 68.9916 41.7C70.8916 43.2 69.1917 44.9 68.5917 46.6C66.4917 53 75.0917 49.1001 73.0917 45.4001" stroke="#E2EEF8" stroke-width="1.3168" stroke-miterlimit="10" stroke-linecap="round" stroke-linejoin="round"/>
<path d="M74.5925 53.4C74.4925 53.3 74.4926 53.1 74.3926 53" stroke="#E2EEF8" stroke-width="1.3168" stroke-miterlimit="10" stroke-linecap="round" stroke-linejoin="round"/>
<path d="M48.791 81.7999L77.5911 63.7" stroke="#E2EEF8" stroke-width="1.3168" stroke-miterlimit="10" stroke-linecap="round" stroke-linejoin="round"/>
<path d="M84.1914 60.2001L98.7915 51.1001" stroke="#E2EEF8" stroke-width="1.3168" stroke-miterlimit="10" stroke-linecap="round" stroke-linejoin="round"/>
<path d="M51.4922 87.0001L108.492 51.6001" stroke="#E2EEF8" stroke-width="1.3168" stroke-miterlimit="10" stroke-linecap="round" stroke-linejoin="round"/>
<path d="M62.1917 98.4999C64.1799 98.4999 65.7917 96.8881 65.7917 94.8999C65.7917 92.9117 64.1799 91.2998 62.1917 91.2998C60.2034 91.2998 58.5918 92.9117 58.5918 94.8999C58.5918 96.8881 60.2034 98.4999 62.1917 98.4999Z" stroke="#E2EEF8" stroke-width="1.3168" stroke-miterlimit="10" stroke-linecap="round" stroke-linejoin="round"/>
<path d="M87.3911 82.8C89.3793 82.8 90.991 81.1883 90.991 79.2001C90.991 77.2118 89.3793 75.6001 87.3911 75.6001C85.4029 75.6001 83.791 77.2118 83.791 79.2001C83.791 81.1883 85.4029 82.8 87.3911 82.8Z" stroke="#E2EEF8" stroke-width="1.3168" stroke-miterlimit="10" stroke-linecap="round" stroke-linejoin="round"/>
<path d="M111.292 68.0999C113.28 68.0999 114.892 66.4881 114.892 64.4999C114.892 62.5117 113.28 60.8999 111.292 60.8999C109.303 60.8999 107.691 62.5117 107.691 64.4999C107.691 66.4881 109.303 68.0999 111.292 68.0999Z" stroke="#E2EEF8" stroke-width="1.3168" stroke-miterlimit="10" stroke-linecap="round" stroke-linejoin="round"/>
<path d="M99.4915 95.1999C98.3915 93.1999 100.292 90.5 102.492 92C104.492 93.4 102.892 95.1 102.492 96.9C100.792 103.4 109.092 99 106.892 95.4" stroke="#E2EEF8" stroke-width="1.3168" stroke-miterlimit="10" stroke-linecap="round" stroke-linejoin="round"/>
<path d="M108.892 103.4C108.792 103.3 108.691 103.1 108.691 103" stroke="#E2EEF8" stroke-width="1.3168" stroke-miterlimit="10" stroke-linecap="round" stroke-linejoin="round"/>
<path d="M99.7915 146.7C101.78 146.7 103.392 145.088 103.392 143.1C103.392 141.112 101.78 139.5 99.7915 139.5C97.8033 139.5 96.1914 141.112 96.1914 143.1C96.1914 145.088 97.8033 146.7 99.7915 146.7Z" stroke="#E2EEF8" stroke-width="1.3168" stroke-miterlimit="10" stroke-linecap="round" stroke-linejoin="round"/>
<path d="M123.992 129.6C125.981 129.6 127.593 127.988 127.593 126C127.593 124.012 125.981 122.4 123.992 122.4C122.004 122.4 120.393 124.012 120.393 126C120.393 127.988 122.004 129.6 123.992 129.6Z" stroke="#E2EEF8" stroke-width="1.3168" stroke-miterlimit="10" stroke-linecap="round" stroke-linejoin="round"/>
<path d="M148.192 112.6C150.18 112.6 151.792 110.988 151.792 109C151.792 107.012 150.18 105.4 148.192 105.4C146.203 105.4 144.592 107.012 144.592 109C144.592 110.988 146.203 112.6 148.192 112.6Z" stroke="#E2EEF8" stroke-width="1.3168" stroke-miterlimit="10" stroke-linecap="round" stroke-linejoin="round"/>
<path d="M80.4922 131.9L128.192 98.8999" stroke="#E2EEF8" stroke-width="1.3168" stroke-miterlimit="10" stroke-linecap="round" stroke-linejoin="round"/>
<path d="M84.4922 136.6L107.292 121" stroke="#E2EEF8" stroke-width="1.3168" stroke-miterlimit="10" stroke-linecap="round" stroke-linejoin="round"/>
<path d="M114.393 116.3L146.192 93" stroke="#E2EEF8" stroke-width="1.3168" stroke-miterlimit="10" stroke-linecap="round" stroke-linejoin="round"/>
</svg>
