<?xml version="1.0" standalone="no"?>
<!DOCTYPE svg PUBLIC "-//W3C//DTD SVG 20010904//EN"
 "http://www.w3.org/TR/2001/REC-SVG-20010904/DTD/svg10.dtd">
<svg version="1.0" xmlns="http://www.w3.org/2000/svg"
 width="624.000000pt" height="624.000000pt" viewBox="0 0 624.000000 624.000000"
 preserveAspectRatio="xMidYMid meet">
<metadata>
Created by potrace 1.14, written by Peter Selinger 2001-2017
</metadata>
<g transform="translate(0.000000,624.000000) scale(0.100000,-0.100000)"
fill="#000000" stroke="none">
<path d="M3008 6235 c-2 -1 -32 -5 -68 -9 -103 -9 -265 -36 -370 -61 -8 -2
-28 -6 -45 -10 -150 -35 -384 -120 -555 -203 -418 -202 -768 -494 -1038 -867
-65 -91 -253 -426 -262 -470 -1 -5 -6 -20 -10 -31 -46 -121 -92 -266 -106
-337 -2 -10 -5 -26 -8 -35 -3 -9 -8 -33 -11 -52 -3 -19 -10 -57 -15 -85 -5
-27 -12 -68 -14 -90 -3 -22 -9 -69 -13 -105 -15 -126 -8 -518 11 -627 7 -37
19 -119 21 -138 4 -34 65 -266 87 -330 24 -71 61 -168 79 -210 7 -16 13 -32
14 -35 25 -71 150 -293 232 -413 129 -187 328 -401 478 -512 22 -17 42 -32 45
-36 3 -3 28 -21 55 -39 28 -19 51 -37 53 -42 2 -4 8 -8 14 -8 5 0 22 -8 36
-19 35 -24 288 -152 369 -185 70 -29 210 -71 267 -80 21 -4 41 -8 45 -10 6 -4
92 -15 176 -22 143 -12 479 9 516 32 4 2 24 6 45 10 22 3 45 11 53 17 8 7 17
11 20 9 8 -4 93 19 107 29 6 5 19 10 30 12 10 1 57 21 104 44 382 186 645 529
735 961 15 71 18 94 34 220 8 69 7 356 -2 412 -3 19 -9 58 -13 85 -4 28 -8 55
-9 60 -10 46 -26 126 -30 155 -3 19 -8 42 -10 50 -2 8 -6 36 -9 63 -7 53 -14
113 -22 172 -9 71 -11 408 -3 485 13 119 19 163 29 200 5 19 11 46 14 60 12
58 17 76 47 163 40 114 96 221 156 300 70 90 65 164 -12 183 -39 10 -76 -11
-158 -89 -175 -168 -315 -406 -413 -705 l-47 -143 -61 58 c-33 32 -63 60 -66
64 -18 19 -157 124 -220 166 -107 71 -273 163 -296 163 -7 0 -14 3 -16 8 -5
12 -263 111 -358 138 -153 42 -297 74 -340 74 -90 0 -149 -86 -114 -168 20
-48 30 -55 149 -107 357 -156 694 -393 880 -619 22 -27 46 -55 53 -62 6 -7 12
-15 12 -18 0 -3 15 -27 34 -54 30 -41 106 -173 106 -184 0 -2 -39 15 -87 38
-95 46 -282 111 -341 120 -20 3 -42 7 -49 9 -36 12 -144 20 -263 19 -129 -1
-150 -3 -230 -18 -19 -4 -42 -8 -50 -10 -8 -2 -22 -6 -30 -9 -8 -3 -33 -11
-55 -18 -41 -12 -168 -73 -189 -90 -6 -5 -37 -29 -70 -54 -66 -50 -84 -78 -79
-119 5 -37 35 -64 78 -71 12 -2 77 23 85 33 7 10 74 40 128 59 138 46 321 48
488 3 481 -129 819 -534 726 -870 -33 -120 -99 -242 -176 -328 -33 -37 -139
-122 -152 -122 -4 0 -15 -6 -23 -14 -13 -11 -166 -81 -166 -76 0 1 -18 -3 -40
-9 -22 -5 -55 -13 -74 -16 -19 -3 -37 -7 -40 -9 -25 -15 -292 -22 -386 -11
-129 15 -257 45 -279 66 -6 5 -16 9 -24 9 -24 0 -173 80 -261 140 -144 99
-285 232 -376 355 -17 22 -32 42 -35 45 -30 30 -122 183 -181 301 -82 163
-165 430 -184 584 -3 28 -8 64 -10 80 -2 17 -7 77 -10 135 -12 248 5 431 60
650 1 3 5 19 9 35 4 17 11 41 16 55 10 31 17 53 19 62 6 25 97 223 128 277
149 268 369 511 627 693 44 32 86 62 93 68 7 5 14 10 17 10 2 0 34 18 70 40
175 106 534 248 676 266 19 3 44 8 55 11 23 8 33 10 90 18 22 3 50 7 62 9 122
24 535 24 623 1 8 -3 33 -7 55 -10 22 -2 51 -7 65 -10 84 -19 111 -25 165 -40
241 -66 545 -222 725 -371 49 -41 223 -215 255 -254 56 -70 85 -111 85 -120 0
-6 4 -10 9 -10 5 0 16 -12 24 -27 8 -16 33 -59 56 -97 37 -60 113 -211 151
-301 43 -103 115 -348 135 -460 2 -16 7 -39 9 -50 9 -48 19 -113 22 -145 2
-19 6 -69 10 -110 9 -100 9 -359 0 -440 -4 -36 -8 -78 -10 -95 -4 -41 -17
-135 -22 -160 -2 -10 -6 -37 -9 -60 -10 -65 -15 -99 -20 -115 -2 -8 -7 -33
-10 -55 -3 -22 -12 -65 -21 -95 -8 -30 -17 -64 -19 -75 -4 -18 -9 -32 -31 -90
-4 -11 -8 -25 -10 -32 -1 -7 -9 -27 -18 -44 -9 -18 -16 -36 -16 -42 0 -5 -16
-43 -35 -84 -19 -41 -35 -79 -35 -84 0 -5 -4 -9 -10 -9 -5 0 -10 -5 -10 -11 0
-20 -101 -181 -159 -254 -118 -147 -229 -256 -470 -459 -25 -21 -57 -48 -71
-60 -14 -11 -52 -43 -85 -71 -228 -190 -401 -401 -514 -625 -49 -99 -104 -252
-116 -330 -4 -25 -9 -54 -11 -65 -6 -28 -5 -183 0 -223 23 -156 84 -223 145
-158 18 19 21 31 16 57 -4 19 -8 78 -9 132 -4 134 33 271 112 417 32 58 129
194 176 245 84 92 158 166 192 191 l36 28 -15 -35 c-8 -19 -24 -54 -35 -79
-22 -48 -69 -203 -79 -260 -14 -80 -6 -225 16 -298 30 -101 71 -167 102 -167
20 0 24 5 23 30 -1 17 -9 50 -19 75 -23 59 -28 93 -28 165 0 51 8 140 13 140
1 0 3 7 5 15 12 58 89 234 116 266 7 9 14 23 15 32 2 8 6 18 11 21 4 3 28 33
53 66 93 125 131 167 400 435 337 336 434 470 573 790 25 57 96 274 103 315 1
6 3 12 4 15 1 3 3 12 5 20 1 8 12 54 24 102 25 103 38 165 56 273 3 17 7 39 9
50 4 22 14 94 22 165 3 25 7 61 10 80 3 19 7 84 9 144 3 60 7 111 9 113 2 2 0
20 -4 39 -5 19 -4 37 1 40 5 3 7 8 5 12 -2 4 -7 54 -10 112 -4 58 -9 125 -12
150 -10 97 -16 145 -19 150 -2 3 -6 28 -9 55 -4 28 -16 91 -27 140 -11 50 -22
98 -24 109 -4 18 -32 120 -39 141 -2 6 -4 13 -5 17 -2 11 -56 156 -72 193 -7
17 -13 32 -14 35 -13 39 -100 216 -143 290 -44 77 -137 212 -202 295 -56 71
-263 285 -315 325 -11 8 -40 31 -65 50 -25 19 -47 37 -50 40 -3 3 -32 23 -65
45 -33 22 -61 43 -63 48 -2 4 -9 7 -16 7 -6 0 -27 11 -46 23 -152 102 -470
232 -692 283 -31 7 -104 23 -138 29 -32 7 -117 19 -205 31 -44 6 -481 14 -487
9z"/>
</g>
</svg>
