<svg width="30" height="30" viewBox="0 0 30 30" fill="none" xmlns="http://www.w3.org/2000/svg">
<circle cx="15" cy="15" r="15" fill="#5EC69D" fill-opacity="0.15"/>
<g clip-path="url(#clip0_950_72330)">
<path d="M19.771 14.3181H12.155L15.4823 10.9909C15.7482 10.7249 15.7482 10.2886 15.4823 10.0227C15.2164 9.75676 14.7869 9.75676 14.521 10.0227L10.0278 14.5159C9.76186 14.7818 9.76186 15.2113 10.0278 15.4772L14.521 19.9704C14.7869 20.2363 15.2164 20.2363 15.4823 19.9704C15.7482 19.7045 15.7482 19.2749 15.4823 19.009L12.155 15.6818H19.771C20.146 15.6818 20.4528 15.3749 20.4528 14.9999C20.4528 14.6249 20.146 14.3181 19.771 14.3181Z" fill="#5EC69D"/>
</g>
<defs>
<clipPath id="clip0_950_72330">
<rect width="16.3636" height="16.3636" fill="white" transform="translate(6.81641 6.81812)"/>
</clipPath>
</defs>
</svg>
