<svg width="15" height="15" viewBox="0 0 15 15" fill="none" xmlns="http://www.w3.org/2000/svg">
    <path
        d="M0.75 2.31818H1.5V13.9773C1.5 14.1491 1.57902 14.3138 1.71967 14.4353C1.86032 14.5568 2.05109 14.625 2.25 14.625H12.75C12.9489 14.625 13.1397 14.5568 13.2803 14.4353C13.421 14.3138 13.5 14.1491 13.5 13.9773V2.31818H14.25C14.4489 2.31818 14.6397 2.24994 14.7803 2.12847C14.921 2.00699 15 1.84224 15 1.67045C15 1.49867 14.921 1.33391 14.7803 1.21244C14.6397 1.09097 14.4489 1.02273 14.25 1.02273H9.75C9.75 0.850939 9.67098 0.686187 9.53033 0.564715C9.38968 0.443242 9.19891 0.375 9 0.375H6C5.80109 0.375 5.61032 0.443242 5.46967 0.564715C5.32902 0.686187 5.25 0.850939 5.25 1.02273H0.75C0.551088 1.02273 0.360322 1.09097 0.21967 1.21244C0.0790176 1.33391 0 1.49867 0 1.67045C0 1.84224 0.0790176 2.00699 0.21967 2.12847C0.360322 2.24994 0.551088 2.31818 0.75 2.31818ZM12 2.31818V13.3295H3V2.31818H12Z"
        fill="#FF7C7C" />
    <path
        d="M5.99976 11.3865C6.19867 11.3865 6.38943 11.3182 6.53009 11.1968C6.67074 11.0753 6.74976 10.9105 6.74976 10.7387V4.9092C6.74976 4.73741 6.67074 4.57266 6.53009 4.45119C6.38943 4.32972 6.19867 4.26147 5.99976 4.26147C5.80084 4.26147 5.61008 4.32972 5.46943 4.45119C5.32877 4.57266 5.24976 4.73741 5.24976 4.9092V10.7387C5.24976 10.9105 5.32877 11.0753 5.46943 11.1968C5.61008 11.3182 5.80084 11.3865 5.99976 11.3865Z"
        fill="#FF7C7C" />
    <path
        d="M9 11.3865C9.19891 11.3865 9.38968 11.3182 9.53033 11.1968C9.67098 11.0753 9.75 10.9105 9.75 10.7387V4.9092C9.75 4.73741 9.67098 4.57266 9.53033 4.45119C9.38968 4.32972 9.19891 4.26147 9 4.26147C8.80109 4.26147 8.61032 4.32972 8.46967 4.45119C8.32902 4.57266 8.25 4.73741 8.25 4.9092V10.7387C8.25 10.9105 8.32902 11.0753 8.46967 11.1968C8.61032 11.3182 8.80109 11.3865 9 11.3865Z"
        fill="#FF7C7C" />
</svg>
