<svg width="20" height="20" viewBox="0 0 20 20" fill="none" xmlns="http://www.w3.org/2000/svg">
<g opacity="0.8">
<path fill-rule="evenodd" clip-rule="evenodd" d="M10.0001 12.5001C8.61937 12.5001 7.50008 11.3808 7.50008 10.0001C7.50008 8.61937 8.61937 7.50008 10.0001 7.50008C11.3808 7.50008 12.5001 8.61937 12.5001 10.0001C12.5001 11.3808 11.3808 12.5001 10.0001 12.5001ZM16.6667 3.33341C17.5834 3.33341 18.3334 4.08341 18.3334 5.00008V15.0001C18.3334 15.9167 17.5834 16.6667 16.6667 16.6667H3.33341C2.41675 16.6667 1.66675 15.9167 1.66675 15.0001V5.00008C1.66675 4.08341 2.41675 3.33341 3.33341 3.33341H5.97508L7.00008 2.20841C7.31675 1.86675 7.76675 1.66675 8.23342 1.66675H11.7667C12.2334 1.66675 12.6834 1.86675 12.9917 2.20841L14.0251 3.33341H16.6667ZM10.0001 14.1667C12.3001 14.1667 14.1667 12.3001 14.1667 10.0001C14.1667 7.70008 12.3001 5.83341 10.0001 5.83341C7.70008 5.83341 5.83341 7.70008 5.83341 10.0001C5.83341 12.3001 7.70008 14.1667 10.0001 14.1667Z" fill="#828489"/>
</g>
</svg>
