<svg width="14" height="14" viewBox="0 0 14 14" fill="none" xmlns="http://www.w3.org/2000/svg">
<path d="M6.99967 0.333496C3.31301 0.333496 0.333008 3.3135 0.333008 7.00016C0.333008 10.6868 3.31301 13.6668 6.99967 13.6668C10.6863 13.6668 13.6663 10.6868 13.6663 7.00016C13.6663 3.3135 10.6863 0.333496 6.99967 0.333496ZM9.86634 9.86683C9.60634 10.1268 9.18634 10.1268 8.92634 9.86683L6.99967 7.94016L5.07301 9.86683C4.81301 10.1268 4.39301 10.1268 4.13301 9.86683C3.87301 9.60683 3.87301 9.18683 4.13301 8.92683L6.05967 7.00016L4.13301 5.0735C3.87301 4.8135 3.87301 4.3935 4.13301 4.1335C4.39301 3.8735 4.81301 3.8735 5.07301 4.1335L6.99967 6.06016L8.92634 4.1335C9.18634 3.8735 9.60634 3.8735 9.86634 4.1335C10.1263 4.3935 10.1263 4.8135 9.86634 5.0735L7.93967 7.00016L9.86634 8.92683C10.1197 9.18016 10.1197 9.60683 9.86634 9.86683Z" fill="#FF5F5F"/>
</svg>
