<svg width="17" height="17" viewBox="0 0 17 17" fill="none" xmlns="http://www.w3.org/2000/svg">
<path d="M13.5328 2.83382H10.7462C10.4662 2.06049 9.73283 1.50049 8.86617 1.50049C7.9995 1.50049 7.26617 2.06049 6.98617 2.83382H4.1995C3.46617 2.83382 2.86617 3.43382 2.86617 4.16715V13.5005C2.86617 14.2338 3.46617 14.8338 4.1995 14.8338H13.5328C14.2662 14.8338 14.8662 14.2338 14.8662 13.5005V4.16715C14.8662 3.43382 14.2662 2.83382 13.5328 2.83382ZM8.86617 2.83382C9.23283 2.83382 9.53283 3.13382 9.53283 3.50049C9.53283 3.86715 9.23283 4.16715 8.86617 4.16715C8.4995 4.16715 8.1995 3.86715 8.1995 3.50049C8.1995 3.13382 8.4995 2.83382 8.86617 2.83382ZM7.0595 11.6938L5.33283 9.96715C5.07283 9.70715 5.07283 9.28715 5.33283 9.02715C5.59283 8.76715 6.01283 8.76715 6.27283 9.02715L7.53283 10.2805L11.4528 6.36049C11.7128 6.10049 12.1328 6.10049 12.3928 6.36049C12.6528 6.62049 12.6528 7.04049 12.3928 7.30049L7.9995 11.6938C7.74617 11.9538 7.3195 11.9538 7.0595 11.6938Z" fill="#839099"/>
</svg>
