<svg width="41" height="42" viewBox="0 0 41 42" fill="none" xmlns="http://www.w3.org/2000/svg">
<ellipse cx="20.6611" cy="20.8274" rx="19.7677" ry="20.5584" fill="#5EC69D" fill-opacity="0.1"/>
<g clip-path="url(#clip0_686_98070)">
<path d="M22.6853 11.7817H19.3959C18.9436 11.7817 18.5736 12.1518 18.5736 12.6041C18.5736 13.0564 18.9436 13.4264 19.3959 13.4264H22.6853C23.1375 13.4264 23.5076 13.0564 23.5076 12.6041C23.5076 12.1518 23.1375 11.7817 22.6853 11.7817ZM21.0406 22.4721C21.4929 22.4721 21.8629 22.102 21.8629 21.6498V18.3604C21.8629 17.9081 21.4929 17.5381 21.0406 17.5381C20.5883 17.5381 20.2183 17.9081 20.2183 18.3604V21.6498C20.2183 22.102 20.5883 22.4721 21.0406 22.4721ZM26.8216 17.0365L27.4384 16.4197C27.7508 16.1072 27.7591 15.5891 27.4384 15.2684L27.4301 15.2602C27.1094 14.9395 26.5996 14.9477 26.2789 15.2602L25.6621 15.877C24.3875 14.8573 22.7839 14.2487 21.0406 14.2487C17.0934 14.2487 13.7383 17.5052 13.6396 21.4524C13.5327 25.6299 16.8796 29.0508 21.0406 29.0508C25.1358 29.0508 28.4416 25.7368 28.4416 21.6498C28.4416 19.9064 27.8331 18.3029 26.8216 17.0365ZM21.0406 27.4061C17.8582 27.4061 15.2842 24.8322 15.2842 21.6498C15.2842 18.4673 17.8582 15.8934 21.0406 15.8934C24.223 15.8934 26.7969 18.4673 26.7969 21.6498C26.7969 24.8322 24.223 27.4061 21.0406 27.4061Z" fill="#5EC69D"/>
</g>
<defs>
<clipPath id="clip0_686_98070">
<rect width="19.736" height="19.736" fill="white" transform="translate(11.1726 10.9594)"/>
</clipPath>
</defs>
</svg>
