<svg width="13" height="16" viewBox="0 0 13 16" fill="none" xmlns="http://www.w3.org/2000/svg">
<path d="M9.00001 0.666626H1.66668C0.933344 0.666626 0.333344 1.26663 0.333344 1.99996V10.6666C0.333344 11.0333 0.633344 11.3333 1.00001 11.3333C1.36668 11.3333 1.66668 11.0333 1.66668 10.6666V2.66663C1.66668 2.29996 1.96668 1.99996 2.33334 1.99996H9.00001C9.36668 1.99996 9.66668 1.69996 9.66668 1.33329C9.66668 0.966626 9.36668 0.666626 9.00001 0.666626ZM11.6667 3.33329H4.33334C3.60001 3.33329 3.00001 3.93329 3.00001 4.66663V14C3.00001 14.7333 3.60001 15.3333 4.33334 15.3333H11.6667C12.4 15.3333 13 14.7333 13 14V4.66663C13 3.93329 12.4 3.33329 11.6667 3.33329ZM11 14H5.00001C4.63334 14 4.33334 13.7 4.33334 13.3333V5.33329C4.33334 4.96663 4.63334 4.66663 5.00001 4.66663H11C11.3667 4.66663 11.6667 4.96663 11.6667 5.33329V13.3333C11.6667 13.7 11.3667 14 11 14Z" fill="#828489"/>
</svg>
