<svg width="12" height="13" viewBox="0 0 12 13" fill="none" xmlns="http://www.w3.org/2000/svg">
<path d="M0.666667 8.63232C0.3 8.63232 0 8.93232 0 9.29899V11.299C0 12.0323 0.6 12.6323 1.33333 12.6323H3.33333C3.7 12.6323 4 12.3323 4 11.9657C4 11.599 3.7 11.299 3.33333 11.299H2C1.63333 11.299 1.33333 10.999 1.33333 10.6323V9.29899C1.33333 8.93232 1.03333 8.63232 0.666667 8.63232ZM1.33333 2.63232C1.33333 2.26566 1.63333 1.96566 2 1.96566H3.33333C3.7 1.96566 4 1.66566 4 1.29899C4 0.932324 3.7 0.632324 3.33333 0.632324H1.33333C0.6 0.632324 0 1.23232 0 1.96566V3.96566C0 4.33232 0.3 4.63232 0.666667 4.63232C1.03333 4.63232 1.33333 4.33232 1.33333 3.96566V2.63232ZM10.6667 0.632324H8.66667C8.3 0.632324 8 0.932324 8 1.29899C8 1.66566 8.3 1.96566 8.66667 1.96566H10C10.3667 1.96566 10.6667 2.26566 10.6667 2.63232V3.96566C10.6667 4.33232 10.9667 4.63232 11.3333 4.63232C11.7 4.63232 12 4.33232 12 3.96566V1.96566C12 1.23232 11.4 0.632324 10.6667 0.632324ZM10.6667 10.6323C10.6667 10.999 10.3667 11.299 10 11.299H8.66667C8.3 11.299 8 11.599 8 11.9657C8 12.3323 8.3 12.6323 8.66667 12.6323H10.6667C11.4 12.6323 12 12.0323 12 11.299V9.29899C12 8.93232 11.7 8.63232 11.3333 8.63232C10.9667 8.63232 10.6667 8.93232 10.6667 9.29899V10.6323ZM6 3.96566C4.52667 3.96566 3.33333 5.15899 3.33333 6.63232C3.33333 8.10566 4.52667 9.29899 6 9.29899C7.47333 9.29899 8.66667 8.10566 8.66667 6.63232C8.66667 5.15899 7.47333 3.96566 6 3.96566ZM6 7.96566C5.26667 7.96566 4.66667 7.36566 4.66667 6.63232C4.66667 5.89899 5.26667 5.29899 6 5.29899C6.73333 5.29899 7.33333 5.89899 7.33333 6.63232C7.33333 7.36566 6.73333 7.96566 6 7.96566Z" fill="#828489"/>
</svg>
