<svg width="13" height="14" viewBox="0 0 13 14" fill="none" xmlns="http://www.w3.org/2000/svg">
    <path
        d="M11 9.43017C11 6.92767 8.13028 6.23117 5.93043 5.29317C4.59457 4.66317 4.763 3.15933 6.67743 3.05783C7.73943 2.9995 8.831 3.28533 9.81843 3.60033L10.2839 1.67883C9.11771 1.35683 8.07371 1.20983 7.14286 1.18767V0H5.85714V1.24483C3.35643 1.55633 2.02057 2.97967 2.02057 4.56983C2.02057 7.41417 5.681 7.84817 6.878 8.35333C8.51085 9.016 8.20871 10.395 6.73143 10.6995C5.44957 10.9632 3.81414 10.5035 2.585 10.0695L2 11.9875C3.14943 12.5265 4.52643 12.8135 5.85714 12.8357V14H7.14286V12.7715C9.27328 12.5008 11.0026 11.4345 11 9.43017Z"
        fill="white" />
</svg>
