<svg width="13" height="16" viewBox="0 0 13 16" fill="none" xmlns="http://www.w3.org/2000/svg">
    <path
        d="M2.6 9.25H6.5V5.5C8.65085 5.5 10.4 7.18188 10.4 9.25C10.4 11.3181 8.65085 13 6.5 13C4.34915 13 2.6 11.3181 2.6 9.25ZM13 9.25C13 12.7019 10.0893 15.5 6.5 15.5C2.9107 15.5 0 12.7019 0 9.25C0 5.79813 2.9107 3 6.5 3C10.0893 3 13 5.79813 13 9.25ZM11.7 9.25C11.7 6.49312 9.36715 4.25 6.5 4.25C3.63285 4.25 1.3 6.49312 1.3 9.25C1.3 12.0069 3.63285 14.25 6.5 14.25C9.36715 14.25 11.7 12.0069 11.7 9.25ZM7.8 1.86312V0.5H5.2V1.86312C6.1152 1.71438 6.8653 1.71125 7.8 1.86312ZM12.1413 4.08438L13 3.25875L12.0809 2.375L11.1664 3.25437C11.5148 3.50563 11.8411 3.78188 12.1413 4.08438Z"
        fill="#686868" />
</svg>
