<svg width="400" height="272" viewBox="0 0 400 272" fill="none" xmlns="http://www.w3.org/2000/svg">
<path d="M342.582 271.625H57.6914C56.8135 271.624 55.972 271.274 55.3512 270.653C54.7305 270.031 54.3813 269.188 54.3801 268.309V3.31654C54.3813 2.4373 54.7305 1.59438 55.3513 0.972662C55.972 0.35094 56.8135 0.0011494 57.6914 0H342.582C343.46 0.0011494 344.302 0.35094 344.923 0.972662C345.543 1.59438 345.893 2.4373 345.894 3.31654V268.308C345.893 269.188 345.544 270.031 344.923 270.652C344.302 271.274 343.46 271.624 342.582 271.625V271.625Z" fill="white"/>
<path d="M342.582 271.625H57.6914C56.8135 271.624 55.972 271.274 55.3512 270.653C54.7305 270.031 54.3813 269.188 54.3801 268.309V3.31654C54.3813 2.4373 54.7305 1.59438 55.3513 0.972662C55.972 0.35094 56.8135 0.0011494 57.6914 0H342.582C343.46 0.0011494 344.302 0.35094 344.923 0.972662C345.543 1.59438 345.893 2.4373 345.894 3.31654V268.308C345.893 269.188 345.544 270.031 344.923 270.652C344.302 271.274 343.46 271.624 342.582 271.625V271.625ZM57.6914 1.324C57.1653 1.32515 56.6611 1.53499 56.289 1.9076C55.917 2.28021 55.7075 2.78525 55.7064 3.31219V268.308C55.7075 268.835 55.917 269.34 56.289 269.713C56.6611 270.085 57.1653 270.295 57.6914 270.296H342.582C343.109 270.295 343.613 270.086 343.985 269.713C344.357 269.34 344.566 268.835 344.567 268.308V3.31654C344.566 2.7896 344.357 2.28456 343.985 1.91195C343.613 1.53934 343.108 1.3295 342.582 1.32836L57.6914 1.324Z" fill="#E2EEF8"/>
<path d="M192.307 68.8591C191.712 68.8602 191.141 69.0978 190.72 69.52C190.3 69.9421 190.063 70.5142 190.063 71.1107C190.063 71.7072 190.3 72.2794 190.72 72.7015C191.141 73.1237 191.712 73.3613 192.307 73.3623H315.661C316.257 73.3613 316.827 73.1237 317.248 72.7015C317.669 72.2794 317.905 71.7072 317.905 71.1107C317.905 70.5142 317.669 69.9421 317.248 69.52C316.827 69.0978 316.257 68.8602 315.661 68.8591H192.307Z" fill="#CBD3E4" fill-opacity="0.74"/>
<path d="M192.308 82.3701C191.712 82.3716 191.142 82.6094 190.721 83.0315C190.301 83.4536 190.065 84.0255 190.065 84.6217C190.065 85.218 190.301 85.7898 190.721 86.2119C191.142 86.634 191.712 86.8719 192.308 86.8733H255.282C255.877 86.8719 256.448 86.634 256.868 86.2119C257.289 85.7898 257.525 85.218 257.525 84.6217C257.525 84.0255 257.289 83.4536 256.868 83.0315C256.448 82.6094 255.877 82.3716 255.282 82.3701H192.308Z" fill="#CBD3E4" fill-opacity="0.74"/>
<path d="M84.4923 155.027C83.897 155.029 83.3267 155.267 82.9062 155.689C82.4858 156.111 82.2498 156.683 82.2498 157.279C82.2498 157.875 82.4858 158.447 82.9062 158.869C83.3267 159.291 83.897 159.529 84.4923 159.53H315.781C316.376 159.529 316.947 159.291 317.367 158.869C317.788 158.447 318.024 157.875 318.024 157.279C318.024 156.683 317.788 156.111 317.367 155.689C316.947 155.267 316.376 155.029 315.781 155.027H84.4923Z" fill="#CBD3E4" fill-opacity="0.74"/>
<path d="M84.4923 168.538C83.897 168.54 83.3267 168.778 82.9062 169.2C82.4858 169.622 82.2498 170.194 82.2498 170.79C82.2498 171.386 82.4858 171.958 82.9062 172.38C83.3267 172.802 83.897 173.04 84.4923 173.041H255.402C255.997 173.04 256.568 172.802 256.988 172.38C257.409 171.958 257.645 171.386 257.645 170.79C257.645 170.194 257.409 169.622 256.988 169.2C256.568 168.778 255.997 168.54 255.402 168.538H84.4923Z" fill="#CBD3E4" fill-opacity="0.74"/>
<path d="M84.4923 181.743C83.897 181.745 83.3267 181.983 82.9062 182.405C82.4858 182.827 82.2498 183.399 82.2498 183.995C82.2498 184.591 82.4858 185.163 82.9062 185.585C83.3267 186.007 83.897 186.245 84.4923 186.247H315.781C316.376 186.245 316.947 186.007 317.367 185.585C317.788 185.163 318.024 184.591 318.024 183.995C318.024 183.399 317.788 182.827 317.367 182.405C316.947 181.983 316.376 181.745 315.781 181.743H84.4923Z" fill="#CBD3E4" fill-opacity="0.74"/>
<path d="M84.4923 195.254C83.897 195.256 83.3267 195.494 82.9062 195.916C82.4858 196.338 82.2498 196.91 82.2498 197.506C82.2498 198.102 82.4858 198.674 82.9062 199.096C83.3267 199.518 83.897 199.756 84.4923 199.758H255.402C255.997 199.756 256.568 199.518 256.988 199.096C257.409 198.674 257.645 198.102 257.645 197.506C257.645 196.91 257.409 196.338 256.988 195.916C256.568 195.494 255.997 195.256 255.402 195.254H84.4923Z" fill="#CBD3E4" fill-opacity="0.74"/>
<path d="M84.4923 208.811C83.897 208.813 83.3267 209.051 82.9062 209.473C82.4858 209.895 82.2498 210.467 82.2498 211.063C82.2498 211.659 82.4858 212.231 82.9062 212.653C83.3267 213.075 83.897 213.313 84.4923 213.315H315.781C316.376 213.313 316.947 213.075 317.367 212.653C317.788 212.231 318.024 211.659 318.024 211.063C318.024 210.467 317.788 209.895 317.367 209.473C316.947 209.051 316.376 208.813 315.781 208.811H84.4923Z" fill="#CBD3E4" fill-opacity="0.74"/>
<path d="M84.4923 222.322C83.897 222.324 83.3267 222.562 82.9062 222.984C82.4858 223.406 82.2498 223.978 82.2498 224.574C82.2498 225.17 82.4858 225.742 82.9062 226.164C83.3267 226.586 83.897 226.824 84.4923 226.825H255.402C255.997 226.824 256.568 226.586 256.988 226.164C257.409 225.742 257.645 225.17 257.645 224.574C257.645 223.978 257.409 223.406 256.988 222.984C256.568 222.562 255.997 222.324 255.402 222.322H84.4923Z" fill="#CBD3E4" fill-opacity="0.74"/>
<path d="M121.126 110.216C114.738 110.216 108.494 108.319 103.182 104.764C97.8709 101.209 93.7311 96.1571 91.2865 90.246C88.8419 84.3349 88.2023 77.8305 89.4485 71.5552C90.6946 65.28 93.7707 59.5159 98.2877 54.9917C102.805 50.4675 108.56 47.3865 114.825 46.1382C121.09 44.89 127.584 45.5306 133.486 47.979C139.387 50.4275 144.432 54.5738 147.981 59.8937C151.53 65.2135 153.424 71.468 153.424 77.8661C153.414 86.4427 150.008 94.6652 143.953 100.73C137.898 106.794 129.689 110.206 121.126 110.216Z" fill="#FF5F5F"/>
<path d="M130.212 67.803C129.611 67.2018 128.64 67.2018 128.039 67.803L120.5 75.3264L112.961 67.7876C112.36 67.1864 111.389 67.1864 110.787 67.7876C110.186 68.3889 110.186 69.3601 110.787 69.9614L118.326 77.5001L110.787 85.0389C110.186 85.6401 110.186 86.6114 110.787 87.2126C111.389 87.8139 112.36 87.8139 112.961 87.2126L120.5 79.6739L128.039 87.2126C128.64 87.8139 129.611 87.8139 130.212 87.2126C130.814 86.6114 130.814 85.6401 130.212 85.0389L122.674 77.5001L130.212 69.9614C130.798 69.3755 130.798 68.3889 130.212 67.803Z" fill="white"/>
</svg>
