<svg width="35" height="35" viewBox="0 0 35 35" fill="none" xmlns="http://www.w3.org/2000/svg">
    <path d="M26.7105 8.28955H8.28947V26.7106H26.7105V8.28955Z" fill="white" />
    <path d="M26.7105 34.9999L35 26.7104H26.7105V34.9999Z" fill="#EA4335" />
    <path d="M35 8.28955H26.7105V26.7106H35V8.28955Z" fill="#FBBC04" />
    <path d="M26.7105 26.7104H8.28947V34.9999H26.7105V26.7104Z" fill="#34A853" />
    <path d="M0 26.7104V32.2368C0 33.7634 1.23651 34.9999 2.76316 34.9999H8.28947V26.7104H0Z" fill="#188038" />
    <path d="M35 8.28947V2.76316C35 1.23651 33.7635 0 32.2368 0H26.7105V8.28947H35Z" fill="#1967D2" />
    <path d="M26.7105 0H2.76316C1.23651 0 0 1.23651 0 2.76316V26.7105H8.28947V8.28947H26.7105V0Z" fill="#4285F4" />
    <path
        d="M12.0681 22.5795C11.3796 22.1144 10.903 21.4351 10.6428 20.5371L12.2408 19.8785C12.3858 20.4311 12.6391 20.8594 13.0006 21.1634C13.3599 21.4673 13.7974 21.617 14.3085 21.617C14.8312 21.617 15.2803 21.4581 15.6556 21.1403C16.0309 20.8226 16.2197 20.4173 16.2197 19.9269C16.2197 19.4249 16.0217 19.015 15.6256 18.6973C15.2296 18.3795 14.7322 18.2206 14.1381 18.2206H13.2148V16.6387H14.0437C14.5549 16.6387 14.9855 16.5005 15.3355 16.2242C15.6855 15.9479 15.8605 15.5703 15.8605 15.089C15.8605 14.6607 15.7039 14.32 15.3908 14.0644C15.0776 13.8088 14.6816 13.6798 14.2003 13.6798C13.7306 13.6798 13.3576 13.8042 13.0812 14.0551C12.8051 14.3068 12.5975 14.6245 12.478 14.9785L10.896 14.32C11.1056 13.7259 11.4901 13.2009 12.0543 12.7473C12.6184 12.2936 13.3391 12.0657 14.2141 12.0657C14.8612 12.0657 15.4437 12.19 15.9595 12.441C16.4753 12.692 16.8806 13.0397 17.173 13.4818C17.4654 13.9262 17.6105 14.4236 17.6105 14.9762C17.6105 15.5403 17.4747 16.017 17.2029 16.4084C16.9312 16.7999 16.5974 17.0992 16.2013 17.3088V17.4032C16.7127 17.614 17.1569 17.9603 17.4862 18.4048C17.8201 18.8538 17.9881 19.3903 17.9881 20.0167C17.9881 20.643 17.8293 21.2025 17.5115 21.693C17.1937 22.1834 16.7539 22.5703 16.1967 22.8512C15.6372 23.1321 15.0085 23.2749 14.3108 23.2749C13.5026 23.2772 12.7566 23.0446 12.0681 22.5795ZM21.8842 14.6492L20.1296 15.918L19.2523 14.5871L22.4 12.3167H23.6066V23.0262H21.8842V14.6492Z"
        fill="#4285F4" />
</svg>