<svg width="13" height="13" viewBox="0 0 13 13" fill="none" xmlns="http://www.w3.org/2000/svg">
<path d="M9.15 3.6C8.41875 2.86875 7.4625 2.5 6.5 2.5V6.25L3.85 8.9C5.3125 10.3625 7.6875 10.3625 9.15625 8.9C10.6188 7.4375 10.6188 5.0625 9.15 3.6ZM6.5 0C3.05 0 0.25 2.8 0.25 6.25C0.25 9.7 3.05 12.5 6.5 12.5C9.95 12.5 12.75 9.7 12.75 6.25C12.75 2.8 9.95 0 6.5 0ZM6.5 11.25C3.7375 11.25 1.5 9.0125 1.5 6.25C1.5 3.4875 3.7375 1.25 6.5 1.25C9.2625 1.25 11.5 3.4875 11.5 6.25C11.5 9.0125 9.2625 11.25 6.5 11.25Z" fill="#828489"/>
</svg>
