<svg width="17" height="14" viewBox="0 0 17 14" fill="none" xmlns="http://www.w3.org/2000/svg">
    <path
        d="M8.41854 9.0916L10.6172 6.923L10.625 7C10.625 8.1578 9.67158 9.1 8.5 9.1L8.41854 9.0916ZM14.1192 3.4692L11.8001 5.7568C11.9503 6.1446 12.0417 6.5611 12.0417 7C12.0417 8.9299 10.4529 10.5 8.5 10.5C8.05304 10.5 7.62946 10.409 7.23562 10.2592L5.55192 11.9196C6.45575 12.3312 7.44387 12.6 8.51062 12.6C13.9882 12.6 17 6.6857 17 6.6857C17 6.6857 15.9977 4.9511 14.1192 3.4692ZM15.1328 0.994L1.94437 14L0.965458 13.0046L3.41275 10.5917C1.27217 8.8767 0 6.6857 0 6.6857C0 6.6857 3.14925 1.4 8.51062 1.4C9.80333 1.4 10.9586 1.6982 11.9715 2.1525L14.1539 0L15.1328 0.994ZM5.39254 8.6394L6.4685 7.5789C6.41396 7.3941 6.375 7.2023 6.375 7C6.375 5.8422 7.32842 4.9 8.5 4.9C8.70612 4.9 8.90162 4.9385 9.09004 4.9938L10.1653 3.9333C9.66663 3.6659 9.10563 3.5 8.5 3.5C6.54712 3.5 4.95833 5.0701 4.95833 7C4.95833 7.5964 5.12479 8.1487 5.39254 8.6394Z"
        fill="inherit" />
</svg>