<svg width="44" height="45" viewBox="0 0 44 45" fill="none" xmlns="http://www.w3.org/2000/svg">
<circle cx="22" cy="22.3135" r="21.5" fill="white" stroke="#E2EEF8"/>
<g clip-path="url(#clip0_505:78956)">
<path d="M22 15.7555C24.136 15.7555 24.3893 15.7635 25.2333 15.8021C27.4013 15.9008 28.414 16.9295 28.5127 19.0815C28.5513 19.9248 28.5587 20.1781 28.5587 22.3141C28.5587 24.4508 28.5507 24.7035 28.5127 25.5468C28.4133 27.6968 27.4033 28.7275 25.2333 28.8261C24.3893 28.8648 24.1373 28.8728 22 28.8728C19.864 28.8728 19.6107 28.8648 18.7673 28.8261C16.594 28.7268 15.5867 27.6935 15.488 25.5461C15.4493 24.7028 15.4413 24.4501 15.4413 22.3135C15.4413 20.1775 15.45 19.9248 15.488 19.0808C15.5873 16.9295 16.5973 15.9001 18.7673 15.8015C19.6113 15.7635 19.864 15.7555 22 15.7555ZM22 14.3135C19.8273 14.3135 19.5553 14.3228 18.702 14.3615C15.7967 14.4948 14.182 16.1068 14.0487 19.0148C14.0093 19.8688 14 20.1408 14 22.3135C14 24.4861 14.0093 24.7588 14.048 25.6121C14.1813 28.5175 15.7933 30.1321 18.7013 30.2655C19.5553 30.3041 19.8273 30.3135 22 30.3135C24.1727 30.3135 24.4453 30.3041 25.2987 30.2655C28.2013 30.1321 29.82 28.5201 29.9513 25.6121C29.9907 24.7588 30 24.4861 30 22.3135C30 20.1408 29.9907 19.8688 29.952 19.0155C29.8213 16.1128 28.2073 14.4955 25.2993 14.3621C24.4453 14.3228 24.1727 14.3135 22 14.3135V14.3135ZM22 18.2055C19.7313 18.2055 17.892 20.0448 17.892 22.3135C17.892 24.5821 19.7313 26.4221 22 26.4221C24.2687 26.4221 26.108 24.5828 26.108 22.3135C26.108 20.0448 24.2687 18.2055 22 18.2055ZM22 24.9801C20.5273 24.9801 19.3333 23.7868 19.3333 22.3135C19.3333 20.8408 20.5273 19.6468 22 19.6468C23.4727 19.6468 24.6667 20.8408 24.6667 22.3135C24.6667 23.7868 23.4727 24.9801 22 24.9801ZM26.2707 17.0835C25.74 17.0835 25.31 17.5135 25.31 18.0435C25.31 18.5735 25.74 19.0035 26.2707 19.0035C26.8007 19.0035 27.23 18.5735 27.23 18.0435C27.23 17.5135 26.8007 17.0835 26.2707 17.0835Z" fill="#839099"/>
</g>
<defs>
<clipPath id="clip0_505:78956">
<rect width="16" height="16" fill="white" transform="translate(14 14.3135)"/>
</clipPath>
</defs>
</svg>
