<svg width="40" height="42" viewBox="0 0 40 42" fill="none" xmlns="http://www.w3.org/2000/svg">
<ellipse cx="20.0609" cy="20.8274" rx="19.7677" ry="20.5584" fill="#5EC69D" fill-opacity="0.1"/>
<g clip-path="url(#clip0_686_98079)">
<path d="M14.5259 21.7978V24.1086C14.5259 24.7089 14.8422 25.268 15.3482 25.5559L19.3018 27.8008C19.7762 28.0722 20.3455 28.0722 20.8199 27.8008L24.7735 25.5559C25.2795 25.268 25.5958 24.7089 25.5958 24.1086V21.7978L20.8199 24.5115C20.3455 24.7829 19.7762 24.7829 19.3018 24.5115L14.5259 21.7978ZM19.3018 13.854L12.6361 17.6368C12.0905 17.9493 12.0905 18.7716 12.6361 19.0841L19.3018 22.8668C19.7762 23.1382 20.3455 23.1382 20.8199 22.8668L27.1772 19.2568V24.1168C27.1772 24.5691 27.533 24.9391 27.9679 24.9391C28.4028 24.9391 28.7586 24.5691 28.7586 24.1168V18.8456C28.7586 18.5413 28.6005 18.27 28.3475 18.122L20.8199 13.854C20.3455 13.5909 19.7762 13.5909 19.3018 13.854Z" fill="#5EC69D"/>
</g>
<defs>
<clipPath id="clip0_686_98079">
<rect width="18.977" height="19.736" fill="white" transform="translate(10.5724 10.9594)"/>
</clipPath>
</defs>
</svg>
