<svg width="24" height="25" viewBox="0 0 24 25" fill="none" xmlns="http://www.w3.org/2000/svg">
<path d="M22.2234 0.148071H1.77187C0.792187 0.148071 0 0.921509 0 1.87776V22.4137C0 23.3699 0.792187 24.1481 1.77187 24.1481H22.2234C23.2031 24.1481 24 23.3699 24 22.4184V1.87776C24 0.921509 23.2031 0.148071 22.2234 0.148071ZM7.12031 20.5996H3.55781V9.14338H7.12031V20.5996ZM5.33906 7.58245C4.19531 7.58245 3.27188 6.65901 3.27188 5.51995C3.27188 4.38088 4.19531 3.45745 5.33906 3.45745C6.47813 3.45745 7.40156 4.38088 7.40156 5.51995C7.40156 6.65432 6.47813 7.58245 5.33906 7.58245ZM20.4516 20.5996H16.8937V15.0309C16.8937 13.7043 16.8703 11.9934 15.0422 11.9934C13.1906 11.9934 12.9094 13.4418 12.9094 14.9371V20.5996H9.35625V9.14338H12.7687V10.709H12.8156C13.2891 9.80901 14.4516 8.85745 16.1813 8.85745C19.7859 8.85745 20.4516 11.2293 20.4516 14.3137V20.5996Z" fill="#98A2B3"/>
</svg>
