<svg width="12" height="12" viewBox="0 0 12 12" fill="none" xmlns="http://www.w3.org/2000/svg">
    <path
        d="M5.99014 0C7.97579 0 9.57352 1.44887 9.57352 3.2376V4.15761C10.688 4.48018 11.5 5.41568 11.5 6.53304V9.49518C11.5 10.8785 10.2632 12 8.73849 12H3.26216C1.73676 12 0.5 10.8785 0.5 9.49518V6.53304C0.5 5.41568 1.31267 4.48018 2.42648 4.15761V3.2376C2.43305 1.44887 4.03078 0 5.99014 0ZM5.99671 6.83057C5.68111 6.83057 5.42469 7.0631 5.42469 7.3493V8.67296C5.42469 8.96512 5.68111 9.19766 5.99671 9.19766C6.31889 9.19766 6.57531 8.96512 6.57531 8.67296V7.3493C6.57531 7.0631 6.31889 6.83057 5.99671 6.83057ZM6.00329 1.04343C4.66856 1.04343 3.58368 2.02127 3.57711 3.22568V4.02822H8.42289V3.2376C8.42289 2.02723 7.33802 1.04343 6.00329 1.04343Z"
        fill="#686868" />
</svg>
