<svg width="105" height="39" viewBox="0 0 105 39" fill="none" xmlns="http://www.w3.org/2000/svg">
    <path
        d="M51.3425 6.3042H52.5565C52.7891 6.3042 53.0121 6.39702 53.1765 6.56225C53.341 6.72748 53.4334 6.95157 53.4334 7.18524V16.5615C53.4539 16.5615 53.4741 16.5561 53.4918 16.5457C53.5096 16.5353 53.5243 16.5205 53.5345 16.5026C54.0378 15.6436 54.7619 14.9366 55.6308 14.4558C56.5536 13.9103 57.6027 13.6175 58.6734 13.6067C60.8701 13.6067 64.3862 14.9655 64.3862 20.638V29.5372C64.3862 29.7709 64.2938 29.995 64.1294 30.1602C63.9649 30.3254 63.7419 30.4182 63.5094 30.4182H62.2953C62.1802 30.4182 62.0661 30.3955 61.9598 30.3512C61.8534 30.3069 61.7567 30.242 61.6753 30.1602C61.5939 30.0784 61.5293 29.9812 61.4852 29.8744C61.4412 29.7675 61.4185 29.6529 61.4185 29.5372V20.9776C61.4185 18.3283 60.4385 16.0864 57.6327 16.0864C55.7057 16.0864 54.1847 17.4419 53.6438 19.0752C53.4745 19.4818 53.4415 19.9244 53.4415 20.4984V29.5338C53.4415 29.7675 53.3491 29.9916 53.1846 30.1568C53.0202 30.322 52.7972 30.4149 52.5646 30.4149H51.3506C51.118 30.4149 50.895 30.322 50.7306 30.1568C50.5661 29.9916 50.4738 29.7675 50.4738 29.5338V7.18727C50.4732 6.95466 50.5642 6.73127 50.727 6.56583C50.8897 6.4004 51.111 6.30635 51.3425 6.3042Z"
        fill="#5EC69D" />
    <path
        d="M68.0527 29.5373V14.8639C68.0527 14.6303 68.1451 14.4062 68.3096 14.241C68.474 14.0757 68.697 13.9829 68.9296 13.9829H70.1436C70.3762 13.9829 70.5992 14.0757 70.7636 14.241C70.9281 14.4062 71.0204 14.6303 71.0204 14.8639V29.5373C71.0204 29.771 70.9281 29.9951 70.7636 30.1603C70.5992 30.3255 70.3762 30.4183 70.1436 30.4183H68.9296C68.697 30.4183 68.474 30.3255 68.3096 30.1603C68.1451 29.9951 68.0527 29.771 68.0527 29.5373Z"
        fill="#5EC69D" />
    <path
        d="M71.3651 9.36096C71.3988 10.3775 70.6555 11.1956 69.4725 11.1956C68.4244 11.1956 67.6804 10.3823 67.6804 9.36096C67.6804 8.30846 68.4581 7.49316 69.54 7.49316C70.6555 7.49316 71.3651 8.30846 71.3651 9.36096Z"
        fill="#5EC69D" />
    <path
        d="M74.2201 28.9884C74.22 28.7937 74.284 28.6045 74.4022 28.4503L81.6232 19.0089C82.3192 18.1435 82.9829 17.3756 83.7093 16.5136C83.7374 16.4799 83.7529 16.4375 83.7532 16.3936H75.7754C75.5429 16.3936 75.3199 16.3008 75.1554 16.1355C74.991 15.9703 74.8986 15.7462 74.8986 15.5126V14.8674C74.8986 14.6337 74.991 14.4096 75.1554 14.2444C75.3199 14.0792 75.5429 13.9863 75.7754 13.9863H86.4747C86.5914 13.9863 86.7069 14.0097 86.8145 14.0551C86.9221 14.1005 87.0196 14.1671 87.1012 14.2508C87.1829 14.3346 87.2471 14.4339 87.2901 14.5429C87.333 14.6519 87.3539 14.7684 87.3515 14.8857L87.3394 15.5634C87.3358 15.7526 87.272 15.9358 87.1573 16.0859L80.0348 25.3931C79.3603 26.31 78.6858 27.1253 77.9385 27.9745V28.0423H86.6271C86.8597 28.0423 87.0827 28.1351 87.2471 28.3003C87.4116 28.4656 87.504 28.6897 87.504 28.9233V29.5333C87.504 29.7669 87.4116 29.991 87.2471 30.1563C87.0827 30.3215 86.8597 30.4143 86.6271 30.4143H75.1003C74.8677 30.4143 74.6447 30.3215 74.4803 30.1563C74.3158 29.991 74.2235 29.7669 74.2235 29.5333L74.2201 28.9884Z"
        fill="#5EC69D" />
    <path
        d="M105 22.0649C105 28.1448 100.809 30.794 96.8536 30.794C92.425 30.794 89.0107 27.5334 89.0107 22.3367C89.0107 16.8336 92.5942 13.6069 97.124 13.6069C101.822 13.6069 105 17.0376 105 22.0649ZM92.023 22.2343C92.023 25.8351 94.0848 28.5521 96.9919 28.5521C99.8314 28.5521 101.961 25.869 101.961 22.1666C101.961 19.3811 100.575 15.8488 97.0593 15.8488C93.5432 15.8488 92.023 19.1094 92.023 22.2343Z"
        fill="#5EC69D" />
    <path
        d="M39.216 18.9505C39.216 17.3999 39.1944 16.0234 39.1337 14.7486C39.1277 14.6292 39.1459 14.5098 39.1872 14.3977C39.2286 14.2856 39.2922 14.1831 39.3742 14.0965C39.4563 14.0099 39.555 13.941 39.6644 13.8939C39.7738 13.8469 39.8915 13.8227 40.0105 13.8229H40.83C41.0582 13.8228 41.2774 13.912 41.4411 14.0717C41.6049 14.2314 41.7002 14.449 41.7068 14.6781L41.781 17.0502H41.9159C42.6578 14.8442 44.4493 13.4521 46.4423 13.4521H46.4525C46.6746 13.4538 46.8872 13.5437 47.0435 13.7023C47.1999 13.861 47.2873 14.0754 47.2868 14.2986V15.4257C47.2869 15.5382 47.2647 15.6496 47.2213 15.7534C47.178 15.8572 47.1145 15.9512 47.0345 16.03C46.9545 16.1088 46.8597 16.1707 46.7556 16.2122C46.6515 16.2537 46.5402 16.2738 46.4282 16.2715C46.3783 16.2715 46.3277 16.2715 46.2744 16.2715C44.1835 16.2715 42.6943 17.8668 42.2889 20.1067C42.2056 20.5659 42.1605 21.0313 42.154 21.4981V29.4091C42.154 29.5202 42.1322 29.6302 42.0899 29.7328C42.0476 29.8354 41.9856 29.9286 41.9075 30.0072C41.8293 30.0857 41.7365 30.148 41.6344 30.1905C41.5323 30.233 41.4228 30.2549 41.3123 30.2549H40.0577C39.9472 30.2549 39.8377 30.233 39.7356 30.1905C39.6335 30.148 39.5407 30.0857 39.4625 30.0072C39.3844 29.9286 39.3224 29.8354 39.2801 29.7328C39.2378 29.6302 39.216 29.5202 39.216 29.4091V18.9505Z"
        fill="#5EC69D" />
    <path
        d="M32.1178 11.5201C31.8815 10.6272 31.5745 9.75466 31.1999 8.91085C30.8202 8.05979 30.3653 7.24462 29.8408 6.47512C28.7769 4.91726 27.42 3.58354 25.8465 2.54907C24.2724 1.52641 22.5278 0.797049 20.6962 0.39594C18.8721 -0.00540181 16.9947 -0.102482 15.1392 0.108586C13.2854 0.315989 11.4748 0.810721 9.7717 1.57518C8.05418 2.34333 6.47093 3.3843 5.08273 4.65814C3.67038 5.95008 2.50466 7.49027 1.64289 9.20295C1.42503 9.63263 1.23348 10.0765 1.05879 10.5272C0.883873 10.9784 0.732141 11.4382 0.604192 11.905C0.536745 12.1375 0.482112 12.3733 0.42613 12.6092C0.370148 12.845 0.323609 13.0836 0.283815 13.3167C0.198831 13.7837 0.131383 14.2547 0.0855183 14.7291C-0.108586 16.6434 0.0283279 18.577 0.490205 20.4443C0.956012 22.3338 1.76004 24.1223 2.86302 25.7225C3.984 27.3548 5.42291 28.7416 7.09267 29.799C7.75096 30.2117 9.28338 30.9131 9.33666 30.9355C10.0895 31.2439 10.8771 31.4586 11.6818 31.5746C11.7823 31.5888 11.8842 31.6024 11.984 31.6146L12.0514 31.6241L12.1088 31.6281C12.7481 31.6997 13.3921 31.718 14.0344 31.683C14.8391 31.6414 15.6366 31.5094 16.4119 31.2893C16.8129 31.1763 17.2057 31.0359 17.5876 30.8691C17.9797 30.6998 18.3593 30.5026 18.7234 30.2788C19.094 30.0488 19.4467 29.7907 19.7783 29.5069C20.1114 29.2193 20.421 28.9054 20.7043 28.5682C21.2596 27.9017 21.7083 27.1524 22.0344 26.3473C22.1904 25.9614 22.3213 25.5656 22.4263 25.1627C22.4762 24.9648 22.5234 24.7669 22.5612 24.569C22.5834 24.4687 22.5969 24.3765 22.6138 24.2809C22.6306 24.1854 22.6448 24.0912 22.659 23.9963C22.7728 23.2313 22.818 22.4577 22.7939 21.6846C22.7765 21.1821 22.728 20.6812 22.6488 20.1848C22.6421 20.0989 22.6297 20.0135 22.6117 19.9293C22.4064 19.0225 22.2559 18.1041 22.1612 17.1791C22.0684 16.2595 22.0497 15.3339 22.1052 14.4113C22.1605 13.4947 22.3226 12.5878 22.5881 11.7092C22.7232 11.2741 22.893 10.8507 23.096 10.4432C23.1973 10.2422 23.3088 10.0465 23.4299 9.85696C23.4906 9.76411 23.8083 9.36018 23.8083 9.36018C24.0106 9.12027 24.0781 8.82885 23.8953 8.59029C23.8067 8.47584 23.6765 8.40141 23.5334 8.38336C23.3902 8.36532 23.2457 8.40513 23.1318 8.49405C22.9028 8.67166 22.6831 8.861 22.4735 9.06131C22.2835 9.25539 22.1035 9.45897 21.9339 9.67126C21.5978 10.0931 21.296 10.5414 21.0314 11.0118C20.5149 11.9549 20.1104 12.9558 19.8262 13.9938C19.7985 14.0914 19.7729 14.1896 19.7472 14.2872C19.5067 14.0311 19.2562 13.7877 18.9959 13.5573C17.9095 12.5998 16.6785 11.822 15.349 11.2531C14.08 10.7038 12.7518 10.3045 11.3911 10.063C11.2014 10.0254 11.0045 10.06 10.8389 10.1603C10.6732 10.2605 10.5506 10.4191 10.495 10.6052C10.4393 10.7913 10.4546 10.9916 10.5379 11.167C10.6211 11.3423 10.7663 11.4803 10.9453 11.554H10.9534C11.5388 11.8061 12.1121 12.0724 12.6672 12.3591C13.2223 12.6458 13.7585 12.9562 14.2671 13.2944C15.2849 13.9687 16.2035 14.7393 16.9441 15.6149C17.484 16.2447 17.9343 16.9468 18.2823 17.7009C17.7482 17.3937 17.1858 17.1392 16.6028 16.9412C15.7988 16.6663 14.9613 16.5031 14.1133 16.4559C13.2641 16.4039 12.4122 16.4986 11.5948 16.7358C10.7703 16.9745 10.0133 17.405 9.38523 17.9923C9.28819 18.0836 9.22901 18.2082 9.21951 18.3414C9.21 18.4746 9.25088 18.6065 9.33397 18.7107C9.41705 18.8149 9.53622 18.8838 9.66765 18.9035C9.79907 18.9232 9.93307 18.8924 10.0428 18.8171L10.0523 18.8104C10.6077 18.4446 11.241 18.2154 11.901 18.1414C12.5647 18.0661 13.2363 18.1055 13.8867 18.258C15.1795 18.5509 16.3687 19.1919 17.3265 20.1123C17.7628 20.5318 18.1227 21.0247 18.3902 21.5687C18.6259 22.0486 18.7498 22.5761 18.7524 23.1112C18.7517 23.2178 18.7457 23.3244 18.7342 23.4304C18.7301 23.4453 18.7268 23.4609 18.7227 23.4758C18.7052 23.5436 18.6883 23.6113 18.6701 23.669C18.637 23.7923 18.5986 23.9116 18.5602 24.0302C18.4824 24.2585 18.3901 24.4815 18.2836 24.6977C18.0897 25.1012 17.8382 25.4741 17.537 25.8045C17.3913 25.9628 17.2334 26.1094 17.0648 26.2429C16.8947 26.3806 16.7143 26.505 16.5253 26.615C15.7584 27.0657 14.7898 27.3354 13.7599 27.4222C13.5022 27.4432 13.2405 27.454 12.9788 27.4547C12.7171 27.4554 12.4534 27.4445 12.1931 27.4222C11.9327 27.3998 11.6744 27.3714 11.4262 27.3273C11.178 27.2832 10.9379 27.2331 10.722 27.1762L10.6155 27.1484C10.5608 27.1341 9.5471 26.7194 9.11611 26.4659C7.86375 25.718 6.77508 24.7229 5.91571 23.5409C5.03372 22.3324 4.37758 20.9729 3.97928 19.5287C3.77681 18.8009 3.63846 18.0566 3.56583 17.3045C3.52941 16.9276 3.50647 16.5481 3.49838 16.1679C3.49029 15.7877 3.5031 15.4055 3.52806 15.0239C3.55301 14.6424 3.5955 14.2615 3.65014 13.8813C3.67577 13.6881 3.71219 13.5085 3.74524 13.3228C3.77829 13.1371 3.82078 12.9562 3.86799 12.7746C3.95699 12.4105 4.0646 12.0513 4.19039 11.6983C4.31652 11.3452 4.45479 10.9955 4.61599 10.6553C5.26475 9.27579 6.15896 8.02701 7.25455 6.97053C8.36838 5.89069 9.64807 4.99822 11.0444 4.32741C12.4517 3.64923 13.9549 3.19406 15.5007 2.97807C17.045 2.75917 18.6145 2.79695 20.1465 3.08989C21.6722 3.38133 23.1339 3.94359 24.4632 4.75031C25.7845 5.5636 26.931 6.6336 27.8356 7.89766C28.292 8.53724 28.6906 9.21654 29.0267 9.92744C29.3665 10.6458 29.6486 11.3903 29.8705 12.1538C30.3147 13.7047 30.5417 15.3103 30.545 16.9242C30.5544 18.5454 30.1119 20.8903 29.9474 21.7463C28.8419 25.8126 27.1611 27.1843 25.512 28.6983C24.7795 29.3083 24.1273 29.8437 23.3368 30.5356C22.9237 30.8972 22.5353 31.2862 22.174 31.7C21.8514 32.081 21.5497 32.4794 21.2702 32.8934C20.7124 33.7277 20.2524 34.6487 19.9954 35.6457C19.864 36.1465 19.7961 36.6621 19.7931 37.18C19.7896 37.7099 19.881 38.2361 20.0629 38.7334C20.1019 38.8333 20.1776 38.9144 20.2743 38.9601C20.371 39.0058 20.4814 39.0125 20.5829 38.9789C20.6843 38.9454 20.7692 38.8741 20.82 38.7796C20.8708 38.6852 20.8837 38.5748 20.8561 38.4711V38.465C20.7552 38.0594 20.7271 37.6389 20.7731 37.2234C20.819 36.7979 20.918 36.3798 21.0679 35.9791C21.368 35.1658 21.8401 34.4203 22.404 33.7426C22.6882 33.4011 22.9905 33.0753 23.3098 32.7667C23.5486 32.537 23.7988 32.3167 24.0518 32.1032C23.6531 32.8982 23.3186 33.7487 23.1904 34.6623C23.1241 35.1283 23.1348 35.602 23.2222 36.0645C23.3136 36.5243 23.4972 36.9605 23.7617 37.3468C23.7919 37.3934 23.839 37.4263 23.893 37.4386C23.947 37.4508 24.0036 37.4414 24.0508 37.4124C24.098 37.3833 24.1321 37.3369 24.1457 37.283C24.1594 37.2291 24.1516 37.172 24.1239 37.1238C23.9338 36.7703 23.8177 36.3814 23.7826 35.9812C23.7537 35.5828 23.7899 35.1824 23.8899 34.7958C24.0922 34.0137 24.4787 33.2743 24.934 32.5803C25.8978 31.2527 27.2137 29.9786 27.8922 29.3774C29.2028 28.0708 31.0124 26.3453 31.9519 22.2959C32.2683 21.1499 32.7141 18.75 32.7471 16.9358C32.7889 15.1099 32.5771 13.2872 32.1178 11.5201Z"
        fill="#5EC69D" />
</svg>
