<svg width="66" height="25" viewBox="0 0 66 25" fill="none" xmlns="http://www.w3.org/2000/svg">
    <path
        d="M12.3425 0.304199H13.5565C13.7891 0.304199 14.0121 0.397023 14.1765 0.56225C14.341 0.727477 14.4334 0.951572 14.4334 1.18524V10.5615C14.4539 10.5615 14.4741 10.5561 14.4918 10.5457C14.5096 10.5353 14.5243 10.5205 14.5345 10.5026C15.0378 9.64362 15.7619 8.93664 16.6308 8.45584C17.5536 7.91029 18.6027 7.61749 19.6734 7.60666C21.8701 7.60666 25.3862 8.96549 25.3862 14.638V23.5372C25.3862 23.7709 25.2938 23.995 25.1294 24.1602C24.9649 24.3254 24.7419 24.4182 24.5094 24.4182H23.2953C23.1802 24.4182 23.0661 24.3955 22.9598 24.3512C22.8534 24.3069 22.7567 24.242 22.6753 24.1602C22.5939 24.0784 22.5293 23.9812 22.4852 23.8744C22.4412 23.7675 22.4185 23.6529 22.4185 23.5372V14.9776C22.4185 12.3283 21.4385 10.0864 18.6327 10.0864C16.7057 10.0864 15.1847 11.4419 14.6438 13.0752C14.4745 13.4818 14.4415 13.9244 14.4415 14.4984V23.5338C14.4415 23.7675 14.3491 23.9916 14.1846 24.1568C14.0202 24.322 13.7972 24.4149 13.5646 24.4149H12.3506C12.118 24.4149 11.895 24.322 11.7306 24.1568C11.5661 23.9916 11.4738 23.7675 11.4738 23.5338V1.18727C11.4732 0.954658 11.5642 0.731266 11.727 0.565832C11.8897 0.400398 12.111 0.306346 12.3425 0.304199Z"
        fill="#5EC69D" />
    <path
        d="M29.0527 23.5373V8.86395C29.0527 8.63028 29.1451 8.40618 29.3096 8.24096C29.474 8.07573 29.697 7.98291 29.9296 7.98291H31.1436C31.3762 7.98291 31.5992 8.07573 31.7636 8.24096C31.9281 8.40618 32.0204 8.63028 32.0204 8.86395V23.5373C32.0204 23.771 31.9281 23.9951 31.7636 24.1603C31.5992 24.3255 31.3762 24.4183 31.1436 24.4183H29.9296C29.697 24.4183 29.474 24.3255 29.3096 24.1603C29.1451 23.9951 29.0527 23.771 29.0527 23.5373Z"
        fill="#5EC69D" />
    <path
        d="M32.3651 3.36072C32.3988 4.3773 31.6555 5.19531 30.4725 5.19531C29.4244 5.19531 28.6804 4.38205 28.6804 3.36072C28.6804 2.30822 29.4581 1.49292 30.54 1.49292C31.6555 1.49292 32.3651 2.30822 32.3651 3.36072Z"
        fill="#5EC69D" />
    <path
        d="M35.2201 22.9884C35.22 22.7937 35.284 22.6045 35.4022 22.4503L42.6232 13.0089C43.3192 12.1435 43.9829 11.3756 44.7093 10.5136C44.7374 10.4799 44.7529 10.4375 44.7532 10.3936H36.7754C36.5429 10.3936 36.3199 10.3008 36.1554 10.1355C35.991 9.97032 35.8986 9.74622 35.8986 9.51256V8.86737C35.8986 8.6337 35.991 8.40961 36.1554 8.24438C36.3199 8.07915 36.5429 7.98633 36.7754 7.98633H47.4747C47.5914 7.9863 47.7069 8.00968 47.8145 8.0551C47.9221 8.10051 48.0196 8.16705 48.1012 8.25081C48.1829 8.33457 48.2471 8.43387 48.2901 8.54288C48.333 8.6519 48.3539 8.76843 48.3515 8.88566L48.3394 9.56339C48.3358 9.75264 48.272 9.93576 48.1573 10.0859L41.0348 19.3931C40.3603 20.31 39.6858 21.1253 38.9385 21.9745V22.0423H47.6271C47.8597 22.0423 48.0827 22.1351 48.2471 22.3003C48.4116 22.4656 48.504 22.6897 48.504 22.9233V23.5333C48.504 23.7669 48.4116 23.991 48.2471 24.1563C48.0827 24.3215 47.8597 24.4143 47.6271 24.4143H36.1003C35.8677 24.4143 35.6447 24.3215 35.4803 24.1563C35.3158 23.991 35.2235 23.7669 35.2235 23.5333L35.2201 22.9884Z"
        fill="#5EC69D" />
    <path
        d="M65.9999 16.0647C65.9999 22.1445 61.8087 24.7937 57.8536 24.7937C53.425 24.7937 50.0107 21.5332 50.0107 16.3364C50.0107 10.8333 53.5942 7.60669 58.124 7.60669C62.8225 7.60669 65.9999 11.0373 65.9999 16.0647ZM53.023 16.2341C53.023 19.8348 55.0848 22.5518 57.9919 22.5518C60.8314 22.5518 62.9614 19.8687 62.9614 16.1663C62.9614 13.3809 61.5754 9.8486 58.0593 9.8486C54.5432 9.8486 53.023 13.1091 53.023 16.2341Z"
        fill="#5EC69D" />
    <path
        d="M0.215988 12.9505C0.215988 11.3999 0.194402 10.0234 0.133699 8.74863C0.127658 8.62922 0.145869 8.50983 0.18722 8.39772C0.228572 8.28561 0.292199 8.18313 0.374229 8.09652C0.456259 8.00991 0.554979 7.94098 0.664369 7.89394C0.773759 7.84689 0.891531 7.82271 1.01052 7.82286H1.83001C2.05819 7.82276 2.27741 7.91204 2.44113 8.07174C2.60485 8.23144 2.70017 8.44897 2.70684 8.67815L2.78103 11.0502H2.91592C3.65785 8.84419 5.44926 7.45215 7.44235 7.45215H7.45246C7.67465 7.45376 7.88716 7.54372 8.04351 7.70235C8.19986 7.86098 8.28733 8.07536 8.28679 8.29862V9.42568C8.28691 9.53821 8.26465 9.64964 8.22133 9.75342C8.17801 9.8572 8.1145 9.95124 8.03452 10.03C7.95454 10.1088 7.85971 10.1707 7.75559 10.2122C7.65147 10.2537 7.54016 10.2738 7.42818 10.2715C7.37827 10.2715 7.32768 10.2715 7.2744 10.2715C5.18352 10.2715 3.69427 11.8668 3.28891 14.1067C3.20563 14.5659 3.16051 15.0313 3.15401 15.4981V23.4091C3.15401 23.5202 3.13224 23.6302 3.08994 23.7328C3.04764 23.8354 2.98563 23.9286 2.90747 24.0072C2.82931 24.0857 2.73652 24.148 2.63439 24.1905C2.53226 24.233 2.42281 24.2549 2.31227 24.2549H1.05774C0.947195 24.2549 0.837738 24.233 0.735613 24.1905C0.633487 24.148 0.540691 24.0857 0.462528 24.0072C0.384364 23.9286 0.322362 23.8354 0.28006 23.7328C0.237758 23.6302 0.215988 23.5202 0.215988 23.4091V12.9505Z"
        fill="#5EC69D" />
</svg>
