<svg width="18" height="14" viewBox="0 0 18 14" fill="none" xmlns="http://www.w3.org/2000/svg">
    <path
        d="M11.8333 4.9V2.1L17.5 7L11.8333 11.9V9.1H6.16667V4.9H11.8333ZM10.4167 11.9V11.8419C9.58225 12.3214 8.61608 12.6 7.58333 12.6C4.45888 12.6 1.91667 10.0877 1.91667 7C1.91667 3.9123 4.45888 1.4 7.58333 1.4C8.61608 1.4 9.58225 1.6786 10.4167 2.1581V0.5866C9.54825 0.2114 8.59129 0 7.58333 0C3.67192 0 0.5 3.1339 0.5 7C0.5 10.8661 3.67192 14 7.58333 14C8.59129 14 9.54825 13.7886 10.4167 13.4134V11.9Z"
        fill="#FF7C7C" />
</svg>
