<svg width="156" height="59" viewBox="0 0 156 59" fill="none" xmlns="http://www.w3.org/2000/svg">
    <path
        d="M76.2799 9.53735H78.0837C78.4292 9.53735 78.7605 9.67778 79.0048 9.92774C79.2491 10.1777 79.3864 10.5167 79.3864 10.8702V25.0549C79.4169 25.0548 79.4469 25.0466 79.4733 25.0309C79.4997 25.0152 79.5215 24.9927 79.5367 24.9657C80.2844 23.6662 81.3602 22.5967 82.6512 21.8693C84.0222 21.044 85.5809 20.601 87.1716 20.5847C90.4353 20.5847 95.6592 22.6403 95.6592 31.2219V44.6847C95.6592 45.0382 95.5219 45.3772 95.2776 45.6272C95.0333 45.8771 94.702 46.0176 94.3565 46.0176H92.5527C92.3816 46.0176 92.2122 45.9831 92.0542 45.9161C91.8961 45.8491 91.7525 45.7509 91.6316 45.6272C91.5106 45.5034 91.4146 45.3565 91.3492 45.1948C91.2837 45.0331 91.25 44.8597 91.25 44.6847V31.7355C91.25 27.7277 89.794 24.3361 85.6253 24.3361C82.7624 24.3361 80.5027 26.3867 79.699 28.8576C79.4475 29.4727 79.3984 30.1422 79.3984 31.0107V44.6796C79.3984 45.0331 79.2612 45.3721 79.0169 45.6221C78.7726 45.872 78.4412 46.0124 78.0957 46.0124H76.292C75.9465 46.0124 75.6151 45.872 75.3708 45.6221C75.1265 45.3721 74.9893 45.0331 74.9893 44.6796V10.8733C74.9885 10.5214 75.1237 10.1834 75.3655 9.93316C75.6073 9.68289 75.936 9.5406 76.2799 9.53735Z"
        fill="white" />
    <path
        d="M101.107 44.6846V22.4864C101.107 22.1329 101.244 21.7939 101.488 21.5439C101.733 21.294 102.064 21.1536 102.41 21.1536H104.213C104.559 21.1536 104.89 21.294 105.135 21.5439C105.379 21.7939 105.516 22.1329 105.516 22.4864V44.6846C105.516 45.0381 105.379 45.3771 105.135 45.627C104.89 45.877 104.559 46.0174 104.213 46.0174H102.41C102.064 46.0174 101.733 45.877 101.488 45.627C101.244 45.3771 101.107 45.0381 101.107 44.6846Z"
        fill="white" />
    <path
        d="M106.028 14.1613C106.078 15.6992 104.974 16.9367 103.216 16.9367C101.659 16.9367 100.554 15.7064 100.554 14.1613C100.554 12.5691 101.709 11.3357 103.317 11.3357C104.974 11.3357 106.028 12.5691 106.028 14.1613Z"
        fill="white" />
    <path
        d="M110.27 43.8541C110.27 43.5596 110.365 43.2734 110.541 43.0401L121.269 28.757C122.303 27.4477 123.289 26.2861 124.368 24.9819C124.41 24.931 124.433 24.8669 124.433 24.8005H112.581C112.235 24.8005 111.904 24.66 111.66 24.4101C111.415 24.1601 111.278 23.8211 111.278 23.4676V22.4915C111.278 22.1381 111.415 21.799 111.66 21.5491C111.904 21.2991 112.235 21.1587 112.581 21.1587H128.477C128.65 21.1587 128.822 21.194 128.982 21.2627C129.142 21.3314 129.286 21.4321 129.408 21.5588C129.529 21.6855 129.624 21.8357 129.688 22.0007C129.752 22.1656 129.783 22.3419 129.78 22.5192L129.762 23.5445C129.756 23.8308 129.661 24.1078 129.491 24.335L118.909 38.415C117.907 39.8022 116.905 41.0356 115.795 42.3203V42.4228H128.703C129.049 42.4228 129.38 42.5633 129.624 42.8132C129.869 43.0632 130.006 43.4022 130.006 43.7557V44.6784C130.006 45.0319 129.869 45.3709 129.624 45.6209C129.38 45.8709 129.049 46.0113 128.703 46.0113H111.578C111.232 46.0113 110.901 45.8709 110.657 45.6209C110.412 45.3709 110.275 45.0319 110.275 44.6784L110.27 43.8541Z"
        fill="white" />
    <path
        d="M156 33.3799C156 42.5776 149.773 46.5854 143.897 46.5854C137.317 46.5854 132.245 41.6528 132.245 33.791C132.245 25.4658 137.569 20.5845 144.299 20.5845C151.279 20.5845 156 25.7744 156 33.3799ZM136.72 33.6362C136.72 39.0835 139.783 43.1938 144.102 43.1938C148.321 43.1938 151.486 39.1347 151.486 33.5337C151.486 29.3198 149.426 23.9761 144.202 23.9761C138.979 23.9761 136.72 28.9087 136.72 33.6362Z"
        fill="white" />
    <path
        d="M58.2638 28.6689C58.2638 26.323 58.2318 24.2407 58.1416 22.3122C58.1326 22.1315 58.1597 21.9509 58.2211 21.7813C58.2825 21.6117 58.3771 21.4567 58.4989 21.3257C58.6208 21.1946 58.7675 21.0904 58.93 21.0192C59.0925 20.948 59.2675 20.9114 59.4443 20.9117H60.6618C61.0008 20.9115 61.3265 21.0466 61.5698 21.2882C61.813 21.5298 61.9546 21.8588 61.9645 22.2055L62.0747 25.794H62.2752C63.3775 22.4567 66.039 20.3508 69.0001 20.3508H69.0152C69.3453 20.3533 69.661 20.4894 69.8933 20.7293C70.1256 20.9693 70.2555 21.2936 70.2547 21.6314V23.3364C70.2549 23.5067 70.2218 23.6752 70.1575 23.8322C70.0931 23.9892 69.9988 24.1315 69.8799 24.2507C69.7611 24.3699 69.6202 24.4636 69.4655 24.5263C69.3108 24.589 69.1455 24.6195 68.9791 24.616C68.9049 24.616 68.8298 24.616 68.7506 24.616C65.6442 24.616 63.4316 27.0295 62.8293 30.418C62.7056 31.1127 62.6386 31.8168 62.6289 32.5229V44.4909C62.6289 44.6589 62.5965 44.8253 62.5337 44.9805C62.4709 45.1358 62.3787 45.2768 62.2626 45.3956C62.1465 45.5145 62.0086 45.6087 61.8569 45.673C61.7052 45.7373 61.5425 45.7704 61.3783 45.7704H59.5144C59.3502 45.7704 59.1876 45.7373 59.0358 45.673C58.8841 45.6087 58.7462 45.5145 58.6301 45.3956C58.514 45.2768 58.4219 45.1358 58.359 44.9805C58.2962 44.8253 58.2638 44.6589 58.2638 44.4909V28.6689Z"
        fill="white" />
    <path
        d="M47.718 17.4278C47.3667 16.077 46.9107 14.7571 46.3541 13.4805C45.79 12.193 45.1142 10.9598 44.3349 9.79569C42.7542 7.43893 40.7383 5.42125 38.4006 3.85628C36.0618 2.30918 33.4698 1.20579 30.7487 0.598986C28.0386 -0.00817197 25.2493 -0.155037 22.4925 0.164271C19.7383 0.478034 17.0482 1.22648 14.518 2.38296C11.9662 3.54503 9.61396 5.11984 7.55148 7.04693C5.45314 9.00141 3.7212 11.3314 2.44086 13.9224C2.11719 14.5724 1.8326 15.244 1.57306 15.9258C1.31318 16.6083 1.08775 17.304 0.897658 18.0102C0.797449 18.3618 0.716281 18.7186 0.633108 19.0754C0.549935 19.4322 0.480791 19.7931 0.421668 20.1458C0.295406 20.8522 0.195197 21.5648 0.127056 22.2825C-0.161328 25.1784 0.0420872 28.1036 0.728305 30.9286C1.42036 33.787 2.61492 36.4926 4.25363 38.9135C5.91909 41.3828 8.05689 43.4808 10.5377 45.0805C11.5157 45.7049 13.7925 46.766 13.8716 46.7999C14.9901 47.2665 16.1602 47.5912 17.3559 47.7667C17.5052 47.7882 17.6565 47.8087 17.8048 47.8272L17.905 47.8415L17.9902 47.8477C18.94 47.9559 19.8969 47.9837 20.8511 47.9307C22.0466 47.8678 23.2315 47.668 24.3835 47.335C24.9792 47.1642 25.5627 46.9518 26.1301 46.6994C26.7127 46.4433 27.2767 46.1449 27.8176 45.8064C28.3683 45.4584 28.8922 45.0681 29.3849 44.6386C29.8797 44.2035 30.3398 43.7287 30.7607 43.2186C31.5856 42.2102 32.2523 41.0767 32.7368 39.8588C32.9686 39.2749 33.1631 38.6762 33.319 38.0666C33.3932 37.7672 33.4633 37.4678 33.5195 37.1684C33.5525 37.0167 33.5726 36.8773 33.5976 36.7327C33.6227 36.5881 33.6437 36.4456 33.6648 36.3021C33.8339 35.1449 33.901 33.9744 33.8652 32.8049C33.8393 32.0447 33.7674 31.287 33.6497 30.5359C33.6397 30.406 33.6212 30.2769 33.5946 30.1494C33.2895 28.7777 33.0659 27.3883 32.9252 25.9889C32.7874 24.5977 32.7596 23.1974 32.842 21.8016C32.9242 20.415 33.1651 19.0431 33.5595 17.7139C33.7602 17.0557 34.0125 16.4152 34.3141 15.7987C34.4646 15.4946 34.6302 15.1986 34.8101 14.9118C34.9003 14.7713 35.3723 14.1603 35.3723 14.1603C35.6729 13.7973 35.7731 13.3565 35.5016 12.9956C35.37 12.8224 35.1766 12.7098 34.9638 12.6825C34.7511 12.6552 34.5365 12.7155 34.3672 12.85C34.027 13.1187 33.7006 13.4051 33.3892 13.7081C33.107 14.0017 32.8394 14.3097 32.5875 14.6309C32.0881 15.269 31.6398 15.9472 31.2467 16.6589C30.4793 18.0857 29.8782 19.5998 29.456 21.1701C29.4149 21.3177 29.3768 21.4664 29.3388 21.614C28.9814 21.2265 28.6092 20.8584 28.2224 20.5098C26.6084 19.0613 24.7795 17.8846 22.8042 17.0239C20.9188 16.193 18.9455 15.5888 16.924 15.2235C16.6421 15.1666 16.3496 15.219 16.1035 15.3707C15.8573 15.5223 15.6752 15.7623 15.5925 16.0438C15.5098 16.3253 15.5326 16.6283 15.6562 16.8936C15.7799 17.1589 15.9957 17.3676 16.2616 17.4791H16.2736C17.1434 17.8605 17.9952 18.2634 18.8199 18.6971C19.6446 19.1308 20.4413 19.6004 21.1968 20.112C22.709 21.1321 24.0738 22.2979 25.1741 23.6225C25.9762 24.5754 26.6453 25.6374 27.1622 26.7783C26.3688 26.3135 25.5332 25.9286 24.6671 25.629C23.4726 25.2132 22.2282 24.9662 20.9684 24.8949C19.7066 24.8162 18.441 24.9594 17.2266 25.3183C16.0016 25.6794 14.877 26.3306 13.9438 27.2192C13.7996 27.3572 13.7117 27.5458 13.6976 27.7473C13.6834 27.9488 13.7442 28.1483 13.8676 28.3059C13.9911 28.4636 14.1681 28.5677 14.3634 28.5976C14.5586 28.6274 14.7577 28.5808 14.9208 28.4669L14.9348 28.4567C15.76 27.9033 16.701 27.5567 17.6815 27.4447C18.6675 27.3307 19.6654 27.3903 20.6317 27.6211C22.5525 28.0642 24.3192 29.034 25.7423 30.4262C26.3904 31.0609 26.9252 31.8066 27.3226 32.6296C27.6728 33.3555 27.8568 34.1535 27.8607 34.9631C27.8597 35.1244 27.8507 35.2856 27.8336 35.446C27.8276 35.4685 27.8226 35.4921 27.8166 35.5147C27.7905 35.6172 27.7655 35.7197 27.7384 35.8069C27.6893 35.9935 27.6322 36.1739 27.5751 36.3533C27.4596 36.6987 27.3224 37.0361 27.1642 37.3632C26.8761 37.9736 26.5024 38.5377 26.0549 39.0375C25.8384 39.2771 25.6039 39.4989 25.3535 39.7009C25.1007 39.9092 24.8327 40.0974 24.5518 40.2637C23.4124 40.9455 21.9735 41.3536 20.4433 41.4848C20.0605 41.5166 19.6717 41.533 19.2829 41.534C18.8941 41.5351 18.5022 41.5187 18.1154 41.4848C17.7286 41.451 17.3448 41.4079 16.9761 41.3413C16.6073 41.2747 16.2506 41.1988 15.9299 41.1127L15.7716 41.0706C15.6904 41.0491 14.1843 40.4216 13.5439 40.0382C11.6833 38.9067 10.0658 37.4014 8.78906 35.6131C7.47867 33.7849 6.50384 31.7283 5.91208 29.5435C5.61127 28.4424 5.40571 27.3164 5.2978 26.1785C5.24369 25.6085 5.20962 25.0343 5.19759 24.4592C5.18557 23.884 5.20461 23.3057 5.24169 22.7285C5.27876 22.1513 5.34189 21.5751 5.42306 20.9999C5.46114 20.7077 5.51525 20.436 5.56436 20.155C5.61346 19.8741 5.67659 19.6004 5.74673 19.3256C5.87896 18.7748 6.03883 18.2314 6.22573 17.6975C6.41312 17.1633 6.61854 16.6343 6.85804 16.1196C7.82192 14.0326 9.15046 12.1434 10.7782 10.5452C12.433 8.91156 14.3343 7.5614 16.4089 6.5466C18.4996 5.52064 20.733 4.83204 23.0296 4.50528C25.3239 4.17413 27.6558 4.23128 29.932 4.67445C32.1986 5.11534 34.3704 5.96594 36.3453 7.18637C38.3084 8.41673 40.0117 10.0354 41.3557 11.9477C42.0339 12.9153 42.6261 13.943 43.1254 15.0184C43.6302 16.1052 44.0494 17.2315 44.379 18.3865C45.039 20.7328 45.3763 23.1618 45.3811 25.6034C45.3951 28.0558 44.7378 31.6033 44.4933 32.8982C42.8508 39.0498 40.3537 41.125 37.9036 43.4154C36.8153 44.3382 35.8463 45.1481 34.6718 46.1949C34.0581 46.7419 33.481 47.3303 32.9443 47.9564C32.465 48.5328 32.0167 49.1356 31.6015 49.7619C30.7727 51.024 30.0893 52.4173 29.7075 53.9255C29.5123 54.6832 29.4113 55.4631 29.4069 56.2467C29.4017 57.0483 29.5374 57.8443 29.8077 58.5967C29.8657 58.7478 29.9781 58.8705 30.1218 58.9396C30.2654 59.0087 30.4295 59.0189 30.5803 58.9681C30.731 58.9174 30.8571 58.8095 30.9326 58.6666C31.0081 58.5238 31.0273 58.3568 30.9862 58.1999V58.1906C30.8364 57.577 30.7946 56.941 30.8629 56.3123C30.9311 55.6686 31.0782 55.0361 31.3008 54.4299C31.7468 53.1996 32.4482 52.0718 33.286 51.0465C33.7081 50.5299 34.1574 50.037 34.6318 49.5701C34.9865 49.2226 35.3583 48.8894 35.7341 48.5664C35.1418 49.769 34.6448 51.0558 34.4544 52.4378C34.3558 53.1428 34.3718 53.8595 34.5015 54.5591C34.6374 55.2547 34.9101 55.9147 35.3032 56.4989C35.348 56.5695 35.418 56.6193 35.4982 56.6379C35.5784 56.6564 35.6625 56.6422 35.7327 56.5982C35.8028 56.5543 35.8534 56.4841 35.8737 56.4025C35.8939 56.321 35.8823 56.2345 35.8413 56.1616C35.5588 55.6268 35.3863 55.0386 35.3342 54.433C35.2912 53.8304 35.345 53.2246 35.4936 52.6398C35.7942 51.4566 36.3684 50.3381 37.0448 49.2882C38.4768 47.2797 40.4318 45.3522 41.4399 44.4427C43.387 42.466 46.0755 39.8557 47.4714 33.7297C47.9414 31.9959 48.6038 28.3654 48.6529 25.6208C48.7149 22.8586 48.4002 20.1011 47.718 17.4278Z"
        fill="white" />
</svg>
