<svg width="33" height="19" viewBox="0 0 33 19" fill="none" xmlns="http://www.w3.org/2000/svg">
<path fill-rule="evenodd" clip-rule="evenodd" d="M12.8793 9.26804C12.8793 6.37351 14.3666 3.79641 16.6823 2.12865C14.9747 0.898844 12.8177 0.162598 10.4701 0.162598C4.93906 0.162598 0.455151 4.23928 0.455151 9.26804C0.455151 14.2968 4.93906 18.3735 10.4701 18.3735C12.8177 18.3735 14.9747 17.6372 16.6823 16.4074C14.3666 14.7397 12.8793 12.1626 12.8793 9.26804Z" fill="#EB001B"/>
<path fill-rule="evenodd" clip-rule="evenodd" d="M12.8793 9.26806C12.8793 12.1626 14.3665 14.7397 16.6822 16.4075C18.9978 14.7397 20.485 12.1626 20.485 9.26806C20.485 6.37353 18.9978 3.79643 16.6822 2.12866C14.3665 3.79643 12.8793 6.37353 12.8793 9.26806Z" fill="#FF5E00"/>
<path fill-rule="evenodd" clip-rule="evenodd" d="M22.8943 0.162598C20.5467 0.162598 18.3897 0.898844 16.6823 2.12865C18.9978 3.79653 20.4851 6.37351 20.4851 9.26804C20.4851 12.1626 18.9978 14.7397 16.6823 16.4074C18.3897 17.6372 20.5467 18.3735 22.8943 18.3735C28.4254 18.3735 32.9093 14.2968 32.9093 9.26804C32.9093 4.23928 28.4254 0.162598 22.8943 0.162598Z" fill="#F79E1C"/>
</svg>
