<svg width="24" height="23" viewBox="0 0 24 23" fill="none" xmlns="http://www.w3.org/2000/svg">
<path fill-rule="evenodd" clip-rule="evenodd" d="M5.20462 12.9019C10.1876 12.9019 10.4092 14.4496 10.4092 17.6684C10.4092 19.2812 10.4092 20.4285 9.66956 21.2685C8.81845 22.2364 7.26932 22.4349 5.20462 22.4349C3.13991 22.4349 1.59078 22.2364 0.739668 21.2685C0 20.4285 0 19.2823 0 17.6964L0.918462 17.6684H0C0 14.4496 0.221656 12.9019 5.20462 12.9019ZM18.6754 12.9019C23.6583 12.9019 23.88 14.4496 23.88 17.6684C23.88 19.2812 23.88 20.4285 23.1403 21.2685C22.2892 22.2364 20.7401 22.4349 18.6754 22.4349C16.6107 22.4349 15.0615 22.2364 14.2104 21.2685C13.4708 20.4285 13.4708 19.2823 13.4708 17.6964L14.3892 17.6684H13.4708C13.4708 14.4496 13.6924 12.9019 18.6754 12.9019ZM5.45708 14.5847L5.20462 14.5842C2.00962 14.5842 1.84578 14.7941 1.83738 17.2501L1.83789 18.2069C1.8437 19.1838 1.88433 19.8894 2.16879 20.2143C2.49332 20.5822 3.45709 20.7526 5.20462 20.7526C6.95214 20.7526 7.91591 20.581 8.24044 20.2132C8.57231 19.8352 8.57231 18.938 8.57231 17.6953C8.57231 14.8912 8.57231 14.5979 5.45708 14.5847ZM18.9279 14.5847L18.6754 14.5842C15.4804 14.5842 15.3165 14.7941 15.3081 17.2501L15.3087 18.2069C15.3145 19.1838 15.3551 19.8894 15.6396 20.2143C15.9641 20.5822 16.9279 20.7526 18.6754 20.7526C20.4229 20.7526 21.3867 20.581 21.7112 20.2132C22.0431 19.8352 22.0431 18.938 22.0431 17.6953C22.0431 14.8912 22.0431 14.5979 18.9279 14.5847ZM5.20462 0.564941C10.1876 0.564941 10.4092 2.11266 10.4092 5.33148C10.4092 6.94425 10.4092 8.09159 9.66956 8.93162C8.81845 9.89951 7.26932 10.098 5.20462 10.098C3.13991 10.098 1.59078 9.89951 0.739668 8.93162C0 8.09159 0 6.94537 0 5.35952L0.918462 5.33148H0C0 2.11266 0.221656 0.564941 5.20462 0.564941ZM18.6754 0.564941C23.6583 0.564941 23.88 2.11266 23.88 5.33148C23.88 6.94425 23.88 8.09159 23.1403 8.93162C22.2892 9.89951 20.7401 10.098 18.6754 10.098C16.6107 10.098 15.0615 9.89951 14.2104 8.93162C13.4708 8.09159 13.4708 6.94537 13.4708 5.35952L14.3892 5.33148H13.4708C13.4708 2.11266 13.6924 0.564941 18.6754 0.564941ZM5.45708 2.24775L5.20462 2.24725C2.00962 2.24725 1.84578 2.45722 1.83738 4.9132L1.83789 5.87002C1.8437 6.84684 1.88433 7.55245 2.16879 7.87737C2.49332 8.24524 3.45709 8.41571 5.20462 8.41571C6.95214 8.41571 7.91591 8.24412 8.24044 7.87625C8.57231 7.49829 8.57231 6.60106 8.57231 5.3584C8.57231 2.55432 8.57231 2.26095 5.45708 2.24775ZM18.9279 2.24775L18.6754 2.24725C15.4804 2.24725 15.3165 2.45722 15.3081 4.9132L15.3087 5.87002C15.3145 6.84684 15.3551 7.55245 15.6396 7.87737C15.9641 8.24524 16.9279 8.41571 18.6754 8.41571C20.4229 8.41571 21.3867 8.24412 21.7112 7.87625C22.0431 7.49829 22.0431 6.60106 22.0431 5.3584C22.0431 2.55432 22.0431 2.26095 18.9279 2.24775Z" fill="#686868"/>
</svg>
