<svg width="30" height="30" viewBox="0 0 30 30" fill="none" xmlns="http://www.w3.org/2000/svg">
<circle cx="15" cy="15" r="15" fill="#5EC69D" fill-opacity="0.15"/>
<g clip-path="url(#clip0_950_72078)">
<path d="M19.2937 10.7114C19.0278 10.4455 18.5982 10.4455 18.3323 10.7114L14.9982 14.0386L11.6642 10.7046C11.3982 10.4386 10.9687 10.4386 10.7028 10.7046C10.4369 10.9705 10.4369 11.4 10.7028 11.6659L14.0369 15L10.7028 18.3341C10.4369 18.6 10.4369 19.0296 10.7028 19.2955C10.9687 19.5614 11.3982 19.5614 11.6642 19.2955L14.9982 15.9614L18.3323 19.2955C18.5982 19.5614 19.0278 19.5614 19.2937 19.2955C19.5596 19.0296 19.5596 18.6 19.2937 18.3341L15.9596 15L19.2937 11.6659C19.5528 11.4068 19.5528 10.9705 19.2937 10.7114Z" fill="#5EC69D"/>
</g>
<defs>
<clipPath id="clip0_950_72078">
<rect width="16.3636" height="16.3636" fill="white" transform="translate(6.81641 6.81812)"/>
</clipPath>
</defs>
</svg>
