<svg width="15" height="14" viewBox="0 0 15 14" fill="none" xmlns="http://www.w3.org/2000/svg">
    <path
        d="M12.75 1.75H12.1667V0.583298C12.1667 0.261368 11.9053 0 11.5833 0H11C10.678 0 10.4167 0.261368 10.4167 0.583298V1.75H4.5833V0.583298C4.5833 0.261368 4.32204 0 4 0H3.4167C3.09467 0 2.8333 0.261368 2.8333 0.583298V1.75H2.25C1.28517 1.75 0.5 2.53517 0.5 3.5V12.25C0.5 13.2148 1.28517 14 2.25 14H12.75C13.7148 14 14.5 13.2148 14.5 12.25V3.5C14.5 2.53517 13.7148 1.75 12.75 1.75ZM13.3333 12.25C13.3333 12.5714 13.0714 12.8333 12.75 12.8333H2.25C1.9286 12.8333 1.6667 12.5714 1.6667 12.25V5.85669H13.3333V12.25Z"
        fill="#A4A4A4" />
</svg>
