<svg width="14" height="14" viewBox="0 0 14 14" fill="none" xmlns="http://www.w3.org/2000/svg">
<path d="M14 7.94267V6.05733L12.3264 5.46233C12.2109 5.06158 12.0511 4.6795 11.8533 4.32192L12.6163 2.71717L11.2834 1.38425L9.67867 2.14667C9.32108 1.94892 8.93842 1.78908 8.53825 1.67358L7.94267 0H6.05733L5.46175 1.67358C5.06158 1.78908 4.67892 1.94833 4.32133 2.14667L2.71658 1.38367L1.38367 2.71658L2.14667 4.32192C1.94892 4.6795 1.7885 5.06158 1.67358 5.46233L0 6.05733V7.94267L1.67358 8.53767C1.7885 8.93842 1.94892 9.3205 2.14667 9.67808L1.38367 11.2828L2.71658 12.6163L4.32133 11.8533C4.67892 12.0511 5.06158 12.2109 5.46175 12.3264L6.05733 14H7.94267L8.53825 12.3264C8.939 12.2109 9.32108 12.0511 9.67867 11.8533L11.2834 12.6163L12.6163 11.2828L11.8533 9.67808C12.0511 9.3205 12.2109 8.93842 12.3264 8.53767L14 7.94267ZM7 9.33333C5.71142 9.33333 4.66667 8.28858 4.66667 7C4.66667 5.71142 5.71142 4.66667 7 4.66667C8.28858 4.66667 9.33333 5.71142 9.33333 7C9.33333 8.28858 8.28858 9.33333 7 9.33333Z" fill="#A4A4A4"/>
</svg>
