<svg width="20" height="24" viewBox="0 0 20 24" fill="none" xmlns="http://www.w3.org/2000/svg">
    <path fill-rule="evenodd" clip-rule="evenodd"
        d="M8.125 2.66869C4.8902 3.47797 2.5 6.33249 2.5 9.73234V14.5944C2.5 15.0423 2.12572 15.4055 1.66754 15.4055C0.746581 15.4055 0 16.1329 0 17.0263C0 17.9214 0.747522 18.6471 1.67079 18.6471H18.3292C19.252 18.6471 20 17.9196 20 17.0263C20 16.1311 19.2499 15.4055 18.3325 15.4055C17.8727 15.4055 17.5 15.0451 17.5 14.5944V9.73234C17.5 6.33384 15.1103 3.47825 11.875 2.66872V1.83156C11.875 0.821963 11.0355 0.0078125 10 0.0078125C8.96657 0.0078125 8.125 0.824334 8.125 1.83156V2.66869ZM7.08333 20.1714H12.9167C12.9167 21.7379 11.6108 23.0078 10 23.0078C8.38917 23.0078 7.08333 21.7379 7.08333 20.1714Z"
        fill="#C5C5C5" />
</svg>
