<svg width="15" height="16" viewBox="0 0 15 16" fill="none" xmlns="http://www.w3.org/2000/svg">
<path d="M12.2102 1.55139C11.4485 0.739968 10.0716 0.39209 8.31009 0.39209H3.19779C2.83775 0.392102 2.53116 0.636772 2.47474 0.969111L0.34607 13.5869C0.303759 13.8357 0.509901 14.061 0.779729 14.061H3.93588L4.72853 9.36212L4.70393 9.50926C4.7604 9.17712 5.06434 8.93214 5.42425 8.93214H6.92405C9.8704 8.93214 12.1774 7.81366 12.8514 4.57812C12.8714 4.48243 12.8887 4.38929 12.9037 4.2983C12.8186 4.2562 12.8186 4.2562 12.9037 4.2983C13.1043 3.10241 12.9023 2.28838 12.2102 1.55139Z" fill="#27346A"/>
<path d="M5.93619 3.8675C6.02248 3.8291 6.11685 3.8092 6.21242 3.80925H10.2204C10.695 3.80925 11.1377 3.83812 11.5422 3.89897C11.6554 3.91584 11.768 3.93598 11.8798 3.95936C12.0384 3.99206 12.1951 4.03208 12.3494 4.07927C12.5483 4.14135 12.7335 4.21364 12.9037 4.2983C13.1043 3.10195 12.9023 2.28838 12.2102 1.55139C11.448 0.739968 10.0716 0.39209 8.31009 0.39209H3.19736C2.83738 0.39209 2.53115 0.63702 2.47474 0.969111L0.34607 13.5864C0.303759 13.8356 0.509902 14.0606 0.779292 14.0606H3.93588L5.58038 4.31403C5.6132 4.11956 5.74624 3.9526 5.93619 3.8675Z" fill="#27346A"/>
<path d="M12.8513 4.57792C12.1774 7.813 9.87044 8.93194 6.92404 8.93194H5.42381C5.06389 8.93194 4.7599 9.17692 4.70398 9.50906L3.71787 15.3516C3.68102 15.5693 3.8612 15.7666 4.09692 15.7666H6.75748C7.07233 15.7665 7.34037 15.5525 7.38957 15.2618L7.41548 15.1351L7.91693 12.1649L7.94923 12.0008C7.99843 11.7101 8.26644 11.4961 8.58127 11.496H8.97946C11.5568 11.496 13.5748 10.5174 14.1646 7.68716C14.4107 6.50441 14.2834 5.51692 13.6322 4.82331C13.4347 4.61322 13.1894 4.43972 12.9037 4.2981C12.8882 4.38955 12.8714 4.48223 12.8513 4.57792Z" fill="#2790C3"/>
<path d="M12.1984 4.03537C12.0933 4.00669 11.9872 3.9813 11.8803 3.95924C11.7684 3.93624 11.6558 3.91624 11.5426 3.89926C11.1377 3.838 10.6953 3.80908 10.2203 3.80908H6.21283C6.11719 3.80888 6.02275 3.82895 5.93661 3.86779C5.74642 3.95264 5.61327 4.11972 5.58074 4.31432L4.72895 9.362L4.70435 9.50914C4.76038 9.177 5.06432 8.93202 5.42429 8.93202H6.92452C9.87087 8.93202 12.1779 7.81354 12.8518 4.578C12.8718 4.48231 12.8887 4.38958 12.9041 4.29818C12.7335 4.21398 12.5488 4.14123 12.3498 4.07956C12.2996 4.06401 12.2492 4.04927 12.1984 4.03537" fill="#1F264F"/>
</svg>
