<svg width="22" height="22" viewBox="0 0 22 22" fill="none" xmlns="http://www.w3.org/2000/svg">
<circle cx="11" cy="11" r="11" fill="#FFB967" fill-opacity="0.1"/>
<path d="M10.993 4.3335C7.31301 4.3335 4.33301 7.32016 4.33301 11.0002C4.33301 14.6802 7.31301 17.6668 10.993 17.6668C14.6797 17.6668 17.6663 14.6802 17.6663 11.0002C17.6663 7.32016 14.6797 4.3335 10.993 4.3335ZM10.9997 16.3335C8.05301 16.3335 5.66634 13.9468 5.66634 11.0002C5.66634 8.0535 8.05301 5.66683 10.9997 5.66683C13.9463 5.66683 16.333 8.0535 16.333 11.0002C16.333 13.9468 13.9463 16.3335 10.9997 16.3335ZM10.853 7.66683H10.813C10.5463 7.66683 10.333 7.88016 10.333 8.14683V11.2935C10.333 11.5268 10.453 11.7468 10.6597 11.8668L13.4263 13.5268C13.653 13.6602 13.9463 13.5935 14.0797 13.3668C14.2197 13.1402 14.1463 12.8402 13.913 12.7068L11.333 11.1735V8.14683C11.333 7.88016 11.1197 7.66683 10.853 7.66683Z" fill="#FFB967"/>
</svg>
