<svg width="14" height="14" viewBox="0 0 14 14" fill="none" xmlns="http://www.w3.org/2000/svg">
<path d="M7 0C3.13425 0 0 3.13425 0 7C0 10.8657 3.13425 14 7 14C10.8657 14 14 10.8657 14 7C14 3.13425 10.8657 0 7 0ZM7 10.6458C6.5975 10.6458 6.27083 10.3192 6.27083 9.91667C6.27083 9.51417 6.5975 9.1875 7 9.1875C7.40308 9.1875 7.72917 9.51417 7.72917 9.91667C7.72917 10.3192 7.40308 10.6458 7 10.6458ZM8.14392 7.18783C7.61658 7.75658 7.5915 8.071 7.5985 8.45833H6.42892C6.42483 7.59792 6.44058 7.21875 7.26367 6.43533C7.59792 6.118 7.86158 5.86658 7.82483 5.37308C7.791 4.9035 7.399 4.65792 7.02858 4.65792C6.615 4.65792 6.13142 4.96533 6.13142 5.83217H4.95892C4.95892 4.43217 5.78083 3.528 7.05308 3.528C7.65742 3.528 8.18592 3.72575 8.54058 4.08508C8.87308 4.42225 9.04517 4.88542 9.03875 5.42558C9.02942 6.23233 8.53883 6.762 8.14392 7.18783Z" fill="#E5E5E5"/>
</svg>
