<svg width="22" height="22" viewBox="0 0 22 22" fill="none" xmlns="http://www.w3.org/2000/svg">
<circle cx="11" cy="11" r="11" fill="#E5E5E5"/>
<path d="M10.9997 7.66683C11.3663 7.66683 11.6663 7.96683 11.6663 8.3335V11.0002C11.6663 11.3668 11.3663 11.6668 10.9997 11.6668C10.633 11.6668 10.333 11.3668 10.333 11.0002V8.3335C10.333 7.96683 10.633 7.66683 10.9997 7.66683ZM10.993 4.3335C7.31301 4.3335 4.33301 7.32016 4.33301 11.0002C4.33301 14.6802 7.31301 17.6668 10.993 17.6668C14.6797 17.6668 17.6663 14.6802 17.6663 11.0002C17.6663 7.32016 14.6797 4.3335 10.993 4.3335ZM10.9997 16.3335C8.05301 16.3335 5.66634 13.9468 5.66634 11.0002C5.66634 8.0535 8.05301 5.66683 10.9997 5.66683C13.9463 5.66683 16.333 8.0535 16.333 11.0002C16.333 13.9468 13.9463 16.3335 10.9997 16.3335ZM11.6663 14.3335H10.333V13.0002H11.6663V14.3335Z" fill="#828489"/>
</svg>
