<svg width="46" height="38" viewBox="0 0 46 38" fill="none" xmlns="http://www.w3.org/2000/svg">
<rect x="0.5" y="0.5" width="45" height="37" rx="3.5" fill="white"/>
<path d="M22 25H24C24.55 25 25 24.55 25 24C25 23.45 24.55 23 24 23H22C21.45 23 21 23.45 21 24C21 24.55 21.45 25 22 25ZM14 14C14 14.55 14.45 15 15 15H31C31.55 15 32 14.55 32 14C32 13.45 31.55 13 31 13H15C14.45 13 14 13.45 14 14ZM18 20H28C28.55 20 29 19.55 29 19C29 18.45 28.55 18 28 18H18C17.45 18 17 18.45 17 19C17 19.55 17.45 20 18 20Z" fill="#828489"/>
<rect x="0.5" y="0.5" width="45" height="37" rx="3.5" stroke="#E2EEF8"/>
</svg>
