<svg width="18" height="18" viewBox="0 0 18 18" fill="none" xmlns="http://www.w3.org/2000/svg">
<path opacity="0.5" d="M13.3873 10.9999H12.5973L12.3173 10.7299C13.5173 9.32989 14.1373 7.41989 13.7973 5.38989C13.3273 2.60989 11.0073 0.389893 8.20734 0.0498932C3.97734 -0.470107 0.417344 3.08989 0.937344 7.31989C1.27734 10.1199 3.49734 12.4399 6.27734 12.9099C8.30734 13.2499 10.2173 12.6299 11.6173 11.4299L11.8873 11.7099V12.4999L16.1373 16.7499C16.5473 17.1599 17.2173 17.1599 17.6273 16.7499C18.0373 16.3399 18.0373 15.6699 17.6273 15.2599L13.3873 10.9999ZM7.38734 10.9999C4.89734 10.9999 2.88734 8.98989 2.88734 6.49989C2.88734 4.00989 4.89734 1.99989 7.38734 1.99989C9.87734 1.99989 11.8873 4.00989 11.8873 6.49989C11.8873 8.98989 9.87734 10.9999 7.38734 10.9999Z" fill="#828489"/>
</svg>
