<svg width="513" height="523" viewBox="0 0 513 523" fill="none" xmlns="http://www.w3.org/2000/svg">
<path d="M26.175 496.473H194.888" stroke="#2D2D2D" stroke-width="2" stroke-linecap="round" stroke-linejoin="round"/>
<path d="M223.55 496.34H503.784" stroke="#2D2D2D" stroke-width="2" stroke-linecap="round" stroke-linejoin="round"/>
<path d="M1 474.495H344.027" stroke="#2D2D2D" stroke-width="2" stroke-linecap="round" stroke-linejoin="round"/>
<rect width="14.248" height="337.955" rx="7.12401" transform="matrix(0.963282 0.268492 -0.302375 0.953189 248.193 172.111)" fill="white" stroke="#2D2D2D" stroke-width="2" stroke-linecap="round" stroke-linejoin="round"/>
<rect width="14.248" height="337.955" rx="7.12401" transform="matrix(-0.963282 0.268492 -0.302375 -0.953189 433.742 494.267)" fill="white" stroke="#2D2D2D" stroke-width="2" stroke-linecap="round" stroke-linejoin="round"/>
<rect x="282.951" y="286.773" width="13.8912" height="187.722" rx="6.94558" fill="#2D2D2D"/>
<rect x="142.477" y="151.174" width="294.833" height="197.208" rx="34.65" fill="white" stroke="#2D2D2D" stroke-width="2" stroke-linecap="round" stroke-linejoin="round"/>
<path d="M161.209 289.456L183.201 273.496L200.703 278.284L226.62 259.646" stroke="#2D2D2D" stroke-width="2" stroke-linecap="round" stroke-linejoin="round"/>
<path d="M226.62 265.079V259.646H220.479" stroke="#2D2D2D" stroke-width="2" stroke-linecap="round" stroke-linejoin="round"/>
<rect x="169.791" y="302.344" width="9.41915" height="25.001" fill="#2D2D2D"/>
<rect x="184.531" y="289.006" width="9.41915" height="38.3393" fill="#2D2D2D"/>
<rect x="199.271" y="291.973" width="9.41915" height="35.3722" fill="#2D2D2D"/>
<rect x="214.012" y="277.532" width="9.41915" height="49.8127" fill="#4ABA8E"/>
<path d="M299.242 239.766C309.276 233.432 315.287 222.831 315.277 211.492H280.142L299.242 239.766Z" fill="#4ABA8E"/>
<path d="M278.241 245.695C258.09 245.692 241.756 230.377 241.759 211.488C241.761 192.599 258.098 177.288 278.249 177.289C298.401 177.29 314.736 192.603 314.736 211.492C314.736 211.799 314.47 212.049 314.142 212.049H280.534L298.808 239.098C298.978 239.353 298.902 239.688 298.636 239.855C292.616 243.674 285.51 245.709 278.241 245.695Z" fill="white"/>
<path fill-rule="evenodd" clip-rule="evenodd" d="M243.114 200.364C248.205 186.241 262.338 176.734 278.242 176.732H278.247C298.718 176.754 315.307 192.304 315.33 211.492C315.33 212.107 314.798 212.605 314.142 212.605H281.609L299.307 238.798C299.652 239.307 299.502 239.98 298.968 240.317C285.78 248.648 268.392 248.169 255.749 239.125C243.106 230.081 238.023 214.487 243.114 200.364ZM303.627 187.698C296.894 181.388 287.763 177.844 278.242 177.845C262.847 177.848 249.169 187.052 244.242 200.723C239.315 214.394 244.236 229.488 256.475 238.241C268.713 246.994 285.544 247.458 298.309 239.393L279.459 211.492H314.143C314.143 202.567 310.36 194.008 303.627 187.698Z" fill="#2D2D2D"/>
<path d="M279.453 177.873V211.492H314.142C314.137 193.353 298.793 178.483 279.453 177.873Z" fill="#2D2D2D"/>
<path d="M301.706 186.046H375.379" stroke="#2D2D2D" stroke-width="2" stroke-linecap="round" stroke-linejoin="round"/>
<path d="M353.28 190.855H375.379" stroke="#2D2D2D" stroke-width="2" stroke-linecap="round" stroke-linejoin="round"/>
<path d="M308.31 230.781H351.736" stroke="#2D2D2D" stroke-width="2" stroke-linecap="round" stroke-linejoin="round"/>
<path d="M351.736 235.24H336.318" stroke="#2D2D2D" stroke-width="2" stroke-linecap="round" stroke-linejoin="round"/>
<path d="M265.912 226.612H176.483" stroke="#2D2D2D" stroke-width="2" stroke-linecap="round" stroke-linejoin="round"/>
<path d="M176.483 232.858H205.519" stroke="#2D2D2D" stroke-width="2" stroke-linecap="round" stroke-linejoin="round"/>
<path d="M176.483 238.491H189.591" stroke="#2D2D2D" stroke-width="2" stroke-linecap="round" stroke-linejoin="round"/>
<rect x="240.75" y="277.532" width="19.7173" height="18.4821" fill="white" stroke="#2D2D2D" stroke-width="2" stroke-linecap="round" stroke-linejoin="round"/>
<rect x="274.625" y="277.532" width="19.7173" height="18.4821" fill="white" stroke="#2D2D2D" stroke-width="2" stroke-linecap="round" stroke-linejoin="round"/>
<rect x="308.5" y="277.532" width="19.7173" height="18.4821" fill="#4992FF"/>
<rect x="342.382" y="277.532" width="19.7173" height="18.4821" fill="white" stroke="#2D2D2D" stroke-width="2" stroke-linecap="round" stroke-linejoin="round"/>
<path d="M240.749 306.458H362.265" stroke="#2D2D2D" stroke-width="2" stroke-linecap="round" stroke-linejoin="round"/>
<path d="M240.749 316.901H362.265" stroke="#2D2D2D" stroke-width="2" stroke-linecap="round" stroke-linejoin="round"/>
<path d="M240.749 327.345H294.342" stroke="#2D2D2D" stroke-width="2" stroke-linecap="round" stroke-linejoin="round"/>
<path d="M88.7418 299.989C90.2087 310.778 72.778 338.289 72.778 338.289C72.778 338.289 48.5352 315.76 47.0624 304.977C46.1076 297.998 49.1973 291.072 55.1678 286.807C61.1382 282.543 69.0823 281.588 76.0075 284.302C82.9327 287.017 87.787 292.988 88.7418 299.967V299.989Z" fill="#4ABA8E"/>
<path d="M117.338 329.75C114.808 339.453 90.2442 357.64 90.2442 357.64C90.2442 357.64 77.3805 330.863 79.9104 321.171C81.4793 314.833 86.5617 309.775 93.2171 307.929C99.8726 306.082 107.073 307.731 112.07 312.247C117.067 316.763 119.088 323.448 117.361 329.75H117.338Z" fill="#4ABA8E"/>
<path d="M69.3274 297.668L79.964 413.181L69.3274 297.668Z" fill="white"/>
<path d="M69.3274 297.668L79.964 413.181" stroke="#2D2D2D" stroke-width="2" stroke-linecap="round" stroke-linejoin="round"/>
<path d="M41.1175 315.899C49.9072 320.425 61.5593 345.838 61.5593 345.838C61.5593 345.838 32.4586 350.258 23.6392 345.738C14.8489 341.214 11.6356 330.867 16.462 322.627C21.2885 314.387 32.3272 311.375 41.1175 315.899Z" fill="#4ABA8E"/>
<path d="M74.108 354.333L26.4243 325.263L74.108 354.333Z" fill="white"/>
<path d="M74.108 354.333L26.4243 325.263" stroke="#2D2D2D" stroke-width="2" stroke-linecap="round" stroke-linejoin="round"/>
<path d="M71.0674 432.242L103.541 310.316L71.0674 432.242Z" fill="white"/>
<path d="M71.0674 432.242L103.541 310.316" stroke="#2D2D2D" stroke-width="2" stroke-linecap="round" stroke-linejoin="round"/>
<path d="M42.2397 334.905L42.893 320.754L42.2397 334.905Z" fill="white"/>
<path d="M42.2397 334.905L42.893 320.754" stroke="#2D2D2D" stroke-width="2" stroke-linecap="round" stroke-linejoin="round"/>
<path d="M52.7221 341.546L26.175 341.841L52.7221 341.546Z" fill="white"/>
<path d="M52.7221 341.546L26.175 341.841" stroke="#2D2D2D" stroke-width="2" stroke-linecap="round" stroke-linejoin="round"/>
<path d="M61.9157 366.53C66.6252 371.741 67.4983 391.821 67.4983 391.821C67.4983 391.821 46.5041 387.74 41.7946 382.53C37.0812 377.322 37.7646 369.518 43.3209 365.1C48.8772 360.682 57.2023 361.322 61.9157 366.53Z" fill="#4ABA8E"/>
<path d="M73.6629 400.639L49.3489 369.314L73.6629 400.639Z" fill="white"/>
<path d="M73.6629 400.639L49.3489 369.314" stroke="#2D2D2D" stroke-width="2" stroke-linecap="round" stroke-linejoin="round"/>
<path d="M57.4138 379.702L61.773 370.255L57.4138 379.702Z" fill="white"/>
<path d="M57.4138 379.702L61.773 370.255" stroke="#2D2D2D" stroke-width="2" stroke-linecap="round" stroke-linejoin="round"/>
<path d="M62.6875 386.761L44.5916 380.503L62.6875 386.761Z" fill="white"/>
<path d="M62.6875 386.761L44.5916 380.503" stroke="#2D2D2D" stroke-width="2" stroke-linecap="round" stroke-linejoin="round"/>
<path d="M85.1248 327.44L95.6307 340.032L85.1248 327.44Z" fill="white"/>
<path d="M85.1248 327.44L95.6307 340.032" stroke="#2D2D2D" stroke-width="2" stroke-linecap="round" stroke-linejoin="round"/>
<path d="M98.054 330.913L115.057 325.842L98.054 330.913Z" fill="white"/>
<path d="M98.054 330.913L115.057 325.842" stroke="#2D2D2D" stroke-width="2" stroke-linecap="round" stroke-linejoin="round"/>
<path d="M95.5002 314.396L100.922 320.147L95.5002 314.396Z" fill="white"/>
<path d="M95.5002 314.396L100.922 320.147" stroke="#2D2D2D" stroke-width="2" stroke-linecap="round" stroke-linejoin="round"/>
<path d="M71.7981 324.506L58.3879 318.544L71.7981 324.506Z" fill="white"/>
<path d="M71.7981 324.506L58.3879 318.544" stroke="#2D2D2D" stroke-width="2" stroke-linecap="round" stroke-linejoin="round"/>
<path d="M70.7646 313.294L82.7078 301.542L70.7646 313.294Z" fill="white"/>
<path d="M70.7646 313.294L82.7078 301.542" stroke="#2D2D2D" stroke-width="2" stroke-linecap="round" stroke-linejoin="round"/>
<path d="M42.3943 398.178H110.977C111.756 398.179 112.496 398.496 113.006 399.049C113.515 399.601 113.744 400.334 113.632 401.056L100.026 489.826C99.4385 493.64 95.9527 496.471 91.8419 496.473H61.5533C57.4424 496.471 53.9567 493.64 53.3695 489.826L39.7634 401.056C39.6539 400.338 39.88 399.61 40.3837 399.059C40.8875 398.508 41.6201 398.187 42.3943 398.178Z" fill="white" stroke="#2D2D2D" stroke-width="2" stroke-linecap="round" stroke-linejoin="round"/>
<path d="M41.5927 413.181H111.773L113.632 401.056C113.744 400.334 113.516 399.601 113.006 399.049C112.497 398.496 111.756 398.179 110.977 398.178H42.3944C41.6151 398.179 40.8743 398.497 40.364 399.049C39.8536 399.601 39.6237 400.333 39.7338 401.056L41.5927 413.181Z" fill="#2D2D2D"/>
<rect x="407.562" y="119.593" width="127.669" height="102.643" rx="21.29" transform="rotate(-180 407.562 119.593)" fill="white" stroke="#2D2D2D" stroke-width="2" stroke-linecap="round" stroke-linejoin="round"/>
<path d="M338.545 49.6228L375.634 41.9628C375.634 41.9628 376.893 14.8352 358.809 4.49744C340.024 -6.25226 326.02 5.64422 326.02 5.64422C326.02 5.64422 316.322 4.88156 316.743 18.103C317.165 31.3244 338.545 49.6228 338.545 49.6228Z" fill="#2D2D2D"/>
<path d="M311.713 83.0856C311.713 83.0856 297.329 98.7509 280.831 90.7791C264.332 82.8073 253.512 75.3142 252.781 75.0637C252.051 74.8132 248.368 76.4499 247.763 75.8041C247.157 75.1583 251.374 71.5231 251.374 71.5231C251.374 71.5231 243.267 70.2706 243.124 69.5859C242.982 68.9011 250.358 68.6339 250.358 68.6339C250.358 68.6339 244.55 67.7098 244.419 66.8191C244.288 65.9284 253.072 65.6278 253.072 65.6278C253.072 65.6278 247.959 63.312 247.917 62.5938C247.876 61.8757 280.504 73.3881 287.518 76.2328L300.031 69.7195L311.713 83.0856Z" fill="white" stroke="#2D2D2D" stroke-width="2" stroke-linecap="round" stroke-linejoin="round"/>
<path d="M309.064 89.4987C309.064 89.4987 323.947 82.8184 332.078 73.2489C338.26 66.0119 332.357 50.1072 318.644 55.4793C303.351 61.4693 292.239 68.4446 292.946 71.7736C294.086 77.1123 300.964 87.7507 305.062 89.9607C306.529 90.7512 309.064 89.4987 309.064 89.4987Z" fill="#4992FF"/>
<path d="M288.765 80.5359C288.765 80.5359 289.127 78.7434 287.53 76.2327" stroke="#2D2D2D" stroke-width="2" stroke-linecap="round" stroke-linejoin="round"/>
<path d="M377.232 68.9846C376.727 56.7374 357.906 54.4549 357.906 54.4549L328.598 53.2636C328.598 53.2636 306.576 52.9741 309.552 75.8152C310.668 84.3492 314.653 119.031 314.653 119.031H373.449C373.449 119.031 378.081 89.6879 377.232 68.9846Z" fill="#4992FF"/>
<path d="M352.538 50.0905L351.516 33.2728L334.596 34.4586V48.6765C334.595 51.0759 332.712 53.1093 330.178 53.4473L328.699 53.6422C328.699 53.6422 330.219 62.4824 341.919 62.4824C355.127 62.4824 357.829 54.8335 357.829 54.8335L356.344 54.4605C354.202 53.9276 352.666 52.1651 352.538 50.0905Z" fill="white" stroke="#2D2D2D" stroke-width="2"/>
<path d="M310.585 84.2156L309.278 65.5999" stroke="white" stroke-width="2" stroke-linecap="round" stroke-linejoin="round"/>
<path d="M356.374 105.119L357.312 86.3644L378.057 86.4758C378.057 86.4758 378.514 94.4866 378.651 100.315C378.787 106.144 378.574 115.902 361.392 121.18C346.349 125.784 333.794 128.623 333.794 128.623C333.794 128.623 328.229 135.153 327.362 135.225C326.495 135.298 329.144 128.306 329.144 128.306C329.144 128.306 324.85 134.986 324.47 134.518C324.09 134.051 326.614 127.76 326.614 127.76C326.614 127.76 323.413 133.032 321.483 133.26C319.552 133.488 324.333 125.466 324.333 125.466C324.333 125.466 318.656 128.205 317.492 127.693C316.328 127.181 325.301 121.542 326.216 121.286C327.131 121.03 356.374 105.119 356.374 105.119Z" fill="white" stroke="#2D2D2D" stroke-width="2" stroke-linecap="round" stroke-linejoin="round"/>
<path d="M381.507 94.2639C381.507 94.2639 383.681 68.5615 373.549 60.8625C363.417 53.1634 356.873 62.2542 355.186 77.7079C353.499 93.1617 353.589 94.932 357.021 96.0175C362.521 97.7599 376.673 97.9325 379.827 96.2402C380.659 95.8328 381.269 95.1152 381.507 94.2639Z" fill="#4992FF"/>
<path d="M363.845 105.342C363.845 105.342 360.977 103.705 356.374 105.119" stroke="#2D2D2D" stroke-width="2" stroke-linecap="round" stroke-linejoin="round"/>
<path d="M356.065 72.1409L353.891 89.1812" stroke="white" stroke-width="2" stroke-linecap="round" stroke-linejoin="round"/>
<path d="M352.87 22.9072C352.87 22.9072 359.004 19.0103 361.119 24.4047C362.247 27.2661 360.151 33.1559 354.526 32.0202C353.933 36.4125 351.385 42.6419 344.858 45.8094C332.659 51.7215 320.556 43.733 320.764 32.2986C320.88 25.4569 322.466 18.7073 325.426 12.4525C325.426 12.4525 329.541 22.6956 352.87 22.9072Z" fill="white" stroke="#2D2D2D" stroke-width="2"/>
<ellipse cx="340.006" cy="28.1846" rx="1.3125" ry="1.23029" fill="#2D2D2D"/>
<ellipse cx="327.261" cy="26.9489" rx="1.3125" ry="1.23029" fill="#2D2D2D"/>
<path d="M333.147 27.3049C332.896 28.2455 332.345 29.0921 331.568 29.7321C330.38 30.6228 329.192 31.4022 331.71 33.8628" stroke="#2D2D2D" stroke-width="2" stroke-linecap="round" stroke-linejoin="round"/>
<path d="M330.7 21.3708C330.7 21.3708 328.479 19.9457 326.263 21.137" stroke="#2D2D2D" stroke-width="2" stroke-linecap="round" stroke-linejoin="round"/>
<path d="M343.724 22.9072C343.724 22.9072 341.509 21.4877 339.293 22.679" stroke="#2D2D2D" stroke-width="2" stroke-linecap="round" stroke-linejoin="round"/>
<ellipse cx="342.31" cy="35.5998" rx="2.72003" ry="2.54965" fill="#FFB967"/>
<ellipse cx="321.97" cy="34.3361" rx="3.10012" ry="2.90593" fill="#FFB967"/>
<path d="M331.674 41.5396C331.674 41.5396 335.903 41.5396 337.381 38.5391" stroke="#2D2D2D" stroke-width="2" stroke-linecap="round" stroke-linejoin="round"/>
<path d="M351.765 25.2341C351.765 25.2341 352.133 23.4193 353.487 22.5565" stroke="#2D2D2D" stroke-width="2" stroke-linecap="round" stroke-linejoin="round"/>
<path d="M358.28 25.0227C356.018 24.9464 354.089 26.5444 353.891 28.6579" stroke="#2D2D2D" stroke-width="2" stroke-linecap="round" stroke-linejoin="round"/>
<path d="M357.633 26.9488C356.666 26.4144 355.465 26.4144 354.497 26.9488" stroke="#2D2D2D" stroke-width="2" stroke-linecap="round" stroke-linejoin="round"/>
<rect x="40.6304" y="95.5332" width="125.84" height="101.173" rx="20.98" fill="white" stroke="#2D2D2D" stroke-width="2" stroke-linecap="round" stroke-linejoin="round"/>
<path d="M98.9746 103.048C93.9562 102.87 87.0195 96.9249 84.5252 87.2273C78.5863 64.1191 94.8471 56.0526 109.694 56.1973C120.355 56.2864 124.969 58.9808 127.137 65.6945C129.376 69.647 130.409 77.3405 127.731 84.2267C125.795 89.1813 122.736 103.884 98.9746 103.048Z" fill="#2D2D2D"/>
<path d="M139.235 115.813C133.51 113.91 126.537 113.67 123.069 124.164C119.601 134.657 161.351 159.759 170.854 165.403C181.971 172.006 189.787 162.37 189.128 156.168C188.065 146.131 144.96 117.717 139.235 115.813Z" fill="white" stroke="#2D2D2D" stroke-width="2" stroke-linecap="round" stroke-linejoin="round"/>
<path d="M154.735 124.136C154.735 124.136 137.512 111.638 127.796 112.835C116.993 114.166 111.809 125.689 121.032 133.989C130.255 142.29 138.029 146.66 140.5 147.534C144.128 148.814 150.893 143.386 155.098 136.4C159.302 129.413 158.269 126.674 154.735 124.136Z" fill="#AD90FF"/>
<path d="M64.303 128.784C62.8955 113.408 89.4722 111.527 89.4722 111.527L121.78 110.347C126.006 110.727 130.157 111.643 134.121 113.069C140.998 115.652 143.368 116.515 142.756 129.77C142.37 138.165 136.883 183.101 136.164 190.109C135.82 193.45 133.195 196.294 128.176 196.294H76.8579C73.2471 196.294 70.7468 193.733 70.1707 188.896C68.6503 176.075 66.4113 151.848 64.303 128.784Z" fill="#AD90FF"/>
<path d="M95.411 106.756L96.5988 88.2405L115.241 89.6211L115.188 105.286C115.176 107.928 117.239 110.176 120.028 110.558L121.655 110.786C121.655 110.786 124.625 122.332 107.23 122.26C92.6732 122.199 89.5493 111.956 89.5493 111.956L91.1885 111.555C93.5547 110.979 95.2583 109.043 95.411 106.756Z" fill="white" stroke="#2D2D2D" stroke-width="2"/>
<path d="M142.507 132.269C142.507 132.269 140.992 149.349 140.208 154.164" stroke="white" stroke-width="2" stroke-linecap="round" stroke-linejoin="round"/>
<path d="M126.864 88.3852C126.864 88.3852 130.653 87.8285 131.187 82.4787C131.662 77.7079 127.535 77.4685 125.296 79.1386L126.864 88.3852Z" fill="white" stroke="#2D2D2D" stroke-width="2"/>
<path d="M97.0564 82.6792C97.0564 82.6792 90.3276 75.6092 87.5897 81.0815C85.808 84.6387 88.0945 91.3023 94.0513 90.3727C94.4314 94.9821 96.9376 100.282 103.257 104.362C112.426 110.285 126.365 108.944 128.016 91.23C129.121 79.3335 125.415 71.2726 125.415 71.2726C125.415 71.2726 120.218 74.3901 105.603 74.3901C101.736 74.3901 102.235 82.1615 97.0564 82.6792Z" fill="white" stroke="#2D2D2D" stroke-width="2"/>
<path d="M117.652 86.9155L119.28 93.1393C119.419 93.6613 119.262 94.2139 118.863 94.6011C118.465 94.9884 117.881 95.1555 117.32 95.0432C117.029 94.9786 116.744 94.8891 116.47 94.776" stroke="#2D2D2D" stroke-width="2" stroke-linecap="round" stroke-linejoin="round"/>
<path d="M120.016 82.9297C120.016 82.9297 121.887 82.501 124.607 82.0835" stroke="#2D2D2D" stroke-width="5" stroke-linecap="round" stroke-linejoin="round"/>
<path d="M106.345 83.9317L110.977 83.8871" stroke="#2D2D2D" stroke-width="5" stroke-linecap="round" stroke-linejoin="round"/>
<ellipse cx="106.749" cy="96.769" rx="2.83881" ry="2.66098" fill="#FFB967"/>
<ellipse cx="126.882" cy="95.0933" rx="3.23672" ry="3.03397" fill="#FFB967"/>
<path d="M117.563 103.449C117.563 103.449 113.151 103.26 111.767 100.065" stroke="#2D2D2D" stroke-width="2" stroke-linecap="round" stroke-linejoin="round"/>
<ellipse cx="110.977" cy="89.0644" rx="1.41347" ry="1.32493" fill="#2D2D2D"/>
<ellipse cx="123.645" cy="88.3741" rx="1.41347" ry="1.32493" fill="#2D2D2D"/>
<path d="M97.6265 84.3269C97.2045 83.2118 96.4897 82.2143 95.5479 81.4266" stroke="#2D2D2D" stroke-width="2" stroke-linecap="round" stroke-linejoin="round"/>
<path d="M90.4641 82.9018C92.8265 82.9292 94.7551 84.6808 94.8589 86.8933" stroke="#2D2D2D" stroke-width="2" stroke-linecap="round" stroke-linejoin="round"/>
<path d="M91.0403 84.9449C92.0742 84.4272 93.3272 84.4806 94.3067 85.084" stroke="#2D2D2D" stroke-width="2" stroke-linecap="round" stroke-linejoin="round"/>
<path d="M83.3732 75.6537L93.612 76.1603C93.612 76.1603 96.8012 65.1712 113.953 64.197C127.909 63.4121 128.972 71.2336 128.972 71.2336C128.972 71.2336 129.566 57.0101 114.392 54.9615C97.3713 52.6624 82.2211 59.9049 83.3732 75.6537Z" fill="#4ABA8E"/>
<path d="M120.242 64.5755C120.242 64.5755 128.337 64.7258 129.275 73.8555C129.275 73.8555 131.176 73.3935 132.067 72.1855C133.682 70.0144 134.864 65.0042 120.242 64.5755Z" fill="white" stroke="#2D2D2D" stroke-width="2" stroke-linecap="round" stroke-linejoin="round"/>
<path d="M93.6118 76.138C93.6118 76.138 102.265 76.8506 104.248 76.8784C105.436 76.8784 108.649 77.6188 110.033 74.2676C112.373 68.6116 124.548 61.7197 132.476 68.0048C132.476 68.0048 126.424 60.5841 113.335 62.6828C100.246 64.7815 96.1121 70.766 93.6118 76.138Z" fill="white" stroke="#2D2D2D" stroke-width="2" stroke-linecap="round" stroke-linejoin="round"/>
<path d="M88.237 75.893C88.237 75.893 86.3722 58.5688 107.592 54.1821" stroke="#2D2D2D" stroke-width="2" stroke-linecap="round" stroke-linejoin="round"/>
<path d="M150.435 162.475H100.934C100.017 162.497 99.1398 162.12 98.5591 161.454C97.9783 160.787 97.759 159.907 97.9649 159.068L103.963 127.181C104.372 125.252 106.142 123.839 108.239 123.769H157.74C158.659 123.746 159.537 124.124 160.118 124.792C160.699 125.459 160.918 126.342 160.71 127.181L154.711 159.085C154.295 161.007 152.526 162.409 150.435 162.475Z" fill="#2D2D2D"/>
<path d="M134.863 144.355C134.11 144.381 133.387 144.075 132.908 143.529C132.429 142.984 132.25 142.259 132.422 141.571C132.541 140.979 132.831 140.429 133.26 139.979C132.66 139.716 132.004 139.581 131.341 139.584C128.481 139.681 126.065 141.607 125.503 144.238C125.22 145.388 125.524 146.596 126.324 147.506C127.125 148.417 128.331 148.927 129.589 148.886C132.424 148.793 134.825 146.9 135.41 144.299C135.229 144.332 135.047 144.351 134.863 144.355Z" fill="white" stroke="#2D2D2D" stroke-width="2" stroke-linecap="round" stroke-linejoin="round"/>
<path d="M182.69 148.508C192.786 153.384 191.064 166.378 181.294 168.131C168.377 170.453 139.098 141.343 139.098 141.343C139.098 141.343 129.441 139.812 128.254 138.387C127.066 136.962 134.786 137.547 134.786 137.547C134.786 137.547 124.637 137.625 124.607 135.877C124.577 134.129 133.118 134.541 133.118 134.541C133.118 134.541 122.956 134.218 122.534 132.136C122.113 130.054 133.07 131.25 133.07 131.25C133.07 131.25 123.449 126.858 123.894 125.183C124.34 123.507 166.756 140.809 182.69 148.508Z" fill="white" stroke="#2D2D2D" stroke-width="2" stroke-linecap="round" stroke-linejoin="round"/>
<path d="M60.1698 154.498C60.1698 154.498 57.6874 166.289 58.0556 173.982C58.4238 181.676 63.7807 190.315 80.6235 185.116C96.9615 180.072 120.973 168.972 122.974 168.538C124.975 168.103 133.664 168.922 136.556 167.424C139.449 165.927 142.234 161.679 140.922 160.538C140.922 160.538 138.16 163.572 134.763 164.396C134.763 164.396 141.462 162.086 141.812 158.384C141.812 158.384 137.008 161.557 133.391 161.724C133.391 161.724 143.974 158.768 142.739 155.979C141.599 153.407 138.487 156.636 133.237 157.649C127.494 158.729 128.539 157.153 133.492 155.544C135.493 154.899 135.553 152.204 132.441 152.594C127.648 153.201 82.037 165.955 82.037 165.955L84.6442 153.757L60.1698 154.498Z" fill="white" stroke="#2D2D2D" stroke-width="2" stroke-linecap="round" stroke-linejoin="round"/>
<path d="M85.9684 158.306C85.9684 158.306 92.8041 129.168 87.1562 121.664C80.4571 112.757 67.5102 115.385 63.0679 126.613C58.6255 137.842 55.9115 152.588 56.0421 155.06C56.2322 158.69 65.2356 161.657 73.758 161.707C82.2803 161.757 84.8994 162.353 85.9684 158.306Z" fill="#AD90FF"/>
<path d="M76.2346 171.889C76.2346 171.889 78.0638 167.959 82.037 165.921" stroke="#2D2D2D" stroke-width="2" stroke-linecap="round" stroke-linejoin="round"/>
<path d="M88.9141 137.647L86.5444 155.667" stroke="white" stroke-width="2" stroke-linecap="round" stroke-linejoin="round"/>
<ellipse rx="8.98026" ry="3.45041" transform="matrix(0.524436 -0.85145 0.87947 0.475955 390.944 264.504)" fill="white" stroke="#2D2D2D" stroke-width="2" stroke-linecap="round" stroke-linejoin="round"/>
<path d="M399.378 261.705C395.37 259.379 391.57 256.75 388.017 253.845C385.291 251.618 382.975 247.432 380.367 245.968C378.152 244.721 376.026 246.558 376.026 246.558C376.026 246.558 372.956 244.648 372.219 244.331C369.57 243.184 356.321 243.902 354.996 246.229C353.933 248.1 357.247 249.319 364.974 248.456C364.974 248.456 362.515 250.538 364.38 252.498C363.734 253.033 363.391 253.82 363.454 254.626C363.517 255.433 363.978 256.165 364.701 256.606C364.353 257.912 364.971 259.275 366.215 259.946C368.4 261.199 373.395 261.149 375.889 262.557C378.384 263.966 390.369 271.13 390.369 271.13L399.378 261.705Z" fill="white" stroke="#2D2D2D" stroke-width="2" stroke-linecap="round" stroke-linejoin="round"/>
<path d="M376.026 246.558C376.026 246.558 371.922 250.622 372.166 252.297C372.35 253.578 375.005 254.418 378.319 251.128C378.319 251.128 376.323 255.487 380.385 258.365" stroke="#2D2D2D" stroke-width="2" stroke-linecap="round" stroke-linejoin="round"/>
<rect width="2.63958" height="58.6781" rx="1.31979" transform="matrix(0.957479 -0.288502 0.324387 0.945924 354.16 207.975)" fill="white" stroke="#2D2D2D" stroke-width="2" stroke-linecap="round" stroke-linejoin="round"/>
<path d="M414.029 266.738C414.029 266.738 430.902 237.54 433.515 234.478C437.595 229.657 455.412 232.145 450.987 246.836C447.56 258.176 432.707 282.259 428.17 286.061C423.632 289.863 415.068 290.464 407.829 286.389C400.589 282.314 385.783 272.388 385.783 272.388C385.783 272.388 388.106 272.572 390.927 269.8C394.336 266.46 398.172 259.69 395.856 256.589L414.029 266.738Z" fill="#4ABA8E"/>
<path d="M364.362 252.526C364.362 252.526 372.73 253.912 374.351 253.572C375.61 253.311 376.994 251.217 373.793 250.282C371.016 249.542 368.194 248.96 365.342 248.54C362.937 248.156 361.464 251.646 364.362 252.526Z" fill="white" stroke="#2D2D2D" stroke-width="2" stroke-linecap="round" stroke-linejoin="round"/>
<path d="M364.665 256.506C364.665 256.506 371.94 257.836 373.532 257.508C374.773 257.246 376.133 255.187 372.979 254.268C369.826 253.35 366.595 252.787 365.259 252.52C362.842 252.052 361.862 255.693 364.665 256.506Z" fill="white" stroke="#2D2D2D" stroke-width="2" stroke-linecap="round" stroke-linejoin="round"/>
<path d="M365.686 260.069C367.23 260.503 371.097 260.865 372.415 260.625C373.448 260.436 374.63 258.772 372.053 257.937C369.894 257.278 367.666 256.84 365.407 256.628C363.869 256.456 363.15 259.362 365.686 260.069Z" fill="white" stroke="#2D2D2D" stroke-width="2" stroke-linecap="round" stroke-linejoin="round"/>
<path d="M445.939 202.974C445.939 202.974 435.701 190.093 447.626 184.392C447.626 184.392 452.3 176.821 467.224 177.979C480.67 179.026 494.579 190.599 488.979 209.054C479.292 241.052 432.921 221.991 445.939 202.974Z" fill="#2D2D2D"/>
<ellipse cx="488.064" cy="177.862" rx="11.9076" ry="11.1617" fill="#2D2D2D"/>
<path d="M449.936 500.982C449.936 500.982 460.359 510.168 453.499 516.147C446.64 522.126 407.924 524.308 404.657 520.517C401.136 516.431 427.991 505.141 434.055 502.658L449.936 500.982Z" fill="#2D2D2D"/>
<path d="M432.208 474.122C432.208 474.122 435.124 501.678 434.073 502.658C433.022 503.638 418.554 510.168 418.554 510.168C418.554 510.168 451.723 510.897 451.723 503.315V474.122H432.208Z" fill="white" stroke="#2D2D2D" stroke-width="2" stroke-linecap="round" stroke-linejoin="round"/>
<path d="M432.755 313.483C432.755 313.483 418.863 325.536 418.602 379.234C418.364 426.82 427.374 469.663 428.888 478.826C429.069 480.051 429.873 481.118 431.044 481.688C432.909 482.556 436.217 483.636 441.14 483.636C446.408 483.636 449.989 482.628 452.074 481.777C453.464 481.176 454.381 479.898 454.449 478.464L465.923 313.483L432.755 313.483Z" fill="#2D2D2D"/>
<path d="M493.86 500.982C493.86 500.982 504.283 510.168 497.424 516.147C490.564 522.125 451.854 524.308 448.588 520.517C445.06 516.431 471.916 505.141 477.98 502.658L493.86 500.982Z" fill="#2D2D2D"/>
<path d="M476.133 474.122C476.133 474.122 479.049 501.678 477.998 502.658C476.946 503.638 462.479 510.168 462.479 510.168C462.479 510.168 495.648 510.897 495.648 503.315V474.122H476.133Z" fill="white" stroke="#2D2D2D" stroke-width="2" stroke-linecap="round" stroke-linejoin="round"/>
<path d="M455.554 313.483L472.029 477.562C472.165 479.535 473.508 481.255 475.473 481.971C478.937 483.106 482.584 483.671 486.253 483.642C490.088 483.688 493.903 483.123 497.537 481.971C499.51 481.258 500.861 479.535 500.999 477.557C502.893 457.143 515.252 353.766 492.275 311.318L455.554 313.483Z" fill="#2D2D2D"/>
<path d="M448.285 340.644L460.514 354.294L462.83 378.934" stroke="white" stroke-width="2" stroke-linecap="round" stroke-linejoin="round"/>
<path d="M504.557 247.721C506.03 232.997 481.692 230.865 481.692 230.865L449.622 229.657C445.607 229.645 441.623 230.314 437.862 231.633C431.252 234.055 433.402 235.986 429.37 248.139C419.998 276.346 444.942 269.109 426.02 321.856C424.921 324.918 429.233 327 434.335 328.102C451.979 331.899 475.771 332.071 493.041 328.414C500.037 326.927 499.621 324.606 498.671 321.488C483.26 271.063 502.353 269.8 504.557 247.721Z" fill="#4ABA8E"/>
<path d="M429.981 246.413C429.387 248.478 428.758 250.694 428.11 252.631C426.257 258.198 425.461 263.698 428.52 269.744C428.987 270.676 429.409 271.533 429.785 272.316" stroke="white" stroke-width="2" stroke-linecap="round" stroke-linejoin="round"/>
<path d="M474.927 226.389L473.9 208.631L456.029 209.827L455.976 224.858C455.976 227.391 453.85 229.028 451.171 229.373L446.302 230.063L454.848 263.142L484.091 231.494L478.877 230.753C476.662 230.298 475.046 228.511 474.927 226.389Z" fill="white" stroke="#2D2D2D" stroke-width="2" stroke-linecap="round" stroke-linejoin="round"/>
<path d="M454.854 263.131L472.504 244.031H449.924L454.854 263.131Z" fill="#2D2D2D"/>
<path d="M429.387 299.967L453.09 290.408L442.311 252.693L418.602 262.251L429.387 299.967Z" fill="#2D2D2D"/>
<path d="M429.387 299.967L416.921 294.272L406.142 256.556L418.602 262.251L429.387 299.967Z" fill="#2D2D2D"/>
<path d="M418.602 262.251L429.387 299.967" stroke="white" stroke-width="2" stroke-linecap="round" stroke-linejoin="round"/>
<path d="M425.895 266.237L438.516 260.932" stroke="white" stroke-width="2" stroke-linecap="round" stroke-linejoin="round"/>
<path d="M429.892 268.898L436.728 266.025" stroke="white" stroke-width="2" stroke-linecap="round" stroke-linejoin="round"/>
<path d="M502.496 242.249C507.247 251.429 510.383 277.232 510.971 284.558C511.559 291.884 506.98 299.243 490.309 296.092C474.149 293.042 452.122 286.873 450.162 286.695C448.202 286.517 440.066 288.204 437.096 287.102C434.127 285.999 430.997 282.242 432.102 281.017C432.102 281.017 435.107 283.606 438.433 284.023C438.433 284.023 431.775 282.548 430.997 279.058C430.997 279.058 435.956 281.568 439.412 281.323C439.412 281.323 428.984 279.653 429.821 276.87C430.593 274.298 433.978 277.037 439.068 277.426C444.662 277.844 443.481 276.452 438.569 275.456C436.591 275.049 436.194 272.489 439.216 272.533C443.849 272.6 488.795 279.865 488.795 279.865C488.795 279.865 485.908 263.164 483.616 248.645C481.822 237.233 497.091 231.761 502.496 242.249Z" fill="white" stroke="#2D2D2D" stroke-width="2" stroke-linecap="round" stroke-linejoin="round"/>
<path d="M466.951 274.593C468.103 280.686 466.561 286.956 462.681 291.962C462.681 291.962 486.253 298.519 496.295 298.519C506.338 298.519 512.129 294.895 511.998 285.482C511.867 276.068 510.216 235.886 494.365 235.886C478.514 235.886 482.903 250.488 484.578 258.571C486.253 266.654 488.604 278.835 488.604 278.835L466.951 274.593Z" fill="#4ABA8E"/>
<ellipse rx="8.93392" ry="1.86476" transform="matrix(0.244352 -0.969687 0.976355 0.216174 464.555 283.187)" stroke="white" stroke-width="2" stroke-linecap="round" stroke-linejoin="round"/>
<path d="M466.767 274.554L488.806 279.848L484.103 252.631" stroke="white" stroke-width="2" stroke-linecap="round" stroke-linejoin="round"/>
<path d="M444.935 208.569C444.935 208.569 441.313 208.013 440.843 202.885C440.422 198.304 444.407 198.12 446.515 199.74L444.935 208.569Z" fill="white" stroke="#2D2D2D" stroke-width="2"/>
<path d="M473.543 203.314C473.543 203.314 480.076 196.589 482.624 201.856C484.299 205.274 482.065 211.642 476.358 210.713C475.96 215.122 473.519 220.176 467.45 224.045C458.613 229.657 445.268 228.276 443.831 211.292C443.324 204.046 444.256 196.775 446.58 189.848C446.58 189.848 456.136 203.793 473.543 203.314Z" fill="white" stroke="#2D2D2D" stroke-width="2"/>
<path d="M453.785 206.164L452.181 212.115C452.043 212.614 452.189 213.144 452.567 213.517C452.945 213.891 453.502 214.056 454.04 213.953C454.322 213.896 454.596 213.812 454.86 213.702" stroke="#2D2D2D" stroke-width="2" stroke-linecap="round" stroke-linejoin="round"/>
<ellipse cx="463.411" cy="214.292" rx="2.72003" ry="2.54965" fill="#FFB967"/>
<ellipse cx="444.953" cy="214.654" rx="3.10012" ry="2.90593" fill="#FFB967"/>
<path d="M453.76 221.991C453.76 221.991 457.989 221.841 459.343 218.785" stroke="#2D2D2D" stroke-width="2" stroke-linecap="round" stroke-linejoin="round"/>
<ellipse cx="460.163" cy="208.274" rx="1.35408" ry="1.26926" fill="#2D2D2D"/>
<ellipse cx="448.03" cy="207.523" rx="1.35408" ry="1.26926" fill="#2D2D2D"/>
<path d="M462.515 203.509C461.109 202.711 459.347 202.711 457.942 203.509" stroke="#2D2D2D" stroke-width="2" stroke-linecap="round" stroke-linejoin="round"/>
<path d="M450.316 202.435C448.913 201.636 447.152 201.636 445.749 202.435" stroke="#2D2D2D" stroke-width="2" stroke-linecap="round" stroke-linejoin="round"/>
<path d="M472.985 204.89C473.393 203.817 474.086 202.859 474.998 202.106" stroke="#2D2D2D" stroke-width="2" stroke-linecap="round" stroke-linejoin="round"/>
<path d="M479.839 203.576C477.574 203.585 475.712 205.252 475.598 207.372" stroke="#2D2D2D" stroke-width="2" stroke-linecap="round" stroke-linejoin="round"/>
<path d="M479.292 205.53C478.303 205.027 477.101 205.069 476.156 205.641" stroke="#2D2D2D" stroke-width="2" stroke-linecap="round" stroke-linejoin="round"/>
<path d="M446.675 189.848C446.675 189.848 446.675 196.456 454.158 199.545" stroke="#2D2D2D" stroke-width="2" stroke-linecap="round" stroke-linejoin="round"/>
</svg>
