<svg width="449" height="488" viewBox="0 0 449 488" fill="none" xmlns="http://www.w3.org/2000/svg">
    <path d="M23.0171 463.21H170.566" stroke="#2D2D2D" stroke-width="2" stroke-linecap="round"
        stroke-linejoin="round" />
    <path d="M195.632 463.085H440.713" stroke="#2D2D2D" stroke-width="2" stroke-linecap="round"
        stroke-linejoin="round" />
    <path d="M1 442.705H300.997" stroke="#2D2D2D" stroke-width="2" stroke-linecap="round" stroke-linejoin="round" />
    <rect x="217.184" y="160.58" width="12.5226" height="313.558" rx="6.26129" transform="rotate(16.56 217.184 160.58)"
        fill="white" stroke="#2D2D2D" stroke-width="2" stroke-linecap="round" stroke-linejoin="round" />
    <rect x="379.457" y="461.151" width="12.5226" height="313.558" rx="6.26129"
        transform="rotate(163.44 379.457 461.151)" fill="white" stroke="#2D2D2D" stroke-width="2" stroke-linecap="round"
        stroke-linejoin="round" />
    <rect x="247.582" y="267.56" width="12.1486" height="175.145" rx="6.07431" fill="#2D2D2D" />
    <rect x="124.73" y="141.046" width="257.848" height="183.995" rx="34.65" fill="white" stroke="#2D2D2D"
        stroke-width="2" stroke-linecap="round" stroke-linejoin="round" />
    <path d="M141.112 270.064L160.345 255.173L175.651 259.639L198.318 242.25" stroke="#2D2D2D" stroke-width="2"
        stroke-linecap="round" stroke-linejoin="round" />
    <path d="M198.318 247.319V242.25H192.947" stroke="#2D2D2D" stroke-width="2" stroke-linecap="round"
        stroke-linejoin="round" />
    <rect x="148.617" y="282.087" width="8.23758" height="23.326" fill="#2D2D2D" />
    <rect x="161.508" y="269.643" width="8.23758" height="35.7706" fill="#2D2D2D" />
    <rect x="174.4" y="272.411" width="8.23758" height="33.0023" fill="#2D2D2D" />
    <rect x="187.291" y="258.938" width="8.23758" height="46.4753" fill="#FFB967" />
    <path d="M261.829 223.702C270.604 217.792 275.862 207.902 275.853 197.322H245.125L261.829 223.702Z"
        fill="#AD90FF" />
    <path
        d="M243.463 229.234C225.84 229.231 211.555 214.942 211.557 197.319C211.559 179.695 225.847 165.41 243.47 165.411C261.094 165.412 275.38 179.699 275.38 197.322C275.38 197.609 275.147 197.842 274.861 197.842H245.468L261.45 223.079C261.598 223.316 261.532 223.629 261.299 223.785C256.034 227.348 249.82 229.247 243.463 229.234Z"
        fill="white" />
    <path fill-rule="evenodd" clip-rule="evenodd"
        d="M212.742 186.94C217.195 173.763 229.554 164.892 243.463 164.891H243.469C261.371 164.911 275.879 179.419 275.899 197.322C275.899 197.896 275.434 198.361 274.861 198.361H246.408L261.886 222.798C262.188 223.273 262.056 223.902 261.59 224.216C250.056 231.989 234.849 231.541 223.792 223.104C212.735 214.666 208.29 200.117 212.742 186.94ZM265.664 175.123C259.776 169.235 251.79 165.929 243.463 165.93C230 165.932 218.038 174.52 213.729 187.275C209.419 200.03 213.723 214.112 224.427 222.279C235.13 230.446 249.849 230.878 261.014 223.354L244.528 197.322H274.861C274.861 188.995 271.553 181.01 265.664 175.123Z"
        fill="#2D2D2D" />
    <path d="M244.523 165.956V197.322H274.861C274.856 180.398 261.437 166.524 244.523 165.956Z" fill="#2D2D2D" />
    <path d="M263.985 173.58H328.415" stroke="#2D2D2D" stroke-width="2" stroke-linecap="round"
        stroke-linejoin="round" />
    <path d="M309.089 178.068H328.415" stroke="#2D2D2D" stroke-width="2" stroke-linecap="round"
        stroke-linejoin="round" />
    <path d="M269.76 215.319H307.738" stroke="#2D2D2D" stroke-width="2" stroke-linecap="round"
        stroke-linejoin="round" />
    <path d="M307.738 219.479H294.255" stroke="#2D2D2D" stroke-width="2" stroke-linecap="round"
        stroke-linejoin="round" />
    <path d="M232.681 211.429H154.47" stroke="#2D2D2D" stroke-width="2" stroke-linecap="round"
        stroke-linejoin="round" />
    <path d="M154.47 217.257H179.864" stroke="#2D2D2D" stroke-width="2" stroke-linecap="round"
        stroke-linejoin="round" />
    <path d="M154.47 222.513H165.933" stroke="#2D2D2D" stroke-width="2" stroke-linecap="round"
        stroke-linejoin="round" />
    <rect x="210.674" y="258.938" width="17.2439" height="17.2439" fill="white" stroke="#2D2D2D" stroke-width="2"
        stroke-linecap="round" stroke-linejoin="round" />
    <rect x="240.3" y="258.938" width="17.2439" height="17.2439" fill="white" stroke="#2D2D2D" stroke-width="2"
        stroke-linecap="round" stroke-linejoin="round" />
    <rect x="269.926" y="258.938" width="17.2439" height="17.2439" fill="#FFB967" />
    <rect x="299.558" y="258.938" width="17.2439" height="17.2439" fill="white" stroke="#2D2D2D" stroke-width="2"
        stroke-linecap="round" stroke-linejoin="round" />
    <path d="M210.674 285.926H316.947" stroke="#2D2D2D" stroke-width="2" stroke-linecap="round"
        stroke-linejoin="round" />
    <path d="M210.674 295.669H316.947" stroke="#2D2D2D" stroke-width="2" stroke-linecap="round"
        stroke-linejoin="round" />
    <path d="M210.674 305.414H257.544" stroke="#2D2D2D" stroke-width="2" stroke-linecap="round"
        stroke-linejoin="round" />
    <path
        d="M77.7351 279.89C79.018 289.956 63.7738 315.624 63.7738 315.624C63.7738 315.624 42.5722 294.604 41.2841 284.544C40.4491 278.032 43.1512 271.57 48.3727 267.591C53.5942 263.613 60.5417 262.722 66.5982 265.254C72.6547 267.787 76.9001 273.358 77.7351 279.869V279.89Z"
        fill="#FFB967" />
    <path
        d="M102.744 307.657C100.531 316.71 79.0492 333.678 79.0492 333.678C79.0492 333.678 67.7992 308.695 70.0118 299.653C71.3838 293.74 75.8287 289.02 81.6493 287.297C87.4698 285.574 93.7673 287.113 98.1371 291.327C102.507 295.54 104.275 301.777 102.765 307.657H102.744Z"
        fill="#FFB967" />
    <path d="M60.7561 277.724L70.0584 385.498L60.7561 277.724Z" fill="white" />
    <path d="M60.7561 277.724L70.0584 385.498" stroke="#2D2D2D" stroke-width="2" stroke-linecap="round"
        stroke-linejoin="round" />
    <path
        d="M36.085 294.734C43.772 298.957 53.9625 322.667 53.9625 322.667C53.9625 322.667 28.5122 326.791 20.7992 322.574C13.1116 318.353 10.3013 308.699 14.5224 301.011C18.7434 293.323 28.3973 290.513 36.085 294.734Z"
        fill="#FFB967" />
    <path d="M64.9372 330.593L23.2351 303.471L64.9372 330.593Z" fill="white" />
    <path d="M64.9372 330.593L23.2351 303.471" stroke="#2D2D2D" stroke-width="2" stroke-linecap="round"
        stroke-linejoin="round" />
    <path d="M62.278 403.282L90.6784 289.525L62.278 403.282Z" fill="white" />
    <path d="M62.278 403.282L90.6784 289.525" stroke="#2D2D2D" stroke-width="2" stroke-linecap="round"
        stroke-linejoin="round" />
    <path d="M37.0664 312.466L37.6377 299.263L37.0664 312.466Z" fill="white" />
    <path d="M37.0664 312.466L37.6377 299.263" stroke="#2D2D2D" stroke-width="2" stroke-linecap="round"
        stroke-linejoin="round" />
    <path d="M46.2339 318.663L23.017 318.938L46.2339 318.663Z" fill="white" />
    <path d="M46.2339 318.663L23.017 318.938" stroke="#2D2D2D" stroke-width="2" stroke-linecap="round"
        stroke-linejoin="round" />
    <path
        d="M54.2742 341.973C58.393 346.835 59.1565 365.569 59.1565 365.569C59.1565 365.569 40.7959 361.762 36.6771 356.901C32.555 352.041 33.1527 344.761 38.012 340.638C42.8713 336.516 50.1521 337.114 54.2742 341.973Z"
        fill="#FFB967" />
    <path d="M64.5478 373.797L43.2838 344.57L64.5478 373.797Z" fill="white" />
    <path d="M64.5478 373.797L43.2838 344.57" stroke="#2D2D2D" stroke-width="2" stroke-linecap="round"
        stroke-linejoin="round" />
    <path d="M50.3372 354.262L54.1495 345.448L50.3372 354.262Z" fill="white" />
    <path d="M50.3372 354.262L54.1495 345.448" stroke="#2D2D2D" stroke-width="2" stroke-linecap="round"
        stroke-linejoin="round" />
    <path d="M54.9493 360.848L39.1234 355.01L54.9493 360.848Z" fill="white" />
    <path d="M54.9493 360.848L39.1234 355.01" stroke="#2D2D2D" stroke-width="2" stroke-linecap="round"
        stroke-linejoin="round" />
    <path d="M74.5719 305.501L83.76 317.25L74.5719 305.501Z" fill="white" />
    <path d="M74.5719 305.501L83.76 317.25" stroke="#2D2D2D" stroke-width="2" stroke-linecap="round"
        stroke-linejoin="round" />
    <path d="M85.8792 308.742L100.749 304.011L85.8792 308.742Z" fill="white" />
    <path d="M85.8792 308.742L100.749 304.011" stroke="#2D2D2D" stroke-width="2" stroke-linecap="round"
        stroke-linejoin="round" />
    <path d="M83.6459 293.332L88.3879 298.697L83.6459 293.332Z" fill="white" />
    <path d="M83.6459 293.332L88.3879 298.697" stroke="#2D2D2D" stroke-width="2" stroke-linecap="round"
        stroke-linejoin="round" />
    <path d="M62.9169 302.764L51.189 297.201L62.9169 302.764Z" fill="white" />
    <path d="M62.9169 302.764L51.189 297.201" stroke="#2D2D2D" stroke-width="2" stroke-linecap="round"
        stroke-linejoin="round" />
    <path d="M62.0131 292.303L72.4581 281.339L62.0131 292.303Z" fill="white" />
    <path d="M62.0131 292.303L72.4581 281.339" stroke="#2D2D2D" stroke-width="2" stroke-linecap="round"
        stroke-linejoin="round" />
    <path
        d="M37.2017 371.5H97.1813C97.8626 371.501 98.5101 371.797 98.9557 372.313C99.4012 372.828 99.601 373.512 99.503 374.186L87.6037 457.008C87.0901 460.567 84.0416 463.208 80.4465 463.21H53.9574C50.3622 463.208 47.3137 460.567 46.8001 457.008L34.9008 374.186C34.8051 373.515 35.0028 372.836 35.4434 372.322C35.884 371.808 36.5247 371.509 37.2017 371.5Z"
        fill="white" stroke="#2D2D2D" stroke-width="2" stroke-linecap="round" stroke-linejoin="round" />
    <path
        d="M36.5005 385.498H97.8773L99.503 374.186C99.6009 373.512 99.4012 372.828 98.9556 372.313C98.51 371.797 97.8625 371.501 97.1813 371.5H37.2017C36.5201 371.501 35.8723 371.797 35.4259 372.313C34.9796 372.828 34.7785 373.511 34.8748 374.186L36.5005 385.498Z"
        fill="#2D2D2D" />
    <rect x="356.561" y="111.581" width="111.654" height="95.7658" rx="21.29" transform="rotate(-180 356.561 111.581)"
        fill="white" stroke="#2D2D2D" stroke-width="2" stroke-linecap="round" stroke-linejoin="round" />
    <path
        d="M296.203 46.2982L328.639 39.1513C328.639 39.1513 329.74 13.8413 313.924 4.19612C297.496 -5.83337 285.249 5.26607 285.249 5.26607C285.249 5.26607 276.767 4.5545 277.136 16.8901C277.504 29.2257 296.203 46.2982 296.203 46.2982Z"
        fill="#2D2D2D" />
    <path
        d="M272.736 77.519C272.736 77.519 260.157 92.1347 245.728 84.697C231.299 77.2593 221.836 70.2683 221.197 70.0346C220.558 69.8008 217.338 71.3278 216.808 70.7253C216.278 70.1228 219.966 66.7312 219.966 66.7312C219.966 66.7312 212.876 65.5626 212.752 64.9237C212.627 64.2849 219.078 64.0356 219.078 64.0356C219.078 64.0356 213.998 63.1734 213.884 62.3423C213.77 61.5113 221.451 61.2308 221.451 61.2308C221.451 61.2308 216.979 59.0702 216.943 58.4001C216.907 57.7301 245.442 68.4712 251.576 71.1253L262.52 65.0484L272.736 77.519Z"
        fill="white" stroke="#2D2D2D" stroke-width="2" stroke-linecap="round" stroke-linejoin="round" />
    <path
        d="M270.42 83.5022C270.42 83.5022 283.436 77.2695 290.546 68.3411C295.953 61.589 290.791 46.7499 278.798 51.7621C265.423 57.3507 255.705 63.8587 256.324 66.9647C257.321 71.9457 263.335 81.8713 266.919 83.9333C268.202 84.6708 270.42 83.5022 270.42 83.5022Z"
        fill="#FFB967" />
    <path d="M252.667 75.1399C252.667 75.1399 252.984 73.4675 251.587 71.125" stroke="#2D2D2D" stroke-width="2"
        stroke-linecap="round" stroke-linejoin="round" />
    <path
        d="M330.036 64.3627C329.594 52.936 313.135 50.8065 313.135 50.8065L287.503 49.695C287.503 49.695 268.244 49.4249 270.846 70.7356C271.822 78.6979 275.307 111.056 275.307 111.056H326.727C326.727 111.056 330.778 83.6789 330.036 64.3627Z"
        fill="#FFB967" />
    <path
        d="M308.439 46.7343L307.546 31.0435L292.749 32.1498V45.4151C292.748 47.6537 291.101 49.5509 288.884 49.8663L287.591 50.0481C287.591 50.0481 288.921 58.296 299.153 58.296C310.704 58.296 313.067 51.1596 313.067 51.1596L311.769 50.8116C309.895 50.3144 308.552 48.6699 308.439 46.7343Z"
        fill="white" stroke="#2D2D2D" stroke-width="2" />
    <path d="M271.749 78.5731L270.607 61.2046" stroke="white" stroke-width="2" stroke-linecap="round"
        stroke-linejoin="round" />
    <path
        d="M311.795 98.0765L312.615 80.5781L330.758 80.682C330.758 80.682 331.158 88.1561 331.277 93.5941C331.397 99.0322 331.21 108.137 316.183 113.061C303.027 117.356 292.047 120.005 292.047 120.005C292.047 120.005 287.181 126.098 286.422 126.165C285.664 126.233 287.98 119.709 287.98 119.709C287.98 119.709 284.225 125.942 283.893 125.506C283.56 125.069 285.768 119.2 285.768 119.2C285.768 119.2 282.968 124.119 281.28 124.332C279.592 124.545 283.773 117.06 283.773 117.06C283.773 117.06 278.808 119.616 277.79 119.138C276.772 118.66 284.62 113.399 285.42 113.16C286.22 112.921 311.795 98.0765 311.795 98.0765Z"
        fill="white" stroke="#2D2D2D" stroke-width="2" stroke-linecap="round" stroke-linejoin="round" />
    <path
        d="M333.775 87.9486C333.775 87.9486 335.676 63.9682 326.815 56.785C317.955 49.6017 312.231 58.0834 310.756 72.5018C309.281 86.9202 309.359 88.5718 312.361 89.5847C317.17 91.2104 329.547 91.3714 332.305 89.7924C333.033 89.4124 333.567 88.7428 333.775 87.9486Z"
        fill="#FFB967" />
    <path d="M318.329 98.2842C318.329 98.2842 315.82 96.7572 311.795 98.0765" stroke="#2D2D2D" stroke-width="2"
        stroke-linecap="round" stroke-linejoin="round" />
    <path d="M311.525 67.3076L309.624 83.2063" stroke="white" stroke-width="2" stroke-linecap="round"
        stroke-linejoin="round" />
    <path
        d="M308.73 21.3724C308.73 21.3724 314.095 17.7366 315.945 22.7695C316.931 25.4392 315.098 30.9344 310.179 29.8748C309.66 33.9729 307.432 39.7849 301.724 42.7402C291.055 48.2562 280.47 40.8029 280.652 30.1345C280.754 23.7513 282.14 17.4539 284.729 11.6182C284.729 11.6182 288.328 21.175 308.73 21.3724Z"
        fill="white" stroke="#2D2D2D" stroke-width="2" />
    <circle cx="297.48" cy="26.2963" r="1.14786" fill="#2D2D2D" />
    <circle cx="286.334" cy="25.143" r="1.14786" fill="#2D2D2D" />
    <path
        d="M291.481 25.4756C291.261 26.3532 290.779 27.143 290.1 27.7401C289.061 28.5712 288.022 29.2983 290.224 31.594"
        stroke="#2D2D2D" stroke-width="2" stroke-linecap="round" stroke-linejoin="round" />
    <path d="M289.341 19.9387C289.341 19.9387 287.399 18.609 285.461 19.7205" stroke="#2D2D2D" stroke-width="2"
        stroke-linecap="round" stroke-linejoin="round" />
    <path d="M300.731 21.3725C300.731 21.3725 298.794 20.0481 296.857 21.1596" stroke="#2D2D2D" stroke-width="2"
        stroke-linecap="round" stroke-linejoin="round" />
    <circle cx="299.495" cy="33.2148" r="2.37882" fill="#FFB967" />
    <circle cx="281.706" cy="32.0355" r="2.71123" fill="#FFB967" />
    <path d="M290.193 38.7566C290.193 38.7566 293.891 38.7566 295.184 35.957" stroke="#2D2D2D" stroke-width="2"
        stroke-linecap="round" stroke-linejoin="round" />
    <path d="M307.764 23.5437C307.764 23.5437 308.086 21.8505 309.27 21.0454" stroke="#2D2D2D" stroke-width="2"
        stroke-linecap="round" stroke-linejoin="round" />
    <path d="M313.462 23.3462C311.484 23.275 309.796 24.7659 309.624 26.7378" stroke="#2D2D2D" stroke-width="2"
        stroke-linecap="round" stroke-linejoin="round" />
    <path d="M312.896 25.143C312.05 24.6443 310.999 24.6443 310.153 25.143" stroke="#2D2D2D" stroke-width="2"
        stroke-linecap="round" stroke-linejoin="round" />
    <rect x="35.6591" y="89.1323" width="110.054" height="94.3946" rx="20.98" fill="white" stroke="#2D2D2D"
        stroke-width="2" stroke-linecap="round" stroke-linejoin="round" />
    <path
        d="M86.6844 96.1446C82.2955 95.9784 76.229 90.4313 74.0476 81.3834C68.8536 59.8234 83.0746 52.2974 96.0595 52.4324C105.383 52.5155 109.418 55.0294 111.314 61.2933C113.272 64.981 114.176 72.159 111.833 78.5839C110.14 83.2065 107.465 96.9237 86.6844 96.1446Z"
        fill="#2D2D2D" />
    <path
        d="M121.894 108.054C116.887 106.277 110.79 106.054 107.756 115.845C104.723 125.635 141.236 149.055 149.547 154.321C159.27 160.481 166.105 151.491 165.529 145.705C164.599 136.34 126.901 109.83 121.894 108.054Z"
        fill="white" stroke="#2D2D2D" stroke-width="2" stroke-linecap="round" stroke-linejoin="round" />
    <path
        d="M135.45 115.819C135.45 115.819 120.388 104.158 111.891 105.275C102.443 106.516 97.9085 117.268 105.975 125.012C114.041 132.756 120.84 136.833 123 137.649C126.174 138.843 132.09 133.779 135.767 127.261C139.444 120.743 138.541 118.187 135.45 115.819Z"
        fill="#AD90FF" />
    <path
        d="M56.3623 120.156C55.1313 105.81 78.3742 104.055 78.3742 104.055L106.629 102.954C110.325 103.309 113.956 104.163 117.422 105.493C123.437 107.903 125.509 108.708 124.974 121.075C124.637 128.908 119.837 170.833 119.209 177.372C118.908 180.489 116.612 183.143 112.223 183.143H67.3423C64.1844 183.143 61.9977 180.754 61.4939 176.24C60.1642 164.278 58.2061 141.674 56.3623 120.156Z"
        fill="#AD90FF" />
    <path
        d="M83.5679 99.6036L84.6067 82.3286L100.91 83.6167L100.864 98.2324C100.853 100.697 102.658 102.794 105.097 103.151L106.52 103.364C106.52 103.364 109.117 114.136 93.9039 114.069C81.1735 114.012 78.4415 104.455 78.4415 104.455L79.8751 104.081C81.9445 103.544 83.4344 101.737 83.5679 99.6036Z"
        fill="white" stroke="#2D2D2D" stroke-width="2" />
    <path d="M124.756 123.408C124.756 123.408 123.431 139.343 122.746 143.835" stroke="white" stroke-width="2"
        stroke-linecap="round" stroke-linejoin="round" />
    <path
        d="M111.075 82.4636C111.075 82.4636 114.389 81.9442 114.856 76.9529C115.272 72.5017 111.662 72.2783 109.704 73.8365L111.075 82.4636Z"
        fill="white" stroke="#2D2D2D" stroke-width="2" />
    <path
        d="M85.0067 77.1399C85.0067 77.1399 79.122 70.5436 76.7276 75.6493C75.1694 78.9682 77.169 85.1853 82.3786 84.318C82.711 88.6185 84.9028 93.5632 90.4292 97.3703C98.4486 102.897 110.639 101.645 112.083 85.1178C113.049 74.0184 109.808 66.4976 109.808 66.4976C109.808 66.4976 105.263 69.4062 92.4808 69.4062C89.0995 69.4062 89.5358 76.6569 85.0067 77.1399Z"
        fill="white" stroke="#2D2D2D" stroke-width="2" />
    <path
        d="M103.019 81.0923L104.442 86.8991C104.565 87.3861 104.427 87.9017 104.078 88.263C103.73 88.6243 103.219 88.7802 102.728 88.6754C102.474 88.6151 102.225 88.5316 101.986 88.4261"
        stroke="#2D2D2D" stroke-width="2" stroke-linecap="round" stroke-linejoin="round" />
    <path d="M105.086 77.3735C105.086 77.3735 106.723 76.9735 109.101 76.584" stroke="#2D2D2D" stroke-width="5"
        stroke-linecap="round" stroke-linejoin="round" />
    <path d="M93.1299 78.3083L97.1812 78.2668" stroke="#2D2D2D" stroke-width="5" stroke-linecap="round"
        stroke-linejoin="round" />
    <circle cx="93.4831" cy="90.2854" r="2.4827" fill="#FFB967" />
    <circle cx="111.091" cy="88.7223" r="2.83069" fill="#FFB967" />
    <path d="M102.941 96.5183C102.941 96.5183 99.0821 96.3417 97.8719 93.3604" stroke="#2D2D2D" stroke-width="2"
        stroke-linecap="round" stroke-linejoin="round" />
    <circle cx="97.1812" cy="83.097" r="1.23616" fill="#2D2D2D" />
    <circle cx="108.26" cy="82.453" r="1.23616" fill="#2D2D2D" />
    <path d="M85.5053 78.6772C85.1362 77.6368 84.511 76.7062 83.6874 75.9712" stroke="#2D2D2D" stroke-width="2"
        stroke-linecap="round" stroke-linejoin="round" />
    <path d="M79.2413 77.3477C81.3074 77.3732 82.9941 79.0075 83.0848 81.0717" stroke="#2D2D2D" stroke-width="2"
        stroke-linecap="round" stroke-linejoin="round" />
    <path d="M79.7452 79.2539C80.6494 78.7709 81.7453 78.8207 82.6019 79.3838" stroke="#2D2D2D" stroke-width="2"
        stroke-linecap="round" stroke-linejoin="round" />
    <path
        d="M73.0399 70.5849L81.9943 71.0575C81.9943 71.0575 84.7834 60.8047 99.7835 59.8958C111.989 59.1634 112.919 66.4609 112.919 66.4609C112.919 66.4609 113.438 53.1904 100.168 51.279C85.282 49.1339 72.0323 55.8912 73.0399 70.5849Z"
        fill="#FF7C7C" />
    <path
        d="M105.284 60.249C105.284 60.249 112.363 60.3893 113.184 68.9073C113.184 68.9073 114.846 68.4762 115.625 67.3491C117.038 65.3235 118.071 60.649 105.284 60.249Z"
        fill="white" stroke="#2D2D2D" stroke-width="2" stroke-linecap="round" stroke-linejoin="round" />
    <path
        d="M81.9941 71.0364C81.9941 71.0364 89.5617 71.7012 91.2965 71.7272C92.3353 71.7272 95.1452 72.418 96.3554 69.2912C98.4018 64.0142 109.049 57.5841 115.983 63.4481C115.983 63.4481 110.691 56.5245 99.2432 58.4827C87.7958 60.4408 84.1808 66.0242 81.9941 71.0364Z"
        fill="white" stroke="#2D2D2D" stroke-width="2" stroke-linecap="round" stroke-linejoin="round" />
    <path d="M77.2936 70.8081C77.2936 70.8081 75.6628 54.6446 94.2207 50.5518" stroke="#2D2D2D" stroke-width="2"
        stroke-linecap="round" stroke-linejoin="round" />
    <path
        d="M131.69 151.589H88.3984C87.5959 151.61 86.829 151.258 86.3211 150.636C85.8132 150.015 85.6214 149.193 85.8014 148.411L91.0473 118.66C91.405 116.86 92.953 115.542 94.7869 115.476H138.078C138.882 115.455 139.65 115.808 140.158 116.431C140.666 117.054 140.857 117.877 140.675 118.66L135.429 148.426C135.065 150.219 133.518 151.527 131.69 151.589Z"
        fill="#2D2D2D" />
    <path
        d="M118.071 134.683C117.412 134.707 116.78 134.422 116.361 133.913C115.942 133.404 115.785 132.728 115.937 132.086C116.041 131.534 116.294 131.02 116.669 130.601C116.144 130.355 115.571 130.229 114.991 130.232C112.489 130.323 110.377 132.119 109.886 134.574C109.638 135.647 109.903 136.774 110.603 137.623C111.303 138.473 112.359 138.949 113.459 138.911C115.938 138.824 118.037 137.058 118.549 134.631C118.392 134.662 118.232 134.679 118.071 134.683Z"
        fill="white" stroke="#2D2D2D" stroke-width="2" stroke-linecap="round" stroke-linejoin="round" />
    <path
        d="M159.898 138.558C168.728 143.108 167.222 155.231 158.677 156.867C147.381 159.032 121.775 131.873 121.775 131.873C121.775 131.873 113.329 130.445 112.29 129.115C111.252 127.786 118.004 128.331 118.004 128.331C118.004 128.331 109.127 128.404 109.101 126.773C109.075 125.142 116.544 125.526 116.544 125.526C116.544 125.526 107.657 125.225 107.289 123.283C106.92 121.34 116.503 122.457 116.503 122.457C116.503 122.457 108.089 118.359 108.478 116.795C108.868 115.232 145.963 131.375 159.898 138.558Z"
        fill="white" stroke="#2D2D2D" stroke-width="2" stroke-linecap="round" stroke-linejoin="round" />
    <path
        d="M52.7472 144.147C52.7472 144.147 50.5762 155.147 50.8982 162.325C51.2202 169.503 55.9051 177.564 70.6351 172.713C84.9237 168.008 105.923 157.651 107.673 157.246C109.423 156.841 117.022 157.604 119.552 156.207C122.081 154.81 124.517 150.847 123.369 149.782C123.369 149.782 120.954 152.613 117.983 153.381C117.983 153.381 123.842 151.226 124.148 147.772C124.148 147.772 119.946 150.732 116.783 150.888C116.783 150.888 126.039 148.13 124.958 145.528C123.961 143.129 121.24 146.141 116.648 147.086C111.626 148.094 112.54 146.624 116.872 145.123C118.622 144.521 118.674 142.007 115.952 142.37C111.761 142.936 71.8713 154.836 71.8713 154.836L74.1514 143.456L52.7472 144.147Z"
        fill="white" stroke="#2D2D2D" stroke-width="2" stroke-linecap="round" stroke-linejoin="round" />
    <path
        d="M75.3096 147.699C75.3096 147.699 81.2878 120.514 76.3484 113.513C70.4896 105.202 59.1669 107.654 55.2818 118.13C51.3967 128.606 49.0231 142.365 49.1374 144.671C49.3036 148.058 57.1776 150.826 64.6309 150.873C72.0842 150.919 74.3747 151.475 75.3096 147.699Z"
        fill="#AD90FF" />
    <path d="M66.7968 160.372C66.7968 160.372 68.3965 156.705 71.8712 154.804" stroke="#2D2D2D" stroke-width="2"
        stroke-linecap="round" stroke-linejoin="round" />
    <path d="M77.8859 128.424L75.8135 145.237" stroke="white" stroke-width="2" stroke-linecap="round"
        stroke-linejoin="round" />
    <ellipse cx="342.028" cy="246.782" rx="8.23758" ry="3.06442" transform="rotate(-60 342.028 246.782)" fill="white"
        stroke="#2D2D2D" stroke-width="2" stroke-linecap="round" stroke-linejoin="round" />
    <path
        d="M349.404 244.171C345.899 242 342.576 239.548 339.468 236.838C337.084 234.76 335.058 230.854 332.778 229.488C330.841 228.325 328.982 230.039 328.982 230.039C328.982 230.039 326.296 228.257 325.652 227.961C323.336 226.891 311.748 227.561 310.59 229.732C309.66 231.477 312.558 232.615 319.316 231.81C319.316 231.81 317.165 233.752 318.796 235.581C318.231 236.08 317.932 236.815 317.987 237.567C318.042 238.319 318.445 239.002 319.077 239.414C318.772 240.632 319.313 241.904 320.401 242.53C322.313 243.699 326.681 243.652 328.862 244.966C331.044 246.28 341.525 252.965 341.525 252.965L349.404 244.171Z"
        fill="white" stroke="#2D2D2D" stroke-width="2" stroke-linecap="round" stroke-linejoin="round" />
    <path
        d="M328.981 230.039C328.981 230.039 325.392 233.83 325.605 235.394C325.766 236.588 328.088 237.372 330.986 234.303C330.986 234.303 329.241 238.37 332.794 241.055"
        stroke="#2D2D2D" stroke-width="2" stroke-linecap="round" stroke-linejoin="round" />
    <rect x="309.859" y="194.041" width="2.32169" height="54.3961" rx="1.16084"
        transform="rotate(-17.82 309.859 194.041)" fill="white" stroke="#2D2D2D" stroke-width="2" stroke-linecap="round"
        stroke-linejoin="round" />
    <path
        d="M362.217 248.867C362.217 248.867 376.973 221.624 379.259 218.768C382.827 214.27 398.409 216.591 394.539 230.298C391.542 240.878 378.552 263.347 374.584 266.895C370.616 270.442 363.126 271.003 356.795 267.201C350.464 263.399 337.515 254.138 337.515 254.138C337.515 254.138 339.546 254.31 342.013 251.723C344.994 248.607 348.35 242.291 346.324 239.398L362.217 248.867Z"
        fill="#FF7C7C" />
    <path
        d="M318.781 235.607C318.781 235.607 326.099 236.9 327.517 236.583C328.618 236.339 329.828 234.386 327.029 233.513C324.6 232.823 322.132 232.28 319.638 231.888C317.534 231.529 316.246 234.786 318.781 235.607Z"
        fill="white" stroke="#2D2D2D" stroke-width="2" stroke-linecap="round" stroke-linejoin="round" />
    <path
        d="M319.045 239.32C319.045 239.32 325.408 240.562 326.8 240.255C327.886 240.011 329.075 238.089 326.317 237.232C323.559 236.375 320.734 235.851 319.565 235.602C317.451 235.165 316.594 238.562 319.045 239.32Z"
        fill="white" stroke="#2D2D2D" stroke-width="2" stroke-linecap="round" stroke-linejoin="round" />
    <path
        d="M319.939 242.644C321.289 243.05 324.671 243.387 325.824 243.164C326.727 242.987 327.761 241.434 325.507 240.655C323.619 240.041 321.67 239.632 319.695 239.435C318.35 239.274 317.721 241.985 319.939 242.644Z"
        fill="white" stroke="#2D2D2D" stroke-width="2" stroke-linecap="round" stroke-linejoin="round" />
    <path
        d="M390.124 189.376C390.124 189.376 381.17 177.357 391.599 172.038C391.599 172.038 395.687 164.974 408.739 166.055C420.499 167.031 432.663 177.829 427.765 195.047C419.294 224.902 378.739 207.118 390.124 189.376Z"
        fill="#2D2D2D" />
    <circle cx="426.965" cy="165.946" r="10.4138" fill="#2D2D2D" />
    <path
        d="M393.62 467.417C393.62 467.417 402.735 475.987 396.736 481.565C390.737 487.144 356.878 489.18 354.021 485.643C350.941 481.83 374.428 471.297 379.731 468.98L393.62 467.417Z"
        fill="#2D2D2D" />
    <path
        d="M378.116 442.356C378.116 442.356 380.666 468.066 379.747 468.981C378.828 469.895 366.175 475.987 366.175 475.987C366.175 475.987 395.183 476.668 395.183 469.593V442.356H378.116Z"
        fill="white" stroke="#2D2D2D" stroke-width="2" stroke-linecap="round" stroke-linejoin="round" />
    <path
        d="M378.594 292.48C378.594 292.48 366.445 303.725 366.217 353.826C366.009 398.224 373.888 438.196 375.213 446.746C375.371 447.889 376.074 448.884 377.098 449.415C378.729 450.225 381.622 451.233 385.928 451.233C390.535 451.233 393.667 450.293 395.49 449.498C396.706 448.938 397.508 447.746 397.567 446.408L407.602 292.48L378.594 292.48Z"
        fill="#2D2D2D" />
    <path
        d="M432.034 467.417C432.034 467.417 441.15 475.987 435.151 481.565C429.152 487.144 395.298 489.18 392.441 485.643C389.356 481.83 412.843 471.297 418.146 468.98L432.034 467.417Z"
        fill="#2D2D2D" />
    <path
        d="M416.53 442.356C416.53 442.356 419.081 468.066 418.161 468.981C417.242 469.895 404.59 475.987 404.59 475.987C404.59 475.987 433.598 476.668 433.598 469.593V442.356H416.53Z"
        fill="white" stroke="#2D2D2D" stroke-width="2" stroke-linecap="round" stroke-linejoin="round" />
    <path
        d="M398.534 292.48L412.941 445.566C413.06 447.407 414.235 449.011 415.954 449.68C418.983 450.738 422.172 451.265 425.381 451.238C428.735 451.282 432.072 450.755 435.249 449.68C436.975 449.014 438.157 447.407 438.277 445.561C439.934 426.515 450.743 330.064 430.648 290.46L398.534 292.48Z"
        fill="#2D2D2D" />
    <path d="M392.176 317.822L402.87 330.557L404.896 353.546" stroke="white" stroke-width="2" stroke-linecap="round"
        stroke-linejoin="round" />
    <path
        d="M441.389 231.124C442.677 217.386 421.392 215.397 421.392 215.397L393.345 214.27C389.833 214.259 386.349 214.883 383.061 216.114C377.28 218.373 379.16 220.175 375.633 231.514C367.437 257.831 389.252 251.079 372.704 300.292C371.743 303.148 375.514 305.091 379.975 306.119C395.407 309.661 416.214 309.823 431.318 306.41C437.436 305.023 437.072 302.857 436.241 299.949C422.763 252.902 439.462 251.723 441.389 231.124Z"
        fill="#FF7C7C" />
    <path
        d="M376.168 229.903C375.649 231.83 375.098 233.897 374.532 235.705C372.912 240.899 372.216 246.03 374.891 251.671C375.299 252.54 375.668 253.34 375.997 254.071"
        stroke="white" stroke-width="2" stroke-linecap="round" stroke-linejoin="round" />
    <path
        d="M415.476 211.221L414.577 194.652L398.949 195.769L398.902 209.793C398.902 212.156 397.043 213.683 394.7 214.005L390.441 214.649L397.915 245.511L423.49 215.984L418.93 215.293C416.993 214.868 415.58 213.201 415.476 211.221Z"
        fill="white" stroke="#2D2D2D" stroke-width="2" stroke-linecap="round" stroke-linejoin="round" />
    <path d="M397.92 245.501L413.357 227.681H393.609L397.92 245.501Z" fill="#2D2D2D" />
    <path d="M375.649 279.87L396.378 270.952L386.951 235.763L366.217 244.681L375.649 279.87Z" fill="#2D2D2D" />
    <path d="M375.649 279.869L364.747 274.556L355.32 239.367L366.217 244.681L375.649 279.869Z" fill="#2D2D2D" />
    <path d="M366.217 244.681L375.649 279.87" stroke="white" stroke-width="2" stroke-linecap="round"
        stroke-linejoin="round" />
    <path d="M372.595 248.4L383.632 243.45" stroke="white" stroke-width="2" stroke-linecap="round"
        stroke-linejoin="round" />
    <path d="M376.09 250.882L382.069 248.202" stroke="white" stroke-width="2" stroke-linecap="round"
        stroke-linejoin="round" />
    <path
        d="M439.586 226.019C443.742 234.583 446.484 258.657 446.998 265.492C447.512 272.328 443.508 279.194 428.928 276.254C414.796 273.408 395.531 267.653 393.817 267.487C392.103 267.321 384.988 268.894 382.391 267.866C379.794 266.838 377.057 263.332 378.023 262.189C378.023 262.189 380.651 264.604 383.559 264.994C383.559 264.994 377.737 263.617 377.057 260.361C377.057 260.361 381.394 262.703 384.416 262.475C384.416 262.475 375.296 260.917 376.028 258.32C376.703 255.92 379.664 258.475 384.115 258.839C389.008 259.229 387.974 257.93 383.679 257C381.949 256.621 381.601 254.232 384.245 254.274C388.296 254.336 427.604 261.114 427.604 261.114C427.604 261.114 425.08 245.532 423.075 231.986C421.506 221.339 434.86 216.233 439.586 226.019Z"
        fill="white" stroke="#2D2D2D" stroke-width="2" stroke-linecap="round" stroke-linejoin="round" />
    <path
        d="M408.501 256.195C409.508 261.88 408.16 267.73 404.766 272.401C404.766 272.401 425.381 278.519 434.164 278.519C442.947 278.519 448.011 275.138 447.897 266.355C447.782 257.572 446.338 220.082 432.476 220.082C418.613 220.082 422.452 233.706 423.916 241.247C425.381 248.789 427.438 260.153 427.438 260.153L408.501 256.195Z"
        fill="#FF7C7C" />
    <ellipse cx="406.405" cy="264.213" rx="8.3051" ry="1.63609" transform="rotate(-76.71 406.405 264.213)"
        stroke="white" stroke-width="2" stroke-linecap="round" stroke-linejoin="round" />
    <path d="M408.34 256.159L427.614 261.099L423.501 235.706" stroke="white" stroke-width="2" stroke-linecap="round"
        stroke-linejoin="round" />
    <path
        d="M389.247 194.595C389.247 194.595 386.078 194.076 385.668 189.292C385.299 185.018 388.784 184.846 390.628 186.358L389.247 194.595Z"
        fill="white" stroke="#2D2D2D" stroke-width="2" />
    <path
        d="M414.266 189.693C414.266 189.693 419.979 183.418 422.207 188.332C423.672 191.521 421.719 197.463 416.728 196.595C416.38 200.709 414.245 205.425 408.937 209.035C401.208 214.27 389.537 212.982 388.281 197.135C387.837 190.375 388.653 183.591 390.685 177.128C390.685 177.128 399.042 190.139 414.266 189.693Z"
        fill="white" stroke="#2D2D2D" stroke-width="2" />
    <path
        d="M396.986 192.352L395.583 197.904C395.462 198.369 395.59 198.863 395.921 199.212C396.251 199.561 396.738 199.714 397.209 199.618C397.455 199.565 397.695 199.486 397.926 199.384"
        stroke="#2D2D2D" stroke-width="2" stroke-linecap="round" stroke-linejoin="round" />
    <circle cx="405.405" cy="199.934" r="2.37882" fill="#FFB967" />
    <circle cx="389.262" cy="200.272" r="2.71123" fill="#FFB967" />
    <path d="M396.965 207.118C396.965 207.118 400.663 206.977 401.847 204.126" stroke="#2D2D2D" stroke-width="2"
        stroke-linecap="round" stroke-linejoin="round" />
    <circle cx="402.564" cy="194.32" r="1.18422" fill="#2D2D2D" />
    <circle cx="391.953" cy="193.619" r="1.18422" fill="#2D2D2D" />
    <path d="M404.621 189.874C403.392 189.129 401.851 189.129 400.621 189.874" stroke="#2D2D2D" stroke-width="2"
        stroke-linecap="round" stroke-linejoin="round" />
    <path d="M393.952 188.872C392.725 188.127 391.185 188.127 389.958 188.872" stroke="#2D2D2D" stroke-width="2"
        stroke-linecap="round" stroke-linejoin="round" />
    <path d="M413.778 191.162C414.135 190.161 414.741 189.268 415.538 188.565" stroke="#2D2D2D" stroke-width="2"
        stroke-linecap="round" stroke-linejoin="round" />
    <path d="M419.771 189.937C417.791 189.945 416.162 191.501 416.063 193.479" stroke="#2D2D2D" stroke-width="2"
        stroke-linecap="round" stroke-linejoin="round" />
    <path d="M419.294 191.76C418.429 191.291 417.378 191.33 416.551 191.864" stroke="#2D2D2D" stroke-width="2"
        stroke-linecap="round" stroke-linejoin="round" />
    <path d="M390.768 177.128C390.768 177.128 390.768 183.294 397.313 186.176" stroke="#2D2D2D" stroke-width="2"
        stroke-linecap="round" stroke-linejoin="round" />
</svg>
