<svg width="20" height="21" viewBox="0 0 20 21" fill="none" xmlns="http://www.w3.org/2000/svg">
<path d="M19.3949 10.0984C19.6698 9.81763 19.8613 9.46609 19.9479 9.08299C20.0345 8.69988 20.0128 8.30028 19.8853 7.92875C19.7657 7.55612 19.5437 7.22455 19.2447 6.97177C18.9456 6.719 18.5815 6.55519 18.1938 6.49899L13.9 5.83911C13.88 5.83331 13.8615 5.82312 13.8459 5.80928C13.8304 5.79544 13.8181 5.77831 13.81 5.75912L11.9283 1.7598C11.7633 1.38531 11.4928 1.06682 11.1498 0.843147C10.8069 0.619471 10.4062 0.500254 9.99658 0.500018C9.59172 0.498346 9.19499 0.613513 8.85409 0.831675C8.51318 1.04984 8.2426 1.36171 8.07488 1.72981L6.19321 5.72912C6.18294 5.74862 6.16875 5.76579 6.15153 5.77956C6.1343 5.79332 6.11442 5.80338 6.09312 5.80911L1.80933 6.49899C1.42108 6.55677 1.05649 6.721 0.756099 6.97342C0.455709 7.22583 0.231298 7.55653 0.107825 7.92875C-0.0149861 8.30157 -0.0332737 8.70086 0.0549452 9.08333C0.143164 9.46579 0.334522 9.81683 0.608268 10.0984L3.77107 13.3478C3.78017 13.3683 3.78488 13.3904 3.78488 13.4128C3.78488 13.4352 3.78017 13.4573 3.77107 13.4778L3.03041 18.017C2.96156 18.4123 3.00644 18.8191 3.15985 19.1899C3.31326 19.5607 3.56889 19.8804 3.89702 20.1119C4.22514 20.3433 4.61229 20.477 5.01345 20.4973C5.41462 20.5176 5.81331 20.4237 6.16319 20.2266L9.89649 18.157C9.91504 18.1474 9.93564 18.1423 9.95654 18.1423C9.97745 18.1423 9.99805 18.1474 10.0166 18.157L13.7499 20.2266C14.1002 20.4195 14.4978 20.51 14.8972 20.4878C15.2966 20.4656 15.6817 20.3317 16.0085 20.1012C16.3353 19.8707 16.5905 19.553 16.7451 19.1845C16.8997 18.8159 16.9474 18.4114 16.8827 18.017L16.1921 13.4978C16.1815 13.4796 16.176 13.4589 16.176 13.4378C16.176 13.4167 16.1815 13.3961 16.1921 13.3778L19.3949 10.0984Z" fill="#E2EEF8"/>
</svg>
