<svg width="40" height="42" viewBox="0 0 40 42" fill="none" xmlns="http://www.w3.org/2000/svg">
<ellipse cx="20.076" cy="20.8274" rx="19.7677" ry="20.5584" fill="#5EC69D" fill-opacity="0.1"/>
<g clip-path="url(#clip0_686_98088)">
<path d="M26.1249 18.3933L22.2979 18.0479L20.8034 14.3885C20.5346 13.7225 19.6174 13.7225 19.3485 14.3885L17.8541 18.0562L14.035 18.3933C13.3392 18.4509 13.0545 19.3554 13.5843 19.8324L16.4862 22.4474L15.6164 26.3288C15.4583 27.0361 16.1936 27.5952 16.7945 27.217L20.076 25.1611L23.3574 27.2252C23.9583 27.6035 24.6937 27.0443 24.5356 26.3371L23.6658 22.4474L26.5677 19.8324C27.0975 19.3554 26.8207 18.4509 26.1249 18.3933ZM20.076 23.6234V15.9757L21.4281 19.2979L24.8914 19.6104L22.2662 21.9787L23.0569 25.4983L20.076 23.6234Z" fill="#5EC69D"/>
</g>
<defs>
<clipPath id="clip0_686_98088">
<rect width="18.977" height="19.736" fill="white" transform="translate(10.5874 10.9594)"/>
</clipPath>
</defs>
</svg>
