<svg width="14" height="16" viewBox="0 0 14 16" fill="none" xmlns="http://www.w3.org/2000/svg">
    <path
        d="M13.5764 7.71879C13.7689 7.52223 13.9029 7.27611 13.9635 7.00789C14.0241 6.73967 14.009 6.4599 13.9197 6.19979C13.836 5.93891 13.6806 5.70676 13.4713 5.52979C13.2619 5.35282 13.0071 5.23813 12.7357 5.19879L9.73002 4.73679C9.716 4.73273 9.70307 4.7256 9.69216 4.71591C9.68125 4.70622 9.67265 4.69422 9.66697 4.68079L8.3498 1.88079C8.2343 1.6186 8.04498 1.39562 7.80489 1.23902C7.56481 1.08242 7.28432 0.998957 6.9976 0.998792C6.7142 0.997621 6.43649 1.07825 6.19786 1.23099C5.95923 1.38373 5.76982 1.60208 5.65241 1.85979L4.33525 4.65979C4.32806 4.67344 4.31813 4.68546 4.30607 4.6951C4.29401 4.70474 4.2801 4.71178 4.26519 4.71579L1.26653 5.19879C0.994758 5.23924 0.739543 5.35422 0.52927 5.53094C0.318997 5.70766 0.161909 5.9392 0.0754774 6.19979C-0.0104903 6.46081 -0.0232916 6.74036 0.0384616 7.00813C0.100215 7.2759 0.234165 7.52167 0.425787 7.71879L2.63975 9.99379C2.64612 10.0081 2.64941 10.0236 2.64941 10.0393C2.64941 10.055 2.64612 10.0705 2.63975 10.0848L2.12129 13.2628C2.07309 13.5396 2.10451 13.8243 2.2119 14.0839C2.31928 14.3436 2.49822 14.5674 2.72791 14.7294C2.9576 14.8915 3.2286 14.985 3.50942 14.9993C3.79023 15.0135 4.06932 14.9478 4.31423 14.8098L6.92754 13.3608C6.94053 13.354 6.95494 13.3505 6.96958 13.3505C6.98421 13.3505 6.99863 13.354 7.01162 13.3608L9.62493 14.8098C9.87017 14.9448 10.1485 15.0082 10.4281 14.9926C10.7076 14.9771 10.9772 14.8833 11.206 14.7219C11.4347 14.5606 11.6134 14.3382 11.7216 14.0801C11.8298 13.8221 11.8632 13.5389 11.8179 13.2628L11.3344 10.0988C11.3271 10.086 11.3232 10.0715 11.3232 10.0568C11.3232 10.042 11.3271 10.0276 11.3344 10.0148L13.5764 7.71879Z"
        fill="#A4A4A4" />
</svg>
