<svg width="13" height="14" viewBox="0 0 13 14" fill="none" xmlns="http://www.w3.org/2000/svg">
    <path
        d="M12.6388 6.97825C12.2526 6.58176 12.1665 5.97937 12.4259 5.48894C12.6112 5.13941 12.6242 4.72381 12.4606 4.36281C12.2975 4.00236 11.9769 3.73912 11.5934 3.65174C11.0567 3.52886 10.6607 3.06902 10.6169 2.51524C10.5849 2.12038 10.3726 1.76266 10.0416 1.54858C9.71179 1.33395 9.30124 1.28753 8.9313 1.42351C8.4135 1.61302 7.83395 1.44099 7.50031 0.999713C7.26199 0.68514 6.89151 0.5 6.49828 0.5C6.1056 0.5 5.73512 0.68514 5.49681 0.999713C5.16478 1.44154 4.58524 1.61357 4.06744 1.42406C3.69804 1.28862 3.28748 1.33504 2.95709 1.54912C2.62669 1.76321 2.41383 2.12093 2.38242 2.51578C2.338 3.06956 1.94261 3.52995 1.40585 3.65229C1.02238 3.73967 0.701729 4.00291 0.538698 4.36336C0.375666 4.72381 0.388665 5.13996 0.573904 5.48894C0.833346 5.97882 0.747226 6.58176 0.361584 6.97825C0.0858924 7.2606 -0.0430162 7.65655 0.012772 8.04867C0.0685602 8.4408 0.303087 8.78432 0.646483 8.9771C1.12745 9.24744 1.37877 9.80177 1.26611 10.3452C1.18649 10.7329 1.28994 11.136 1.54722 11.4353C1.80504 11.7351 2.18634 11.8962 2.5774 11.8711C3.1277 11.8367 3.63521 12.166 3.83237 12.6843C3.97265 13.0545 4.27651 13.3369 4.65403 13.4483C5.03046 13.5597 5.43777 13.4876 5.75408 13.2533C6.19768 12.924 6.80268 12.924 7.24574 13.2533C7.56205 13.4882 7.96936 13.5603 8.34579 13.4483C8.72331 13.3369 9.02717 13.054 9.16799 12.6843C9.36461 12.166 9.87266 11.8361 10.4224 11.8711C10.8146 11.8962 11.1953 11.7351 11.4526 11.4353C11.7099 11.136 11.8139 10.7329 11.7337 10.3452C11.6216 9.80177 11.8724 9.24744 12.3539 8.9771C12.6967 8.78377 12.9307 8.4408 12.987 8.04867C13.0434 7.65655 12.9139 7.2606 12.6388 6.97825ZM5.82287 9.94376L3.38552 7.56043L4.39133 6.54626L5.82287 7.91487L8.8793 4.75603L9.88512 5.7702L5.82287 9.94376Z"
        fill="#5EC69D" />
</svg>
