<svg width="14" height="15" viewBox="0 0 14 15" fill="none" xmlns="http://www.w3.org/2000/svg">
    <circle cx="7" cy="7.5" r="7" fill="white" />
    <path
        d="M7 0.5C10.871 0.5 14 3.636 14 7.5C14 11.371 10.871 14.5 7 14.5C3.136 14.5 0 11.371 0 7.5C0 3.636 3.136 0.5 7 0.5ZM6.755 3.951C6.468 3.951 6.23 4.182 6.23 4.476V8.011C6.23 8.193 6.328 8.361 6.489 8.459L9.233 10.097C9.317 10.146 9.408 10.174 9.506 10.174C9.681 10.174 9.856 10.083 9.954 9.915C10.101 9.67 10.024 9.348 9.772 9.194L7.28 7.71V4.476C7.28 4.182 7.042 3.951 6.755 3.951Z"
        fill="#FFB967" />
</svg>
