<svg width="489" height="502" viewBox="0 0 489 502" fill="none" xmlns="http://www.w3.org/2000/svg">
<path d="M247.95 271.684C249.562 284.264 230.401 316.353 230.401 316.353C230.401 316.353 203.751 290.062 202.133 277.499C200.518 264.914 209.469 253.41 222.126 251.804C234.782 250.199 246.352 259.099 247.966 271.684H247.95Z" fill="#5EC69D"/>
<path d="M279.382 306.387C276.62 317.692 249.562 338.909 249.562 338.909C249.562 338.909 235.426 307.688 238.203 296.382C240.982 285.078 252.45 278.154 263.818 280.917C275.186 283.68 282.149 295.083 279.37 306.387H279.382Z" fill="#5EC69D"/>
<path d="M226.607 268.983L238.297 403.68" stroke="black" stroke-width="2" stroke-linecap="round" stroke-linejoin="round"/>
<path d="M195.6 290.238C205.264 295.515 218.07 325.149 218.07 325.149C218.07 325.149 186.042 330.305 176.389 325.034C170.023 321.682 165.967 315.179 165.776 308.019C165.584 300.858 169.288 294.151 175.466 290.467C181.644 286.784 189.339 286.696 195.6 290.238Z" fill="#5EC69D"/>
<path d="M231.864 335.06L179.448 301.154" stroke="black" stroke-width="2" stroke-linecap="round" stroke-linejoin="round"/>
<path d="M228.518 425.907L264.223 283.726" stroke="black" stroke-width="2" stroke-linecap="round" stroke-linejoin="round"/>
<path d="M196.832 312.399L197.544 295.894" stroke="black" stroke-width="2" stroke-linecap="round" stroke-linejoin="round"/>
<path d="M208.351 320.141L179.172 320.487" stroke="black" stroke-width="2" stroke-linecap="round" stroke-linejoin="round"/>
<path d="M218.462 349.281C223.642 355.354 224.602 378.773 224.602 378.773C224.602 378.773 201.52 374.012 196.34 367.94C192.987 364.01 191.996 358.6 193.741 353.747C195.486 348.895 199.703 345.336 204.802 344.413C209.901 343.49 215.108 345.341 218.462 349.27V349.281Z" fill="#5EC69D"/>
<path d="M231.378 389.057L204.646 352.526" stroke="black" stroke-width="2" stroke-linecap="round" stroke-linejoin="round"/>
<path d="M213.514 364.639L218.302 353.625" stroke="black" stroke-width="2" stroke-linecap="round" stroke-linejoin="round"/>
<path d="M219.312 372.87L199.416 365.573L219.312 372.87Z" fill="white"/>
<path d="M219.312 372.87L199.416 365.573" stroke="black" stroke-width="2" stroke-linecap="round" stroke-linejoin="round"/>
<path d="M243.974 303.696L255.521 318.379" stroke="black" stroke-width="2" stroke-linecap="round" stroke-linejoin="round"/>
<path d="M258.188 307.748L276.88 301.835" stroke="black" stroke-width="2" stroke-linecap="round" stroke-linejoin="round"/>
<path d="M255.382 288.486L261.341 295.191" stroke="black" stroke-width="2" stroke-linecap="round" stroke-linejoin="round"/>
<path d="M229.324 300.275L214.58 293.324" stroke="black" stroke-width="2" stroke-linecap="round" stroke-linejoin="round"/>
<path d="M228.186 287.201L241.318 273.496" stroke="black" stroke-width="2" stroke-linecap="round" stroke-linejoin="round"/>
<path d="M196.998 386.186H272.396C273.252 386.186 274.065 386.557 274.625 387.201C275.184 387.844 275.435 388.698 275.312 389.54L260.352 493.06C259.709 497.508 255.876 500.81 251.357 500.808H218.042C213.521 500.812 209.684 497.51 209.041 493.06L194.082 389.54C193.958 388.698 194.209 387.844 194.769 387.201C195.328 386.557 196.142 386.186 196.998 386.186V386.186Z" fill="white" stroke="black" stroke-width="2" stroke-linecap="round" stroke-linejoin="round"/>
<path d="M196.125 403.68H273.263L275.306 389.54C275.43 388.698 275.179 387.844 274.619 387.201C274.06 386.557 273.246 386.186 272.39 386.186H196.998C196.142 386.186 195.328 386.557 194.769 387.201C194.209 387.844 193.958 388.698 194.082 389.54L196.125 403.68Z" fill="black"/>
<rect x="272.589" y="1" width="210.104" height="382.232" rx="57.38" fill="white" stroke="black" stroke-width="2"/>
<rect x="283.954" y="12.6023" width="187.375" height="359.038" rx="39.15" fill="white" stroke="black" stroke-width="2"/>
<path d="M482.693 70.1522C484.101 70.1522 485.451 70.7082 486.446 71.6977C487.441 72.6873 488 74.0295 488 75.429V148.397C488 151.312 485.624 153.674 482.693 153.674V70.1522H482.693Z" fill="white" stroke="black" stroke-width="2"/>
<path d="M482.693 172.623C485.624 172.623 488 174.986 488 177.9V195.855C488 197.254 487.441 198.597 486.446 199.586C485.451 200.576 484.101 201.132 482.693 201.132V172.623H482.693Z" fill="white" stroke="black" stroke-width="2"/>
<path d="M449.71 12.6023H305.584C299.851 12.6008 294.352 14.8645 290.297 18.895C286.243 22.9256 283.965 28.3928 283.965 34.0936V34.7361H471.329V34.0826C471.323 22.2155 461.645 12.5993 449.71 12.6023Z" fill="black"/>
<path d="M300.824 25.05V29.893" stroke="white" stroke-width="2" stroke-linecap="round" stroke-linejoin="round"/>
<path d="M305.86 23.0184V29.893" stroke="white" stroke-width="2" stroke-linecap="round" stroke-linejoin="round"/>
<path d="M310.89 20.9813V29.893" stroke="white" stroke-width="2" stroke-linecap="round" stroke-linejoin="round"/>
<path d="M315.926 18.9497V29.893" stroke="white" stroke-width="2" stroke-linecap="round" stroke-linejoin="round"/>
<path fill-rule="evenodd" clip-rule="evenodd" d="M433.403 21.9532H435.75V26.895H433.403C433.056 26.895 432.774 26.6148 432.774 26.2691V22.5902C432.771 22.4223 432.836 22.2602 432.954 22.1405C433.073 22.0207 433.234 21.9532 433.403 21.9532Z" stroke="white" stroke-width="2" stroke-linecap="round" stroke-linejoin="round"/>
<rect x="435.745" y="18.9497" width="21.4091" height="10.9488" rx="4.56" stroke="white" stroke-width="2" stroke-linecap="round" stroke-linejoin="round"/>
<rect x="296.224" y="83.7861" width="162.835" height="199.198" rx="27.71" fill="white" stroke="black" stroke-width="2"/>
<path d="M337.253 53.9431H418.03" stroke="black" stroke-width="2" stroke-linecap="round" stroke-linejoin="round"/>
<path d="M358.535 63.9585H396.748" stroke="black" stroke-width="2" stroke-linecap="round" stroke-linejoin="round"/>
<path d="M63.3302 120.07C56.7037 119.823 47.5425 111.477 44.2403 97.9087C36.3769 65.5124 57.8744 54.2616 77.4832 54.4373C91.5866 54.5581 97.6609 58.3468 100.516 67.7417C103.476 73.282 104.834 84.0552 101.289 93.7026C98.7653 100.627 94.7011 121.239 63.3302 120.07Z" fill="black"/>
<path d="M124.288 144.91C118.313 139.584 109.931 135.796 100.052 147.694C90.1729 159.593 127.751 212.926 136.315 224.984C146.36 239.085 161.065 230.475 163.583 222.134C167.692 208.561 130.241 150.237 124.288 144.91Z" fill="white" stroke="black" stroke-width="2" stroke-linecap="round" stroke-linejoin="round"/>
<path d="M138.762 163.431C138.762 163.431 124.404 138.646 111.902 135.34C97.9977 131.678 85.5123 144.005 92.3265 159.379C99.1408 174.754 106.303 184.275 108.854 186.641C112.604 190.112 123.764 186.455 132.66 179.503C141.556 172.552 141.722 168.483 138.762 163.431Z" fill="#4992FF"/>
<path d="M162.093 226.653C152.882 238.448 135.299 232.809 135.272 219.746C135.211 202.472 182.701 172.277 182.701 172.277C182.701 172.277 187.168 160.197 189.443 159.017C191.718 157.836 188.991 167.72 188.991 167.72C188.991 167.72 191.376 154.602 193.795 155.019C196.213 155.437 193.552 166.347 193.552 166.347C193.552 166.347 196.506 153.339 199.482 153.339C202.459 153.339 198.163 167.127 198.163 167.127C198.163 167.127 206.606 155.854 208.815 156.87C211.024 157.886 176.627 208.1 162.093 226.653Z" fill="white" stroke="black" stroke-width="2" stroke-linecap="round" stroke-linejoin="round"/>
<path d="M85.54 446.552C85.54 446.552 87.9477 468.12 89.8583 478.399C91.2554 485.889 116.613 482.858 116.745 477.664C117.137 462.437 115.751 444.372 115.751 444.372L85.54 446.552Z" fill="white" stroke="black" stroke-width="2"/>
<path d="M150.607 500.725H86.6168C85.0786 500.729 83.6084 500.095 82.5602 498.976C81.5121 497.857 80.9809 496.353 81.0947 494.828C81.5586 488.64 83.2373 478.943 88.9306 472.612C88.9306 472.612 103.288 477.619 116.823 471.717C116.823 471.717 121.301 477.411 134.002 479.283C147.774 481.315 154.157 487.086 155.969 493.911C156.378 495.551 156.005 497.287 154.958 498.618C153.911 499.949 152.306 500.726 150.607 500.725Z" fill="white" stroke="black" stroke-width="2"/>
<path fill-rule="evenodd" clip-rule="evenodd" d="M150.607 500.725C152.305 500.724 153.909 499.946 154.955 498.616C156.001 497.285 156.372 495.55 155.963 493.911C154.268 487.52 148.564 482.056 136.542 479.717C130.026 485.757 128.01 494.96 127.397 500.725H150.607Z" stroke="black" stroke-width="2" stroke-linecap="round" stroke-linejoin="round"/>
<path d="M81.0947 494.828C80.9809 496.353 81.5121 497.857 82.5602 498.976C83.6084 500.095 85.0786 500.729 86.6168 500.725H150.607C152.305 500.724 153.909 499.946 154.954 498.616C156 497.285 156.372 495.55 155.963 493.911C155.961 493.898 155.961 493.885 155.963 493.873H81.1721C81.1444 494.197 81.0947 494.52 81.0947 494.828Z" fill="white" stroke="black" stroke-width="2"/>
<path d="M121.262 482.847C121.262 482.847 121.886 480.327 125.227 477.038" stroke="black" stroke-width="2" stroke-linecap="round" stroke-linejoin="round"/>
<path d="M117.297 480.98C117.297 480.98 117.921 478.46 121.262 475.171" stroke="black" stroke-width="2" stroke-linecap="round" stroke-linejoin="round"/>
<path d="M127.149 484.895C127.149 484.895 127.778 482.375 131.119 479.086" stroke="black" stroke-width="2" stroke-linecap="round" stroke-linejoin="round"/>
<path d="M25.7912 440.721C25.7912 440.721 24.6537 461.433 23.0965 477.038C22.3455 484.615 51.1541 482.814 51.2922 477.62C51.6843 462.393 53.1531 442.165 53.1531 442.165L25.7912 440.721Z" fill="white" stroke="black" stroke-width="2"/>
<path d="M85.148 500.725H21.1361C19.5979 500.73 18.1277 500.096 17.0795 498.976C16.0313 497.857 15.5002 496.353 15.614 494.828C16.0779 488.64 17.7511 478.943 23.4499 472.612C23.4499 472.612 37.8073 477.62 51.3363 471.717C51.3363 471.717 55.8148 477.411 68.5155 479.283C82.2876 481.315 88.6766 487.086 90.4823 493.911C90.8907 495.546 90.5215 497.278 89.4806 498.607C88.4397 499.937 86.8425 500.718 85.148 500.725Z" fill="white" stroke="black" stroke-width="2"/>
<path fill-rule="evenodd" clip-rule="evenodd" d="M85.1481 500.725C86.8465 500.725 88.45 499.947 89.4959 498.616C90.5419 497.285 90.9138 495.55 90.5045 493.911C88.8148 487.52 83.1049 482.056 71.0834 479.717C64.5673 485.757 62.5518 494.96 61.9443 500.725H85.1481Z" stroke="black" stroke-width="2" stroke-linecap="round" stroke-linejoin="round"/>
<path d="M15.636 494.828C15.5222 496.354 16.0533 497.857 17.1015 498.976C18.1497 500.096 19.6199 500.73 21.1581 500.725H85.1479C86.8463 500.725 88.4498 499.947 89.4957 498.616C90.5417 497.285 90.9136 495.55 90.5043 493.911C90.5076 493.899 90.5076 493.885 90.5043 493.873H15.7133C15.6857 494.197 15.6581 494.521 15.636 494.828Z" fill="white" stroke="black" stroke-width="2"/>
<path d="M55.8093 482.847C55.8093 482.847 56.4333 480.327 59.7742 477.038" stroke="black" stroke-width="2" stroke-linecap="round" stroke-linejoin="round"/>
<path d="M51.8279 480.98C51.8279 480.98 52.4519 478.46 55.7927 475.171" stroke="black" stroke-width="2" stroke-linecap="round" stroke-linejoin="round"/>
<path d="M61.6958 484.895C61.6958 484.895 62.3198 482.375 65.6607 479.086" stroke="black" stroke-width="2" stroke-linecap="round" stroke-linejoin="round"/>
<path d="M121.262 450.731C118.236 375.193 115.508 230.546 115.508 230.546L60.3042 239.546C60.3042 239.546 81.3378 449.611 82.9447 455.036C85.1867 462.432 121.759 463.069 121.262 450.731Z" fill="black"/>
<path d="M19.2476 451.225C17.8616 410.395 25.3219 233.083 25.3219 233.083L83.9277 239.546C83.9277 239.546 59.3876 445.366 57.7917 454.97C56.8585 460.554 19.6618 463.574 19.2476 451.225Z" fill="black"/>
<path d="M73.5903 332.199L81.0451 272.321" stroke="white" stroke-width="2" stroke-linecap="round" stroke-linejoin="round"/>
<path d="M17.5357 156.123C15.6802 134.582 50.773 131.963 50.773 131.963L93.4421 130.316C99.0225 130.843 104.505 132.123 109.738 134.121C118.822 137.734 121.947 138.947 121.146 157.54C120.633 169.301 117.679 227.213 116.729 237.031C116.276 241.726 112.311 244.235 108.103 246.448C93.1936 254.311 47.8629 255.502 33.1797 251.044C28.6185 249.66 24.8966 245.388 24.3444 240.683C22.3288 222.689 20.3188 188.426 17.5357 156.123Z" fill="#4992FF"/>
<path d="M58.6198 125.248L60.2212 99.3088L84.8442 101.247L84.7448 123.211C84.7244 126.914 87.4487 130.068 91.1338 130.607L93.2874 130.92C93.2874 130.92 97.2247 147.096 74.2363 146.992C55.0139 146.909 50.8889 132.562 50.8889 132.562L53.048 132.013C56.1825 131.195 58.4317 128.464 58.6198 125.248Z" fill="white" stroke="black" stroke-width="2"/>
<path d="M124.167 161.026C124.167 161.026 124.228 183.846 121.135 191.698" stroke="white" stroke-width="2" stroke-linecap="round" stroke-linejoin="round"/>
<path d="M100.157 99.5285C100.157 99.5285 105.16 98.7378 105.867 91.2592C106.496 84.5713 101.04 84.2583 98.0862 86.6029L100.157 99.5285Z" fill="white" stroke="black" stroke-width="2"/>
<path d="M60.7956 91.5338C60.7956 91.5338 51.905 81.6502 48.2936 89.299C45.9522 94.2792 48.9562 103.614 56.8252 102.318C57.3277 108.77 60.6299 116.193 68.9738 121.909C81.0892 130.206 99.4887 128.328 101.67 103.515C103.133 86.8446 98.2352 75.5608 98.2352 75.5608C98.2352 75.5608 91.3768 79.9535 72.0772 79.9535C66.9692 79.926 67.6319 90.8145 60.7956 91.5338Z" fill="white" stroke="black" stroke-width="2"/>
<path d="M87.992 95.9099L90.1345 104.629C90.3118 105.359 90.1021 106.128 89.5785 106.669C89.055 107.209 88.2901 107.447 87.5502 107.298C87.1712 107.205 86.8016 107.079 86.4458 106.919" stroke="black" stroke-width="2" stroke-linecap="round" stroke-linejoin="round"/>
<path d="M91.1118 90.3312C91.1118 90.3312 93.5802 89.7272 97.1861 89.1451" stroke="black" stroke-width="5" stroke-linecap="round" stroke-linejoin="round"/>
<path d="M73.0547 91.7534L79.1787 91.693" stroke="black" stroke-width="5" stroke-linecap="round" stroke-linejoin="round"/>
<ellipse cx="73.5903" cy="109.72" rx="3.74949" ry="3.72831" fill="#5EC69D"/>
<ellipse cx="100.179" cy="107.369" rx="4.27409" ry="4.24995" fill="#5EC69D"/>
<path d="M87.8372 119.071C87.8372 119.071 82.0169 118.807 80.1836 114.326" stroke="black" stroke-width="2" stroke-linecap="round" stroke-linejoin="round"/>
<ellipse cx="79.1787" cy="98.9245" rx="1.86646" ry="1.85592" fill="black"/>
<ellipse cx="95.905" cy="97.9526" rx="1.86646" ry="1.85592" fill="black"/>
<path d="M61.5467 93.8399C61.5467 93.8399 60.6079 91.1274 58.7856 89.7821" stroke="black" stroke-width="2" stroke-linecap="round" stroke-linejoin="round"/>
<path d="M52.0872 91.8413C52.0872 91.8413 57.2558 91.7589 57.8853 97.4365" stroke="black" stroke-width="2" stroke-linecap="round" stroke-linejoin="round"/>
<path d="M52.8494 94.7075C54.2145 93.9816 55.8699 94.0575 57.1621 94.9052" stroke="black" stroke-width="2" stroke-linecap="round" stroke-linejoin="round"/>
<path d="M42.7273 81.6941L56.2454 82.4024C56.2454 82.4024 60.4532 67.0279 83.1103 65.6497C101.537 64.5515 102.94 75.5058 102.94 75.5058C102.94 75.5058 103.735 55.6014 83.6901 52.7022C61.2152 49.4845 41.1977 59.6262 42.7273 81.6941Z" fill="#5EC69D"/>
<path d="M91.4045 66.1714C91.4045 66.1714 102.101 66.3855 103.343 79.1738C103.343 79.1738 105.85 78.5314 107.026 76.8457C109.158 73.7818 110.715 66.7644 91.4045 66.1714Z" fill="white" stroke="black" stroke-width="2" stroke-linecap="round" stroke-linejoin="round"/>
<path d="M56.2454 82.4024C56.2454 82.4024 67.665 83.4018 70.288 83.4402C71.8287 83.4677 76.0972 84.4725 77.925 79.7833C81.0174 71.8599 97.0977 62.2124 107.562 70.9979C107.562 70.9979 99.5771 60.5981 82.2875 63.5412C64.9979 66.4843 59.5586 74.847 56.2454 82.4024Z" fill="white" stroke="black" stroke-width="2" stroke-linecap="round" stroke-linejoin="round"/>
<path d="M49.1441 82.029C49.1441 82.029 46.6868 57.7593 74.7058 51.6095" stroke="black" stroke-width="2" stroke-linecap="round" stroke-linejoin="round"/>
<path d="M152.059 225.16H86.6886C84.0325 225.16 82.2709 223.024 82.7292 220.383L90.6534 175.714C91.1965 173.013 93.534 171.037 96.3025 170.937H161.673C162.891 170.896 164.06 171.42 164.835 172.356C165.609 173.292 165.902 174.533 165.627 175.714L157.708 220.383C157.165 223.084 154.827 225.061 152.059 225.16Z" fill="black"/>
<path d="M131.495 199.77C130.502 199.806 129.549 199.38 128.917 198.618C128.285 197.856 128.046 196.845 128.27 195.883C128.425 195.053 128.807 194.281 129.374 193.653C128.581 193.285 127.715 193.097 126.84 193.104C123.064 193.238 119.876 195.933 119.136 199.616C118.496 203.213 120.914 206.129 124.531 206.129C128.273 205.997 131.444 203.347 132.218 199.704C131.979 199.748 131.737 199.77 131.495 199.77Z" fill="white" stroke="black" stroke-width="2" stroke-linecap="round" stroke-linejoin="round"/>
<path d="M7.81126 187.267C7.81126 187.267 2.20083 203.152 1.12955 213.86C0.0582651 224.567 5.32633 237.58 28.4031 233.528C50.773 229.597 84.3914 218.703 87.0972 218.494C89.803 218.285 100.985 221.031 105.072 219.521C109.158 218.011 113.675 212.641 112.162 210.79C112.162 210.79 107.938 214.475 103.327 214.974C103.327 214.974 112.548 213.036 113.747 207.968C113.747 207.968 106.828 211.466 102.073 210.993C102.073 210.993 116.497 208.879 115.442 204.789C114.47 201.006 109.754 204.893 102.681 205.283C94.9496 205.706 96.6394 203.713 103.437 202.411C106.198 201.89 106.806 198.161 102.653 198.123C96.2694 198.068 34.0853 207.205 34.0853 207.205L39.9553 190.782L7.81126 187.267Z" fill="white" stroke="black" stroke-width="2" stroke-linecap="round" stroke-linejoin="round"/>
<path d="M40.7836 197.392C40.7836 197.392 55.5882 158.281 49.6962 146.81C42.7329 133.231 25.2831 134.412 17.2153 149.15C9.14758 163.887 2.62601 183.819 2.30573 187.267C1.82531 192.335 12.9965 198.145 24.1235 199.814C35.2504 201.483 38.5747 202.801 40.7836 197.392Z" fill="#4992FF"/>
<path d="M25.3218 214.392C25.3218 214.392 28.5025 209.28 34.1074 207.205" stroke="black" stroke-width="2" stroke-linecap="round" stroke-linejoin="round"/>
<path d="M48.7851 169.301L42.0537 193.84" stroke="white" stroke-width="2" stroke-linecap="round" stroke-linejoin="round"/>
<rect x="296.224" y="305.42" width="162.835" height="28.602" rx="14.301" fill="#4992FF"/>
<ellipse cx="310.697" cy="319.609" rx="9.70781" ry="9.65298" fill="white"/>
<path d="M332.57 319.609H440.803" stroke="white" stroke-width="2" stroke-linecap="round" stroke-linejoin="round"/>
<path d="M361.147 118.889C361.147 118.889 356.453 118.11 355.846 111.087C355.293 104.8 360.423 104.547 363.185 106.771L361.147 118.889Z" fill="white" stroke="black" stroke-width="2"/>
<path d="M362.439 111.208C362.439 111.208 349.186 93.5269 364.648 85.7024C364.648 85.7024 370.722 75.3082 390.049 76.917C407.45 78.3501 425.446 94.2407 418.212 119.57C405.6 163.486 345.553 137.339 362.439 111.208Z" fill="black"/>
<ellipse cx="416.958" cy="76.7358" rx="15.4121" ry="15.3251" fill="black"/>
<ellipse rx="12.1356" ry="4.52724" transform="matrix(0.502126 -0.864795 0.867247 0.497877 291.275 195.674)" fill="white" stroke="black" stroke-width="2" stroke-linecap="round" stroke-linejoin="round"/>
<path d="M300.376 189.48C300.376 189.48 281.668 180.837 279.558 178.35C277.449 175.863 277.902 165.99 274.483 165.106C272.07 164.48 271.86 174.819 271.86 174.819C271.86 174.819 259.458 164.546 256.907 165.93C254.355 167.313 263.931 174.715 263.931 174.715C263.931 174.715 249.253 165.194 246.812 166.72C244.371 168.247 259.397 178.762 259.397 178.762C259.397 178.762 246.039 171.882 244.896 173.414C243.753 174.946 256.134 183.056 256.134 183.056C256.134 183.056 247.375 179.152 246.326 181.161C245.04 183.621 260.628 191.984 266.913 193.483C273.197 194.982 277.675 196.953 281.397 199.479C285.119 202.005 290.751 206.392 290.751 206.392C290.751 206.392 297.869 200.813 300.376 189.48Z" fill="white" stroke="black" stroke-width="2" stroke-linecap="round" stroke-linejoin="round"/>
<path d="M271.86 174.819C271.86 174.819 266.984 180.629 271.86 187.086" stroke="black" stroke-width="2" stroke-linecap="round" stroke-linejoin="round"/>
<path d="M321.151 198.743C321.151 198.743 342.985 158.66 346.348 154.454C351.632 147.865 374.687 151.252 368.961 171.426C364.543 186.987 345.321 220.048 339.467 225.264C333.614 230.48 322.514 231.304 313.144 225.72C303.773 220.136 284.616 206.502 284.616 206.502C284.616 206.502 287.626 206.76 291.276 202.949C295.694 198.348 300.664 189.074 297.649 184.829L321.151 198.743Z" fill="black"/>
<path d="M438.301 172.64C440.201 152.428 408.703 149.495 408.703 149.495L367.221 147.848C362.027 147.83 356.873 148.747 352.008 150.555C343.449 153.883 346.237 156.535 341.013 173.222C328.865 211.938 361.163 202.005 336.679 274.419C335.259 278.614 337.871 282.99 344.669 282.99H421.978C431.261 282.99 431.918 278.185 430.697 273.908C410.763 204.679 435.446 202.949 438.301 172.64Z" fill="black"/>
<path d="M341.792 170.839C341.047 173.677 340.207 176.719 339.368 179.377C336.971 186.998 335.944 194.57 339.92 202.872C340.527 204.146 341.074 205.327 341.577 206.403" stroke="white" stroke-width="2" stroke-linecap="round" stroke-linejoin="round"/>
<path d="M399.956 143.351L398.642 118.983L375.51 120.63L375.421 141.259C375.421 144.74 372.66 146.981 369.209 147.458L362.925 148.397L373.969 193.807L411.817 150.363L405.069 149.342C402.154 148.54 400.116 146.366 399.956 143.351Z" fill="white" stroke="black" stroke-width="2" stroke-linecap="round" stroke-linejoin="round"/>
<path d="M373.98 193.791L396.819 167.572H367.602L373.98 193.791Z" fill="#4992FF"/>
<path d="M398.161 111.68C398.161 111.68 406.583 102.444 409.918 109.67C412.077 114.365 409.189 123.106 401.811 121.832C401.287 127.872 398.134 134.835 390.254 140.139C378.818 147.826 361.539 145.948 359.689 122.629C358.441 106.969 363.273 93.192 363.273 93.192C363.273 93.192 375.637 112.333 398.161 111.68Z" fill="white" stroke="black" stroke-width="2"/>
<path d="M372.594 115.595L370.518 123.76C370.338 124.444 370.525 125.172 371.014 125.685C371.502 126.199 372.223 126.426 372.92 126.285C373.283 126.202 373.638 126.086 373.98 125.94" stroke="black" stroke-width="2" stroke-linecap="round" stroke-linejoin="round"/>
<ellipse cx="385.052" cy="126.752" rx="3.52308" ry="3.50318" fill="#5EC69D"/>
<ellipse cx="361.163" cy="127.241" rx="4.01455" ry="3.99187" fill="#5EC69D"/>
<path d="M372.567 137.339C372.567 137.339 378.034 137.13 379.79 132.946" stroke="black" stroke-width="2" stroke-linecap="round" stroke-linejoin="round"/>
<ellipse cx="380.85" cy="118.483" rx="1.7505" ry="1.74061" fill="black"/>
<ellipse cx="365.15" cy="117.451" rx="1.7505" ry="1.74061" fill="black"/>
<path d="M383.887 111.943C383.887 111.943 380.932 110.038 377.973 111.943" stroke="black" stroke-width="2" stroke-linecap="round" stroke-linejoin="round"/>
<path d="M368.105 110.472C368.105 110.472 365.151 108.566 362.191 110.472" stroke="black" stroke-width="2" stroke-linecap="round" stroke-linejoin="round"/>
<path d="M397.438 113.843C397.438 113.843 398.344 111.301 400.05 110.049" stroke="black" stroke-width="2" stroke-linecap="round" stroke-linejoin="round"/>
<path d="M406.345 112.037C406.345 112.037 401.491 111.921 400.856 117.248" stroke="black" stroke-width="2" stroke-linecap="round" stroke-linejoin="round"/>
<path d="M405.6 114.716C404.322 114.028 402.768 114.087 401.546 114.87" stroke="black" stroke-width="2" stroke-linecap="round" stroke-linejoin="round"/>
<path d="M341.019 244.361L371.7 231.238L357.745 179.459L327.065 192.588L341.019 244.361Z" fill="#5EC69D"/>
<path d="M341.019 244.361L324.894 236.537L310.94 184.763L327.065 192.588L341.019 244.361Z" fill="#5EC69D"/>
<path d="M327.065 192.588L341.019 244.361" stroke="white" stroke-width="2" stroke-linecap="round" stroke-linejoin="round"/>
<path d="M336.502 198.057L352.831 190.771" stroke="white" stroke-width="2" stroke-linecap="round" stroke-linejoin="round"/>
<path d="M341.676 201.708L350.522 197.76" stroke="white" stroke-width="2" stroke-linecap="round" stroke-linejoin="round"/>
<path d="M435.612 165.128C441.725 177.724 445.822 213.146 446.579 223.222C447.335 233.297 441.416 243.379 419.841 239.057C398.934 234.868 370.424 226.428 367.889 226.154C365.355 225.879 354.796 228.224 350.997 226.703C347.198 225.182 343.101 220.026 344.536 218.351C344.536 218.351 348.402 221.904 352.726 222.48C352.726 222.48 344.111 220.449 343.101 215.661C343.101 215.661 349.517 219.103 353.99 218.768C353.99 218.768 340.5 216.462 341.582 212.641C342.582 209.11 346.922 212.866 353.548 213.393C360.793 213.942 359.258 212.053 352.902 210.68C350.346 210.131 349.843 206.617 353.736 206.672C359.733 206.765 417.897 216.731 417.897 216.731C417.897 216.731 412.022 193.719 411.193 173.875C410.553 158.083 428.638 150.725 435.612 165.128Z" fill="white" stroke="black" stroke-width="2" stroke-linecap="round" stroke-linejoin="round"/>
<path d="M389.63 209.527C391.123 217.89 389.129 226.498 384.108 233.369C384.108 233.369 414.628 242.368 427.605 242.368C440.582 242.368 448.097 237.399 447.932 224.479C447.766 211.559 445.596 156.392 425.104 156.392C404.611 156.392 410.277 176.434 412.419 187.531C414.562 198.628 417.632 215.348 417.632 215.348L389.63 209.527Z" fill="black"/>
<ellipse rx="12.2264" ry="2.41795" transform="matrix(0.231116 -0.972926 0.973509 0.228649 386.544 221.344)" stroke="white" stroke-width="2" stroke-linecap="round" stroke-linejoin="round"/>
<path d="M389.398 209.478L417.914 216.742L411.828 179.377" stroke="white" stroke-width="2" stroke-linecap="round" stroke-linejoin="round"/>
<path d="M363.273 93.192C363.273 93.192 363.273 101.577 372.219 105.497" stroke="black" stroke-width="2" stroke-linecap="round" stroke-linejoin="round"/>
<path d="M298.985 492.753C298.985 492.753 289.862 476.571 297.008 458.632C304.153 440.694 293.441 425.347 271.811 430.36C271.811 430.36 268.613 430.865 268.895 432.974C269.21 435.346 270.679 435.521 272.76 435.17C273.76 435.005 286.566 431.14 291.397 440.232C296.229 449.325 289.233 459.028 287.532 466.397C284.451 479.926 287.532 490.309 291.513 496.92C294.639 502.17 301.884 498.167 298.985 492.753Z" fill="#FF4E95"/>
<path d="M369.303 439.299L380.115 492.303C380.115 492.303 390.452 492.731 391.22 500.726H373.726C372.138 500.727 370.721 499.733 370.192 498.244L353.278 450.841L369.303 439.299Z" fill="black"/>
<path d="M340.853 452.043L349.468 492.303C349.468 492.303 359.805 492.731 360.573 500.726H337.363L321.747 463.574L340.853 452.043Z" fill="black"/>
<path d="M363.582 429.904C363.582 429.904 374.869 440.584 372.252 459.472C368.834 484.105 335.254 490.062 335.254 490.062C335.254 490.062 338.263 489.705 342.311 491.32C350.268 494.493 349.341 500.725 349.341 500.725H298.3C296.107 500.723 294.006 499.846 292.467 498.29C290.929 496.735 290.082 494.632 290.116 492.451C290.288 480.107 294.07 457.562 316.683 446.174C329.798 439.584 328.037 432.205 328.037 432.205C328.037 432.205 342.841 438.536 347.966 437.811C355.929 436.669 363.582 429.904 363.582 429.904Z" fill="#FF4E95"/>
<path d="M356.878 449.946L365.404 492.302C365.404 492.302 375.747 492.731 376.515 500.726H360.103C357.876 500.725 355.901 499.3 355.211 497.195L340.632 452.527L356.878 449.946Z" fill="#FF4E95"/>
<path d="M367.818 435.247C363.174 439.552 347.977 450.923 328.412 437.481C327.461 436.825 327.037 435.639 327.357 434.533L328.037 432.205C328.246 431.482 328.753 430.881 329.433 430.549C330.112 430.218 330.9 430.187 331.604 430.464C337.126 432.633 350.202 436.235 363.08 428.235C363.712 427.84 364.48 427.723 365.202 427.914C365.924 428.104 366.533 428.585 366.884 429.24L368.375 432.029C368.942 433.104 368.713 434.423 367.818 435.247Z" fill="black"/>
<path fill-rule="evenodd" clip-rule="evenodd" d="M339.997 444.411V438.316C339.997 437.406 340.739 436.669 341.654 436.669H351.798C352.713 436.669 353.455 437.406 353.455 438.316V444.411C353.455 445.321 352.713 446.058 351.798 446.058H341.654C340.739 446.058 339.997 445.321 339.997 444.411ZM341.762 438.626C341.67 438.717 341.619 438.841 341.621 438.97V443.758C341.619 443.886 341.67 444.01 341.762 444.101C341.853 444.192 341.977 444.242 342.107 444.241H351.345C351.475 444.242 351.6 444.192 351.692 444.101C351.785 444.011 351.837 443.887 351.837 443.758V438.97C351.837 438.841 351.785 438.717 351.692 438.626C351.6 438.535 351.475 438.485 351.345 438.486H342.107C341.977 438.485 341.853 438.535 341.762 438.626Z" fill="white"/>
<path d="M351.036 484.412L344.227 463.574" stroke="black" stroke-width="2" stroke-linecap="round" stroke-linejoin="round"/>
<path d="M335.226 490.062L324.375 488.92C324.375 488.92 337.91 471.53 321.184 462.394" stroke="black" stroke-width="2" stroke-linecap="round" stroke-linejoin="round"/>
<path d="M299.659 461.186C299.659 461.186 293.225 469.312 290.928 483.588" stroke="black" stroke-width="2" stroke-linecap="round" stroke-linejoin="round"/>
<path d="M430.637 500.725H252.892" stroke="black" stroke-width="2" stroke-linecap="round" stroke-linejoin="round"/>
<path d="M344.1 398.106L326.827 389.14C326.358 388.895 325.807 388.858 325.31 389.039C324.812 389.22 324.415 389.602 324.215 390.09C322.592 394.087 319.798 403.669 326.905 410.499L344.1 398.106Z" fill="#FF4E95"/>
<path d="M341.566 400.978L328.749 394.318C328.273 394.069 327.712 394.036 327.21 394.226C326.707 394.416 326.31 394.811 326.121 395.311C324.867 398.606 323.199 405.508 328.374 410.488L341.566 400.978Z" fill="black"/>
<path d="M349.887 398.106L367.138 389.14C367.607 388.895 368.159 388.858 368.656 389.039C369.153 389.22 369.551 389.602 369.75 390.09C371.374 394.087 374.168 403.669 367.067 410.499L349.887 398.106Z" fill="#FF4E95"/>
<path d="M352.422 400.978L365.244 394.318C365.721 394.071 366.281 394.039 366.783 394.228C367.285 394.418 367.681 394.812 367.873 395.311C369.121 398.606 370.794 405.508 365.62 410.488L352.422 400.978Z" fill="black"/>
<path d="M346.32 439.573C353.698 439.573 367.304 434.115 372.71 425.297C378.116 416.479 365.918 396.745 348.452 395.278C330.985 393.812 320.101 411.444 320.101 420.053C320.101 428.432 337.976 439.579 346.32 439.573Z" fill="#FF4E95"/>
<path d="M345.525 395.213C346.501 395.177 347.478 395.199 348.452 395.278C363.499 396.547 374.659 411.367 373.986 421.086C366.354 425.588 356.658 424.595 350.109 418.641C343.559 412.687 341.698 403.174 345.525 395.213Z" fill="black"/>
<path d="M361.975 415.804C361.899 413.849 360.284 412.304 358.317 412.304C356.35 412.304 354.735 413.849 354.659 415.804" stroke="white" stroke-width="2" stroke-linecap="round" stroke-linejoin="round"/>
<path d="M339.793 415.803C339.793 413.796 338.156 412.168 336.138 412.168C334.119 412.168 332.482 413.796 332.482 415.803" stroke="black" stroke-width="2" stroke-linecap="round" stroke-linejoin="round"/>
<path d="M340.809 427.054C340.809 428.628 342.092 429.904 343.675 429.904C345.258 429.904 346.541 428.628 346.541 427.054C346.609 428.581 347.873 429.785 349.41 429.785C350.947 429.785 352.211 428.581 352.279 427.054" stroke="black" stroke-width="2" stroke-linecap="round" stroke-linejoin="round"/>
<path d="M348.96 420.745H344.128C343.402 420.746 342.745 421.176 342.457 421.839C342.17 422.502 342.305 423.272 342.803 423.798L345.321 426.461C345.675 426.835 346.171 427.041 346.687 427.029C347.203 427.018 347.69 426.79 348.026 426.401L350.335 423.738C350.798 423.202 350.905 422.447 350.61 421.804C350.314 421.162 349.67 420.748 348.96 420.745Z" fill="black"/>
<path d="M336.977 421.547L327.645 419.46" stroke="black" stroke-width="2" stroke-linecap="round" stroke-linejoin="round"/>
<path d="M336.977 424.589H327.799" stroke="black" stroke-width="2" stroke-linecap="round" stroke-linejoin="round"/>
<path d="M336.977 427.504L327.799 429.926" stroke="black" stroke-width="2" stroke-linecap="round" stroke-linejoin="round"/>
<path d="M356.514 427.845L365.852 429.926" stroke="black" stroke-width="2" stroke-linecap="round" stroke-linejoin="round"/>
<path d="M356.514 424.797H365.692" stroke="black" stroke-width="2" stroke-linecap="round" stroke-linejoin="round"/>
<path d="M356.514 421.887L365.692 419.46" stroke="black" stroke-width="2" stroke-linecap="round" stroke-linejoin="round"/>
<path d="M151.744 28.438H234.056C240.763 28.4365 247.196 31.0849 251.94 35.8002C256.683 40.5155 259.347 46.9115 259.347 53.5808C259.349 60.2509 256.685 66.6483 251.941 71.3649C247.198 76.0814 240.764 78.7305 234.056 78.729H169.448L152.142 94.389V78.729H151.755C145.048 78.729 138.616 76.0793 133.874 71.3629C129.132 66.6466 126.468 60.25 126.47 53.5808C126.47 39.6991 137.784 28.4441 151.744 28.438V28.438Z" fill="white" stroke="black" stroke-width="2" stroke-linecap="round" stroke-linejoin="round"/>
<ellipse cx="219.423" cy="53.9486" rx="4.43975" ry="4.41467" fill="#4992FF"/>
<ellipse cx="192.895" cy="53.9486" rx="4.43975" ry="4.41467" fill="#4992FF"/>
<ellipse cx="166.372" cy="53.9486" rx="4.43975" ry="4.41467" fill="#4992FF"/>
<path d="M314.22 103.515H255.04C244.987 103.515 236.833 111.611 236.817 121.607C236.817 131.615 244.976 139.727 255.04 139.727H301.525L313.972 150.994V139.7H314.248C324.312 139.7 332.471 131.587 332.471 121.58C332.44 111.583 324.274 103.5 314.22 103.515Z" fill="white" stroke="black" stroke-width="2" stroke-linecap="round" stroke-linejoin="round"/>
<ellipse cx="265.532" cy="121.871" rx="3.19728" ry="3.17922" fill="#4992FF"/>
<ellipse cx="284.616" cy="121.871" rx="3.19728" ry="3.17922" fill="#4992FF"/>
<ellipse cx="303.701" cy="121.871" rx="3.19728" ry="3.17922" fill="#4992FF"/>
</svg>
