<svg width="400" height="272" viewBox="0 0 400 272" fill="none" xmlns="http://www.w3.org/2000/svg">
<path d="M342.582 271.625H57.6913C56.8134 271.624 55.9719 271.274 55.3511 270.653C54.7304 270.031 54.3811 269.188 54.38 268.309V3.31654C54.3812 2.4373 54.7304 1.59438 55.3511 0.972662C55.9719 0.35094 56.8134 0.0011494 57.6913 0H342.582C343.46 0.0011494 344.302 0.35094 344.922 0.972662C345.543 1.59438 345.892 2.4373 345.894 3.31654V268.308C345.893 269.188 345.543 270.031 344.923 270.652C344.302 271.274 343.46 271.624 342.582 271.625V271.625Z" fill="white"/>
<path d="M342.582 271.625H57.6913C56.8134 271.624 55.9719 271.274 55.3511 270.653C54.7304 270.031 54.3811 269.188 54.38 268.309V3.31654C54.3812 2.4373 54.7304 1.59438 55.3511 0.972662C55.9719 0.35094 56.8134 0.0011494 57.6913 0H342.582C343.46 0.0011494 344.302 0.35094 344.922 0.972662C345.543 1.59438 345.892 2.4373 345.894 3.31654V268.308C345.893 269.188 345.543 270.031 344.923 270.652C344.302 271.274 343.46 271.624 342.582 271.625V271.625ZM57.6913 1.324C57.1652 1.32515 56.6609 1.53499 56.2889 1.9076C55.9169 2.28021 55.7074 2.78525 55.7063 3.31219V268.308C55.7074 268.835 55.9169 269.34 56.2889 269.713C56.6609 270.085 57.1652 270.295 57.6913 270.296H342.582C343.108 270.295 343.613 270.086 343.985 269.713C344.357 269.34 344.566 268.835 344.567 268.308V3.31654C344.566 2.7896 344.357 2.28456 343.985 1.91195C343.613 1.53934 343.108 1.3295 342.582 1.32836L57.6913 1.324Z" fill="#E2EEF8"/>
<path d="M192.308 68.8591C191.712 68.8602 191.141 69.0978 190.72 69.52C190.3 69.9421 190.063 70.5142 190.063 71.1107C190.063 71.7072 190.3 72.2794 190.72 72.7015C191.141 73.1237 191.712 73.3613 192.308 73.3623H315.661C316.257 73.3613 316.828 73.1237 317.248 72.7015C317.669 72.2794 317.905 71.7072 317.905 71.1107C317.905 70.5142 317.669 69.9421 317.248 69.52C316.828 69.0978 316.257 68.8602 315.661 68.8591H192.308Z" fill="#CBD3E4" fill-opacity="0.74"/>
<path d="M192.308 82.3701C191.712 82.3716 191.142 82.6094 190.721 83.0315C190.301 83.4536 190.065 84.0255 190.065 84.6217C190.065 85.218 190.301 85.7898 190.721 86.2119C191.142 86.634 191.712 86.8719 192.308 86.8733H255.282C255.877 86.8719 256.448 86.634 256.868 86.2119C257.289 85.7898 257.525 85.218 257.525 84.6217C257.525 84.0255 257.289 83.4536 256.868 83.0315C256.448 82.6094 255.877 82.3716 255.282 82.3701H192.308Z" fill="#CBD3E4" fill-opacity="0.74"/>
<path d="M84.4924 155.027C83.8972 155.029 83.3268 155.267 82.9064 155.689C82.486 156.111 82.2499 156.683 82.2499 157.279C82.2499 157.875 82.486 158.447 82.9064 158.869C83.3268 159.291 83.8972 159.529 84.4924 159.53H315.781C316.377 159.529 316.947 159.291 317.367 158.869C317.788 158.447 318.024 157.875 318.024 157.279C318.024 156.683 317.788 156.111 317.367 155.689C316.947 155.267 316.377 155.029 315.781 155.027H84.4924Z" fill="#CBD3E4" fill-opacity="0.74"/>
<path d="M84.4924 168.538C83.8972 168.54 83.3268 168.778 82.9064 169.2C82.486 169.622 82.2499 170.194 82.2499 170.79C82.2499 171.386 82.486 171.958 82.9064 172.38C83.3268 172.802 83.8972 173.04 84.4924 173.041H255.402C255.997 173.04 256.568 172.802 256.988 172.38C257.409 171.958 257.645 171.386 257.645 170.79C257.645 170.194 257.409 169.622 256.988 169.2C256.568 168.778 255.997 168.54 255.402 168.538H84.4924Z" fill="#CBD3E4" fill-opacity="0.74"/>
<path d="M84.4924 181.743C83.8972 181.745 83.3268 181.983 82.9064 182.405C82.486 182.827 82.2499 183.399 82.2499 183.995C82.2499 184.591 82.486 185.163 82.9064 185.585C83.3268 186.007 83.8972 186.245 84.4924 186.247H315.781C316.377 186.245 316.947 186.007 317.367 185.585C317.788 185.163 318.024 184.591 318.024 183.995C318.024 183.399 317.788 182.827 317.367 182.405C316.947 181.983 316.377 181.745 315.781 181.743H84.4924Z" fill="#CBD3E4" fill-opacity="0.74"/>
<path d="M84.4924 195.254C83.8972 195.256 83.3268 195.494 82.9064 195.916C82.486 196.338 82.2499 196.91 82.2499 197.506C82.2499 198.102 82.486 198.674 82.9064 199.096C83.3268 199.518 83.8972 199.756 84.4924 199.758H255.402C255.997 199.756 256.568 199.518 256.988 199.096C257.409 198.674 257.645 198.102 257.645 197.506C257.645 196.91 257.409 196.338 256.988 195.916C256.568 195.494 255.997 195.256 255.402 195.254H84.4924Z" fill="#CBD3E4" fill-opacity="0.74"/>
<path d="M84.4924 208.811C83.8972 208.813 83.3268 209.051 82.9064 209.473C82.486 209.895 82.2499 210.467 82.2499 211.063C82.2499 211.659 82.486 212.231 82.9064 212.653C83.3268 213.075 83.8972 213.313 84.4924 213.315H315.781C316.377 213.313 316.947 213.075 317.367 212.653C317.788 212.231 318.024 211.659 318.024 211.063C318.024 210.467 317.788 209.895 317.367 209.473C316.947 209.051 316.377 208.813 315.781 208.811H84.4924Z" fill="#CBD3E4" fill-opacity="0.74"/>
<path d="M84.4924 222.322C83.8972 222.324 83.3268 222.562 82.9064 222.984C82.486 223.406 82.2499 223.978 82.2499 224.574C82.2499 225.17 82.486 225.742 82.9064 226.164C83.3268 226.586 83.8972 226.824 84.4924 226.825H255.402C255.997 226.824 256.568 226.586 256.988 226.164C257.409 225.742 257.645 225.17 257.645 224.574C257.645 223.978 257.409 223.406 256.988 222.984C256.568 222.562 255.997 222.324 255.402 222.322H84.4924Z" fill="#CBD3E4" fill-opacity="0.74"/>
<path d="M121.126 110.216C114.738 110.216 108.494 108.319 103.182 104.764C97.8709 101.209 93.7311 96.1571 91.2865 90.246C88.8419 84.3349 88.2023 77.8305 89.4485 71.5552C90.6946 65.28 93.7707 59.5159 98.2877 54.9917C102.805 50.4675 108.56 47.3865 114.825 46.1382C121.09 44.89 127.584 45.5306 133.486 47.979C139.387 50.4275 144.432 54.5738 147.981 59.8937C151.53 65.2135 153.424 71.468 153.424 77.8661C153.414 86.4427 150.008 94.6652 143.953 100.73C137.898 106.794 129.689 110.206 121.126 110.216Z" fill="#5EC69D"/>
<path d="M119.261 90.0845C118.679 90.0852 118.118 89.8644 117.691 89.4668L107.042 79.5591C106.594 79.1419 106.33 78.5637 106.308 77.9517C106.286 77.3397 106.507 76.7439 106.923 76.2952C107.339 75.8464 107.916 75.5815 108.527 75.5586C109.138 75.5357 109.733 75.7567 110.181 76.173L119.202 84.5653L137.05 66.6898C137.264 66.4739 137.518 66.3024 137.798 66.1852C138.078 66.068 138.379 66.0074 138.683 66.0068C138.986 66.0063 139.287 66.0658 139.568 66.1819C139.849 66.2981 140.104 66.4687 140.318 66.6838C140.533 66.8989 140.703 67.1544 140.819 67.4355C140.935 67.7167 140.995 68.018 140.994 68.3222C140.993 68.6264 140.933 68.9275 140.816 69.2082C140.699 69.4889 140.527 69.7437 140.312 69.9579L120.893 89.4078C120.679 89.6227 120.424 89.793 120.144 89.9091C119.864 90.0252 119.564 90.0848 119.261 90.0845Z" fill="white"/>
</svg>
