<svg width="79" height="79" viewBox="0 0 79 79" fill="none" xmlns="http://www.w3.org/2000/svg">
<path d="M39.1667 0C17.5467 0 0 17.5467 0 39.1667C0 60.7867 17.5467 78.3333 39.1667 78.3333C60.7867 78.3333 78.3333 60.7867 78.3333 39.1667C78.3333 17.5467 60.7867 0 39.1667 0ZM28.5525 55.9692L14.4917 41.9083C12.9642 40.3808 12.9642 37.9133 14.4917 36.3858C16.0192 34.8583 18.4867 34.8583 20.0142 36.3858L31.3333 47.6658L58.28 20.7192C59.8075 19.1917 62.275 19.1917 63.8025 20.7192C65.33 22.2467 65.33 24.7142 63.8025 26.2417L34.075 55.9692C32.5867 57.4967 30.08 57.4967 28.5525 55.9692Z" fill="#5EC69D"/>
</svg>
