<svg width="13" height="11" viewBox="0 0 13 11" fill="none" xmlns="http://www.w3.org/2000/svg">
<path d="M4 2.37503H11.5C11.8438 2.37503 12.125 2.09378 12.125 1.75003C12.125 1.40628 11.8438 1.12503 11.5 1.12503H4C3.65625 1.12503 3.375 1.40628 3.375 1.75003C3.375 2.09378 3.65625 2.37503 4 2.37503ZM11.5 8.62503H4C3.65625 8.62503 3.375 8.90628 3.375 9.25003C3.375 9.59378 3.65625 9.87503 4 9.87503H11.5C11.8438 9.87503 12.125 9.59378 12.125 9.25003C12.125 8.90628 11.8438 8.62503 11.5 8.62503ZM11.5 4.87503H4C3.65625 4.87503 3.375 5.15628 3.375 5.50003C3.375 5.84378 3.65625 6.12503 4 6.12503H11.5C11.8438 6.12503 12.125 5.84378 12.125 5.50003C12.125 5.15628 11.8438 4.87503 11.5 4.87503ZM1.8125 8.00003H0.5625C0.3875 8.00003 0.25 8.13753 0.25 8.31253C0.25 8.48753 0.3875 8.62503 0.5625 8.62503H1.5V8.93753H1.1875C1.0125 8.93753 0.875 9.07503 0.875 9.25003C0.875 9.42503 1.0125 9.56253 1.1875 9.56253H1.5V9.87503H0.5625C0.3875 9.87503 0.25 10.0125 0.25 10.1875C0.25 10.3625 0.3875 10.5 0.5625 10.5H1.8125C1.9875 10.5 2.125 10.3625 2.125 10.1875V8.31253C2.125 8.13753 1.9875 8.00003 1.8125 8.00003ZM0.5625 1.12503H0.875V2.68753C0.875 2.86253 1.0125 3.00003 1.1875 3.00003C1.3625 3.00003 1.5 2.86253 1.5 2.68753V0.81253C1.5 0.637531 1.3625 0.500031 1.1875 0.500031H0.5625C0.3875 0.500031 0.25 0.637531 0.25 0.81253C0.25 0.98753 0.3875 1.12503 0.5625 1.12503ZM1.8125 4.25003H0.5625C0.3875 4.25003 0.25 4.38753 0.25 4.56253C0.25 4.73753 0.3875 4.87503 0.5625 4.87503H1.375L0.325 6.10003C0.275 6.15628 0.25 6.23128 0.25 6.30003V6.43753C0.25 6.61253 0.3875 6.75003 0.5625 6.75003H1.8125C1.9875 6.75003 2.125 6.61253 2.125 6.43753C2.125 6.26253 1.9875 6.12503 1.8125 6.12503H1L2.05 4.90003C2.1 4.84378 2.125 4.76878 2.125 4.70003V4.56253C2.125 4.38753 1.9875 4.25003 1.8125 4.25003Z" fill="#828489"/>
</svg>
