<svg width="14" height="14" viewBox="0 0 14 14" fill="none" xmlns="http://www.w3.org/2000/svg">
    <path fill-rule="evenodd" clip-rule="evenodd"
        d="M11.0855 0.5C10.5331 0.5 9.98008 0.658364 9.4994 0.9745C11.3486 1.69423 12.821 3.18391 13.5327 5.05709C13.8442 4.57077 14 4.01118 14 3.45159C14 1.82009 12.6956 0.5 11.0855 0.5ZM6.99971 12.3182C4.42652 12.3182 2.33226 10.1968 2.33226 7.59091C2.33226 4.98323 4.42652 2.86305 6.99971 2.86305C9.57348 2.86305 11.6677 4.98323 11.6677 7.59091C11.6677 10.1968 9.57348 12.3182 6.99971 12.3182ZM12.8345 7.59091C12.8345 4.32791 10.2239 1.68123 6.99971 1.68123C3.77782 1.68123 1.16555 4.32791 1.16555 7.59091C1.16555 10.1413 2.96637 13.5 6.99971 13.5C11.0424 13.5 12.8345 10.136 12.8345 7.59091ZM0.467853 5.05886C0.155756 4.57195 0 4.01177 0 3.45277C0 1.82364 1.30264 0.501182 2.91154 0.501182C3.46456 0.501182 4.01758 0.659545 4.49885 0.975682C2.64844 1.69482 1.17838 3.18509 0.467853 5.05886ZM7.58248 7.59091V4.63636H6.41635V8.77155H9.91591V7.59091H7.58248Z"
        fill="#686868" />
</svg>
