<svg width="24" height="20" viewBox="0 0 24 20" fill="none" xmlns="http://www.w3.org/2000/svg">
<path d="M7.55016 19.8981C16.6045 19.8981 21.5583 12.3948 21.5583 5.88999C21.5583 5.67906 21.5536 5.46343 21.5442 5.25249C22.5079 4.55559 23.3395 3.69239 24 2.70343C23.1025 3.10273 22.1496 3.36351 21.1739 3.47687C22.2013 2.86104 22.9705 1.8936 23.3391 0.753899C22.3726 1.32669 21.3156 1.73074 20.2134 1.94874C19.4708 1.15969 18.489 0.637249 17.4197 0.462183C16.3504 0.287118 15.2532 0.469183 14.2977 0.980229C13.3423 1.49127 12.5818 2.30284 12.1338 3.28944C11.6859 4.27605 11.5754 5.38275 11.8195 6.43843C9.86249 6.34022 7.94794 5.83184 6.19998 4.94623C4.45203 4.06063 2.90969 2.81757 1.67297 1.29765C1.0444 2.38138 0.852057 3.66378 1.13503 4.88422C1.418 6.10467 2.15506 7.17158 3.19641 7.86812C2.41463 7.8433 1.64998 7.63281 0.965625 7.25406V7.31499C0.964925 8.45228 1.3581 9.55472 2.07831 10.4349C2.79852 11.3151 3.80132 11.9187 4.91625 12.1431C4.19206 12.3413 3.43198 12.3701 2.69484 12.2275C3.00945 13.2056 3.62157 14.061 4.44577 14.6745C5.26997 15.2879 6.26512 15.6287 7.29234 15.6494C5.54842 17.0192 3.39417 17.7623 1.17656 17.7587C0.783287 17.7581 0.390399 17.734 0 17.6866C2.25286 19.1319 4.87353 19.8995 7.55016 19.8981Z" fill="#98A2B3"/>
</svg>
