<svg width="44" height="45" viewBox="0 0 44 45" fill="none" xmlns="http://www.w3.org/2000/svg">
<circle cx="22" cy="22.3135" r="21.5" fill="white" stroke="#E2EEF8"/>
<g clip-path="url(#clip0_505:78952)">
<path d="M30 17.3513C29.4113 17.6127 28.7787 17.7887 28.1147 17.868C28.7927 17.462 29.3133 16.8187 29.558 16.052C28.924 16.428 28.2213 16.7013 27.4733 16.8487C26.8753 16.2107 26.0213 15.812 25.0773 15.812C22.958 15.812 21.4007 17.7893 21.8793 19.842C19.152 19.7053 16.7333 18.3987 15.114 16.4127C14.254 17.888 14.668 19.818 16.1293 20.7953C15.592 20.778 15.0853 20.6307 14.6433 20.3847C14.6073 21.9053 15.6973 23.328 17.276 23.6447C16.814 23.77 16.308 23.7993 15.7933 23.7007C16.2107 25.0047 17.4227 25.9533 18.86 25.98C17.48 27.062 15.7413 27.5453 14 27.34C15.4527 28.2713 17.1787 28.8147 19.032 28.8147C25.1267 28.8147 28.57 23.6673 28.362 19.0507C29.0033 18.5873 29.56 18.0093 30 17.3513Z" fill="#839099"/>
</g>
<defs>
<clipPath id="clip0_505:78952">
<rect width="16" height="16" fill="white" transform="translate(14 14.3135)"/>
</clipPath>
</defs>
</svg>
