<svg width="58" height="54" viewBox="0 0 58 54" fill="none" xmlns="http://www.w3.org/2000/svg">
<path d="M13.499 4.5C11.024 4.5 9.02152 6.525 9.02152 9L8.99902 45C8.99902 47.475 11.0015 49.5 13.4765 49.5H40.499C42.974 49.5 44.999 47.475 44.999 45V19.8675C44.999 18.675 44.5265 17.5275 43.6715 16.695L32.804 5.8275C31.9715 4.9725 30.824 4.5 29.6315 4.5H13.499ZM29.249 18V7.875L41.624 20.25H31.499C30.2615 20.25 29.249 19.2375 29.249 18Z" fill="#5EC69D"/>
<path d="M23.2069 27.703H21.1489V33.3H19.7646V27.703H17.7344V26.5817H23.2069V27.703ZM26.4991 28.898L27.7588 26.5817H29.3507L27.3942 29.9132L29.4014 33.3H27.7911L26.4991 30.9468L25.2071 33.3H23.5967L25.6039 29.9132L23.6475 26.5817H25.2394L26.4991 28.898ZM35.2545 27.703H33.1966V33.3H31.8123V27.703H29.782V26.5817H35.2545V27.703Z" fill="white" fill-opacity="0.8"/>
</svg>
