<svg width="15" height="16" viewBox="0 0 15 16" fill="none" xmlns="http://www.w3.org/2000/svg">
    <path
        d="M5 13H6.875V9.875H8.125V13H10L7.5 15.5L5 13ZM12.1744 4.9325C12.0419 2.46312 10.0037 0.5 7.5 0.5C4.99625 0.5 2.95812 2.46312 2.82562 4.9325C1.21938 5.22188 0 6.62375 0 8.3125C0 10.2106 1.53938 11.75 3.4375 11.75H5.625V10.5H3.4375C2.23125 10.5 1.25 9.51875 1.25 8.3125C1.25 6.56437 2.79938 5.91687 4.02063 5.9875C3.91625 3.35125 5.40063 1.75 7.5 1.75C9.65812 1.75 11.1819 3.49812 10.9794 5.9875C12.07 5.95875 13.75 6.45687 13.75 8.3125C13.75 9.51875 12.7688 10.5 11.5625 10.5H9.375V11.75H11.5625C13.4606 11.75 15 10.2106 15 8.3125C15 6.62375 13.7806 5.22188 12.1744 4.9325Z"
        fill="#5EC69D" />
</svg>