<svg width="14" height="16" viewBox="0 0 14 16" fill="none" xmlns="http://www.w3.org/2000/svg">
    <path
        d="M7 0.75C5.08161 0.75 3.52118 2.26236 3.52118 4.12351C3.52118 5.98446 5.08184 7.49856 7 7.49856C8.91816 7.49856 10.4772 5.98446 10.4772 4.12351C10.477 2.26214 8.91839 0.75 7 0.75ZM5.27669 8.60809C5.26093 8.60875 5.24516 8.61093 5.23006 8.61465C2.23151 9.30177 1.49269e-06 11.9141 1.49269e-06 15.0306C-0.000449045 15.1521 0.101147 15.2504 0.226171 15.25H7.0009H13.7756C13.9002 15.2496 14.0004 15.1512 14 15.0306C14 11.9141 11.7687 9.30177 8.77016 8.61465C8.69492 8.59738 8.61585 8.6188 8.56044 8.67103L7.00068 10.1585L5.43911 8.67103C5.39631 8.62951 5.33729 8.60678 5.27669 8.60809Z"
        fill="white" />
</svg>
