<svg width="30" height="10" viewBox="0 0 30 10" fill="none" xmlns="http://www.w3.org/2000/svg">
<path fill-rule="evenodd" clip-rule="evenodd" d="M21.5232 1.05342L21.1912 2.86164C20.1959 2.34471 17.9307 2.22241 17.9305 3.17449C17.9305 3.55273 18.443 3.81285 19.0608 4.12637C19.9976 4.60185 21.1764 5.20015 21.1764 6.51952C21.1764 8.62775 18.7819 9.40235 17.1947 9.40235C15.608 9.40235 14.5694 8.92687 14.5694 8.92687L14.9152 7.03621C15.8675 7.75675 18.753 7.96149 18.753 6.81886C18.753 6.33872 18.185 6.05556 17.5263 5.72721C16.6175 5.27417 15.536 4.73509 15.536 3.47384C15.536 1.16176 18.277 0.686279 19.4312 0.686279C20.4989 0.686279 21.5232 1.05342 21.5232 1.05342ZM29.2837 9.25706H27.148L26.8756 8.00631H23.9188L23.4339 9.25706H21.0094L24.4782 1.46402C24.4782 1.46402 24.6885 0.836504 25.5519 0.836504H27.4216L29.2837 9.25706ZM8.8537 0.836733L6.6363 6.6283L6.37392 5.38115L6.37416 5.3816L5.59153 1.59489C5.59153 1.59489 5.4969 0.836733 4.48821 0.836733H0.822411L0.779396 0.979309C0.779396 0.979309 1.9004 1.19914 3.21235 1.94175L5.23307 9.25729H7.65647L11.3569 0.836733H8.8537ZM13.1363 9.25706H10.8104L12.2641 0.836733H14.5902L13.1363 9.25706ZM24.5886 6.27851L25.8107 3.12741L26.4983 6.27851H24.5886Z" fill="#2566AF"/>
<path d="M6.37415 5.38129L5.59153 1.59458C5.59153 1.59458 5.4969 0.836426 4.48821 0.836426H0.822411L0.779396 0.979002C0.779396 0.979002 2.54132 1.32317 4.23131 2.61266C5.84723 3.84517 6.37415 5.38129 6.37415 5.38129Z" fill="#E6A540"/>
</svg>
