<svg width="16" height="18" viewBox="0 0 16 18" fill="none" xmlns="http://www.w3.org/2000/svg">
<path d="M13.8333 2.49998H10.35C10 1.53331 9.08333 0.833313 8 0.833313C6.91667 0.833313 6 1.53331 5.65 2.49998H2.16667C1.25 2.49998 0.5 3.24998 0.5 4.16665V15.8333C0.5 16.75 1.25 17.5 2.16667 17.5H13.8333C14.75 17.5 15.5 16.75 15.5 15.8333V4.16665C15.5 3.24998 14.75 2.49998 13.8333 2.49998ZM8 2.49998C8.45833 2.49998 8.83333 2.87498 8.83333 3.33331C8.83333 3.79165 8.45833 4.16665 8 4.16665C7.54167 4.16665 7.16667 3.79165 7.16667 3.33331C7.16667 2.87498 7.54167 2.49998 8 2.49998ZM8.83333 14.1666H4.66667C4.20833 14.1666 3.83333 13.7916 3.83333 13.3333C3.83333 12.875 4.20833 12.5 4.66667 12.5H8.83333C9.29167 12.5 9.66667 12.875 9.66667 13.3333C9.66667 13.7916 9.29167 14.1666 8.83333 14.1666ZM11.3333 10.8333H4.66667C4.20833 10.8333 3.83333 10.4583 3.83333 9.99998C3.83333 9.54165 4.20833 9.16665 4.66667 9.16665H11.3333C11.7917 9.16665 12.1667 9.54165 12.1667 9.99998C12.1667 10.4583 11.7917 10.8333 11.3333 10.8333ZM11.3333 7.49998H4.66667C4.20833 7.49998 3.83333 7.12498 3.83333 6.66665C3.83333 6.20831 4.20833 5.83331 4.66667 5.83331H11.3333C11.7917 5.83331 12.1667 6.20831 12.1667 6.66665C12.1667 7.12498 11.7917 7.49998 11.3333 7.49998Z" fill="#828489"/>
</svg>
