<svg width="20" height="15" viewBox="0 0 20 15" fill="none" xmlns="http://www.w3.org/2000/svg">
<path d="M14.583 0.75C12.958 0.75 11.208 1.08333 9.99967 2C8.79134 1.08333 7.04134 0.75 5.41634 0.75C4.20801 0.75 2.92467 0.933333 1.84967 1.40833C1.24134 1.68333 0.833008 2.275 0.833008 2.95V12.35C0.833008 13.4333 1.84967 14.2333 2.89967 13.9667C3.71634 13.7583 4.58301 13.6667 5.41634 13.6667C6.71634 13.6667 8.09967 13.8833 9.21634 14.4333C9.71634 14.6833 10.283 14.6833 10.7747 14.4333C11.8913 13.875 13.2747 13.6667 14.5747 13.6667C15.408 13.6667 16.2747 13.7583 17.0913 13.9667C18.1413 14.2417 19.158 13.4417 19.158 12.35V2.95C19.158 2.275 18.7497 1.68333 18.1413 1.40833C17.0747 0.933333 15.7913 0.75 14.583 0.75ZM17.4997 11.3583C17.4997 11.8833 17.0163 12.2667 16.4997 12.175C15.8747 12.0583 15.2247 12.0083 14.583 12.0083C13.1663 12.0083 11.1247 12.55 9.99967 13.2583V3.66667C11.1247 2.95833 13.1663 2.41667 14.583 2.41667C15.3497 2.41667 16.108 2.49167 16.833 2.65C17.2163 2.73333 17.4997 3.075 17.4997 3.46667V11.3583Z" fill="#828489"/>
<path d="M11.6492 6.17498C11.3826 6.17498 11.1409 6.00831 11.0576 5.74165C10.9492 5.41665 11.1326 5.05831 11.4576 4.95831C12.7409 4.54165 14.3992 4.40831 15.9242 4.58331C16.2659 4.62498 16.5159 4.93331 16.4742 5.27498C16.4326 5.61665 16.1242 5.86665 15.7826 5.82498C14.4326 5.66665 12.9576 5.79165 11.8409 6.14998C11.7742 6.15831 11.7076 6.17498 11.6492 6.17498Z" fill="#828489"/>
<path d="M11.6492 8.39166C11.3826 8.39166 11.1409 8.22499 11.0576 7.95832C10.9492 7.63332 11.1326 7.27499 11.4576 7.17499C12.7326 6.75832 14.3992 6.62499 15.9242 6.79999C16.2659 6.84166 16.5159 7.14999 16.4742 7.49166C16.4326 7.83332 16.1242 8.08332 15.7826 8.04166C14.4326 7.88332 12.9576 8.00832 11.8409 8.36666C11.7742 8.38332 11.7076 8.39166 11.6492 8.39166Z" fill="#828489"/>
<path d="M11.6492 10.6083C11.3826 10.6083 11.1409 10.4417 11.0576 10.175C10.9492 9.85 11.1326 9.49166 11.4576 9.39166C12.7326 8.975 14.3992 8.84166 15.9242 9.01666C16.2659 9.05833 16.5159 9.36666 16.4742 9.70833C16.4326 10.05 16.1242 10.2917 15.7826 10.2583C14.4326 10.1 12.9576 10.225 11.8409 10.5833C11.7742 10.6 11.7076 10.6083 11.6492 10.6083Z" fill="#828489"/>
</svg>
