<svg width="18" height="18" viewBox="0 0 18 18" fill="none" xmlns="http://www.w3.org/2000/svg">
<path d="M9.00033 0.666656C4.40033 0.666656 0.666992 4.39999 0.666992 8.99999C0.666992 13.6 4.40033 17.3333 9.00033 17.3333C13.6003 17.3333 17.3337 13.6 17.3337 8.99999C17.3337 4.39999 13.6003 0.666656 9.00033 0.666656ZM10.1753 14.075V14.5583C10.1753 15.1667 9.67533 15.6667 9.06699 15.6667H9.05866C8.45033 15.6667 7.95033 15.1667 7.95033 14.5583V14.0583C6.84199 13.825 5.85866 13.2167 5.44199 12.1917C5.25033 11.7333 5.60866 11.225 6.10866 11.225H6.30866C6.61699 11.225 6.86699 11.4333 6.98366 11.725C7.22533 12.35 7.85866 12.7833 9.07533 12.7833C10.7087 12.7833 11.0753 11.9667 11.0753 11.4583C11.0753 10.7667 10.7087 10.1167 8.85033 9.67499C6.78366 9.17499 5.36699 8.32499 5.36699 6.61666C5.36699 5.18332 6.52533 4.24999 7.95866 3.94166V3.44166C7.95866 2.83332 8.45866 2.33332 9.06699 2.33332H9.07533C9.68366 2.33332 10.1837 2.83332 10.1837 3.44166V3.95832C11.3337 4.24166 12.0587 4.95832 12.3753 5.84166C12.542 6.29999 12.192 6.78332 11.7003 6.78332H11.4837C11.1753 6.78332 10.9253 6.56666 10.842 6.26666C10.6503 5.63332 10.1253 5.22499 9.07533 5.22499C7.82533 5.22499 7.07533 5.79166 7.07533 6.59166C7.07533 7.29166 7.61699 7.74999 9.30033 8.18332C10.9837 8.61666 12.7837 9.34166 12.7837 11.4417C12.767 12.9667 11.6253 13.8 10.1753 14.075Z" fill="#828489"/>
</svg>
