<svg width="20" height="14" viewBox="0 0 20 14" fill="none" xmlns="http://www.w3.org/2000/svg">
<path d="M19.1663 3.66668V12C19.1663 12.9167 18.4163 13.6667 17.4997 13.6667H4.16634C3.70801 13.6667 3.33301 13.2917 3.33301 12.8333C3.33301 12.375 3.70801 12 4.16634 12H17.4997V3.66668C17.4997 3.20834 17.8747 2.83334 18.333 2.83334C18.7913 2.83334 19.1663 3.20834 19.1663 3.66668ZM3.33301 10.3333C1.94967 10.3333 0.833008 9.21668 0.833008 7.83334V2.83334C0.833008 1.45001 1.94967 0.333344 3.33301 0.333344H13.333C14.7163 0.333344 15.833 1.45001 15.833 2.83334V8.66668C15.833 9.58334 15.083 10.3333 14.1663 10.3333H3.33301ZM5.83301 5.33334C5.83301 6.71668 6.94967 7.83334 8.33301 7.83334C9.71634 7.83334 10.833 6.71668 10.833 5.33334C10.833 3.95001 9.71634 2.83334 8.33301 2.83334C6.94967 2.83334 5.83301 3.95001 5.83301 5.33334Z" fill="#828489"/>
</svg>
