<svg width="12" height="17" viewBox="0 0 12 17" fill="none" xmlns="http://www.w3.org/2000/svg">
<path d="M6.00033 0.666687C2.77533 0.666687 0.166992 3.27502 0.166992 6.50002C0.166992 9.97502 3.85033 14.7667 5.36699 16.5917C5.70033 16.9917 6.30866 16.9917 6.64199 16.5917C8.15033 14.7667 11.8337 9.97502 11.8337 6.50002C11.8337 3.27502 9.22533 0.666687 6.00033 0.666687ZM6.00033 8.58335C4.85033 8.58335 3.91699 7.65002 3.91699 6.50002C3.91699 5.35002 4.85033 4.41669 6.00033 4.41669C7.15033 4.41669 8.08366 5.35002 8.08366 6.50002C8.08366 7.65002 7.15033 8.58335 6.00033 8.58335Z" fill="#828489"/>
</svg>
