<svg width="18" height="20" viewBox="0 0 18 20" fill="none" xmlns="http://www.w3.org/2000/svg">
<path d="M15.667 2.49998H14.8337V1.66665C14.8337 1.20831 14.4587 0.833313 14.0003 0.833313C13.542 0.833313 13.167 1.20831 13.167 1.66665V2.49998H4.83366V1.66665C4.83366 1.20831 4.45866 0.833313 4.00033 0.833313C3.54199 0.833313 3.16699 1.20831 3.16699 1.66665V2.49998H2.33366C1.41699 2.49998 0.666992 3.24998 0.666992 4.16665V17.5C0.666992 18.4166 1.41699 19.1666 2.33366 19.1666H15.667C16.5837 19.1666 17.3337 18.4166 17.3337 17.5V4.16665C17.3337 3.24998 16.5837 2.49998 15.667 2.49998ZM14.8337 17.5H3.16699C2.70866 17.5 2.33366 17.125 2.33366 16.6666V6.66665H15.667V16.6666C15.667 17.125 15.292 17.5 14.8337 17.5Z" fill="#828489"/>
</svg>
