<svg width="36" height="32" viewBox="0 0 36 32" fill="none" xmlns="http://www.w3.org/2000/svg">
<path d="M15 21.3086V10.8086C15 9.36484 16.335 8.18359 18 8.18359H31.5V6.87109C31.5 5.42734 30.15 4.24609 28.5 4.24609H7.5C5.835 4.24609 4.5 5.42734 4.5 6.87109V25.2461C4.5 26.6898 5.835 27.8711 7.5 27.8711H28.5C30.15 27.8711 31.5 26.6898 31.5 25.2461V23.9336H18C16.335 23.9336 15 22.7523 15 21.3086ZM19.5 10.8086C18.675 10.8086 18 11.3992 18 12.1211V19.9961C18 20.718 18.675 21.3086 19.5 21.3086H33V10.8086H19.5ZM24 18.0273C22.755 18.0273 21.75 17.148 21.75 16.0586C21.75 14.9692 22.755 14.0898 24 14.0898C25.245 14.0898 26.25 14.9692 26.25 16.0586C26.25 17.148 25.245 18.0273 24 18.0273Z" fill="#828489"/>
</svg>
