<svg width="36" height="36" viewBox="0 0 36 36" fill="none" xmlns="http://www.w3.org/2000/svg">
<path d="M6 16.8294V22.6628C6 23.8732 7.005 24.8503 8.25 24.8503C9.495 24.8503 10.5 23.8732 10.5 22.6628V16.8294C10.5 15.619 9.495 14.6419 8.25 14.6419C7.005 14.6419 6 15.619 6 16.8294ZM15 16.8294V22.6628C15 23.8732 16.005 24.8503 17.25 24.8503C18.495 24.8503 19.5 23.8732 19.5 22.6628V16.8294C19.5 15.619 18.495 14.6419 17.25 14.6419C16.005 14.6419 15 15.619 15 16.8294ZM5.25 32.1419H29.25C30.495 32.1419 31.5 31.1649 31.5 29.9544C31.5 28.744 30.495 27.7669 29.25 27.7669H5.25C4.005 27.7669 3 28.744 3 29.9544C3 31.1649 4.005 32.1419 5.25 32.1419ZM24 16.8294V22.6628C24 23.8732 25.005 24.8503 26.25 24.8503C27.495 24.8503 28.5 23.8732 28.5 22.6628V16.8294C28.5 15.619 27.495 14.6419 26.25 14.6419C25.005 14.6419 24 15.619 24 16.8294ZM15.855 2.23152L4.005 8.29818C3.39 8.60443 3 9.23152 3 9.90235C3 10.9086 3.84 11.7253 4.875 11.7253H29.64C30.66 11.7253 31.5 10.9086 31.5 9.90235C31.5 9.23152 31.11 8.60443 30.495 8.29818L18.645 2.23152C17.775 1.77944 16.725 1.77944 15.855 2.23152Z" fill="#828489"/>
</svg>
