<svg width="36" height="16" viewBox="0 0 36 16" fill="none" xmlns="http://www.w3.org/2000/svg">
    <path d="M21.5149 1.71094H14.4849V14.2887H21.5149V1.71094Z" fill="#FF5F00" />
    <path
        d="M14.9313 8C14.9313 5.44444 16.1365 3.17778 17.9888 1.71111C16.6275 0.644447 14.909 0 13.0343 0C8.59313 0 5 3.57778 5 8C5 12.4222 8.59313 16 13.0343 16C14.909 16 16.6275 15.3556 17.9888 14.2889C16.1365 12.8444 14.9313 10.5556 14.9313 8Z"
        fill="#EB001B" />
    <path
        d="M31.0001 8C31.0001 12.4222 27.4069 16 22.9657 16C21.0911 16 19.3726 15.3556 18.0112 14.2889C19.8859 12.8222 21.0687 10.5556 21.0687 8C21.0687 5.44444 19.8636 3.17778 18.0112 1.71111C19.3726 0.644447 21.0911 0 22.9657 0C27.4069 0 31.0001 3.6 31.0001 8Z"
        fill="#F79E1B" />
</svg>
