<svg width="30" height="30" viewBox="0 0 30 30" fill="none" xmlns="http://www.w3.org/2000/svg">
    <path fill-rule="evenodd" clip-rule="evenodd"
        d="M15 29.5C23.0081 29.5 29.5 23.0081 29.5 15C29.5 6.99187 23.0081 0.5 15 0.5C6.99187 0.5 0.5 6.99187 0.5 15C0.5 23.0081 6.99187 29.5 15 29.5ZM15.58 21.96V20.7385C17.5021 20.4694 19.0623 19.4092 19.06 17.4163C19.06 15.2937 17.1759 14.4779 15.3894 13.7043C15.0817 13.571 14.7768 13.439 14.485 13.3018C13.2797 12.6754 13.4317 11.1801 15.1589 11.0792C16.1171 11.0212 17.1019 11.3054 17.9928 11.6186L18.4127 9.70808C17.3618 9.38908 16.4198 9.24292 15.58 9.22088V8.04H14.42V9.27772C12.1638 9.58744 10.9586 11.0026 10.9586 12.5837C10.9586 14.8826 13.1408 15.5972 14.5376 16.0545C14.8591 16.1598 15.139 16.2514 15.341 16.3456C16.8142 17.0056 16.5416 18.3768 15.2088 18.6784C14.0534 18.9394 12.5768 18.4823 11.4678 18.052L10.94 19.959C11.977 20.4949 13.2194 20.7814 14.42 20.8023V21.96H15.58Z"
        fill="#5EC69D" />
</svg>
