<svg width="43" height="13" viewBox="0 0 43 13" fill="none" xmlns="http://www.w3.org/2000/svg">
    <path
        d="M5.16004 0.500708H1.81546C1.58655 0.500708 1.39193 0.674888 1.35622 0.911579L0.00351217 9.89325C-0.0233921 10.0704 0.107701 10.2302 0.27933 10.2302H1.87608C2.10495 10.2302 2.29958 10.0561 2.33529 9.81899L2.70011 7.39652C2.73535 7.15933 2.93045 6.98519 3.15884 6.98519H4.21764C6.42079 6.98519 7.69231 5.86868 8.0244 3.65617C8.17403 2.68818 8.03074 1.92764 7.59792 1.39501C7.12257 0.810063 6.27945 0.500708 5.16004 0.500708ZM5.54591 3.78115C5.363 5.03799 4.44602 5.03799 3.55938 5.03799H3.05469L3.40875 2.69077C3.4298 2.54889 3.54714 2.44441 3.68409 2.44441H3.91539C4.51936 2.44441 5.08913 2.44441 5.38352 2.80493C5.5591 3.02007 5.61291 3.33964 5.54591 3.78115Z"
        fill="#283B82" />
    <path
        d="M15.1578 3.74055H13.5562C13.4198 3.74055 13.3019 3.84503 13.2808 3.98691L13.21 4.45604L13.098 4.28599C12.7513 3.75896 11.978 3.58281 11.2063 3.58281C9.43648 3.58281 7.92482 4.98663 7.63042 6.95587C7.47737 7.93818 7.69499 8.87749 8.22706 9.5325C8.71513 10.1348 9.41348 10.3857 10.2444 10.3857C11.6705 10.3857 12.4613 9.42551 12.4613 9.42551L12.3898 9.89156C12.3629 10.0698 12.494 10.2296 12.6647 10.2296H14.1073C14.3367 10.2296 14.5304 10.0554 14.5666 9.81834L15.4322 4.07754C15.4596 3.90084 15.329 3.74055 15.1578 3.74055ZM12.9253 7.00505C12.7708 7.96326 12.0445 8.60659 11.1184 8.60659C10.6533 8.60659 10.2816 8.45034 10.0429 8.15431C9.8062 7.86033 9.7162 7.44191 9.79153 6.97582C9.93578 6.02578 10.6743 5.36155 11.5863 5.36155C12.0412 5.36155 12.4109 5.51979 12.6544 5.81833C12.8985 6.11999 12.9952 6.541 12.9253 7.00505Z"
        fill="#283B82" />
    <path
        d="M23.6877 3.74051H22.0783C21.9247 3.74051 21.7804 3.82041 21.6934 3.95411L19.4736 7.37838L18.5327 4.08777C18.4735 3.88185 18.2921 3.74051 18.0867 3.74051H16.5051C16.3129 3.74051 16.1794 3.93716 16.2406 4.12667L18.0133 9.57499L16.3467 12.039C16.2156 12.2331 16.3476 12.5 16.5741 12.5H18.1816C18.3341 12.5 18.477 12.4221 18.5635 12.291L23.9166 4.19892C24.0447 4.00529 23.9132 3.74051 23.6877 3.74051Z"
        fill="#283B82" />
    <path
        d="M29.016 0.500708H25.6709C25.4426 0.500708 25.2479 0.674888 25.2122 0.911579L23.8595 9.89325C23.8326 10.0704 23.9636 10.2302 24.1343 10.2302H25.8509C26.0103 10.2302 26.1468 10.1084 26.1717 9.94242L26.5556 7.39652C26.5908 7.15933 26.786 6.98519 27.0143 6.98519H28.0727C30.2762 6.98519 31.5473 5.86868 31.8799 3.65617C32.03 2.68818 31.8858 1.92764 31.4529 1.39501C30.978 0.810063 30.1354 0.500708 29.016 0.500708ZM29.4019 3.78115C29.2194 5.03799 28.3025 5.03799 27.4153 5.03799H26.9112L27.2657 2.69077C27.2868 2.54889 27.4031 2.44441 27.5405 2.44441H27.7718C28.3754 2.44441 28.9456 2.44441 29.24 2.80493C29.4156 3.02007 29.4688 3.33964 29.4019 3.78115Z"
        fill="#469BDB" />
    <path
        d="M39.0132 3.74055H37.4126C37.2751 3.74055 37.1582 3.84503 37.1377 3.98691L37.0668 4.45604L36.9543 4.28599C36.6076 3.75896 35.8349 3.58281 35.0632 3.58281C33.2932 3.58281 31.7822 4.98663 31.4877 6.95587C31.3352 7.93818 31.5518 8.87749 32.0839 9.5325C32.573 10.1348 33.2703 10.3857 34.1012 10.3857C35.5272 10.3857 36.318 9.42551 36.318 9.42551L36.2466 9.89156C36.2198 10.0698 36.3508 10.2296 36.5225 10.2296H37.9647C38.1931 10.2296 38.3877 10.0554 38.4235 9.81834L39.2895 4.07754C39.3159 3.90084 39.1849 3.74055 39.0132 3.74055ZM36.7807 7.00505C36.6271 7.96326 35.8999 8.60659 34.9737 8.60659C34.5095 8.60659 34.1369 8.45034 33.8982 8.15431C33.6616 7.86033 33.5725 7.44191 33.6469 6.97582C33.7921 6.02578 34.5296 5.36155 35.4417 5.36155C35.8965 5.36155 36.2662 5.51979 36.5098 5.81833C36.7547 6.11999 36.8516 6.541 36.7807 7.00505Z"
        fill="#469BDB" />
    <path
        d="M40.9012 0.747124L39.5284 9.89325C39.5016 10.0704 39.6326 10.2302 39.8033 10.2302H41.1833C41.4127 10.2302 41.6074 10.0561 41.6426 9.81899L42.9962 0.837847C43.0232 0.660568 42.8921 0.500281 42.7214 0.500281H41.176C41.0396 0.500709 40.9222 0.605323 40.9012 0.747124Z"
        fill="#469BDB" />
</svg>
