<svg width="41" height="25" viewBox="0 0 41 25" fill="none" xmlns="http://www.w3.org/2000/svg">
<path d="M0.5 4.2981C0.5 2.3651 2.067 0.798096 4 0.798096H36.6249C38.5578 0.798096 40.1248 2.3651 40.1248 4.2981V20.455C40.1248 22.388 38.5578 23.955 36.6248 23.955H4C2.067 23.955 0.5 22.388 0.5 20.455V4.2981Z" fill="white" stroke="#EEEEEE"/>
<path fill-rule="evenodd" clip-rule="evenodd" d="M25.5231 8.35151L25.1911 10.1597C24.1958 9.64281 21.9306 9.5205 21.9304 10.4726C21.9304 10.8508 22.4429 11.1109 23.0607 11.4245C23.9975 11.8999 25.1763 12.4982 25.1763 13.8176C25.1763 15.9258 22.7819 16.7004 21.1946 16.7004C19.6079 16.7004 18.5693 16.225 18.5693 16.225L18.9151 14.3343C19.8674 15.0548 22.7529 15.2596 22.7529 14.117C22.7529 13.6368 22.1849 13.3537 21.5262 13.0253C20.6174 12.5723 19.5359 12.0332 19.5359 10.7719C19.5359 8.45985 22.2769 7.98438 23.4311 7.98438C24.4988 7.98438 25.5231 8.35151 25.5231 8.35151ZM33.2836 16.5552H31.1479L30.8755 15.3044H27.9187L27.4338 16.5552H25.0093L28.4781 8.76211C28.4781 8.76211 28.6884 8.1346 29.5518 8.1346H31.4215L33.2836 16.5552ZM12.8536 8.13483L10.6362 13.9264L10.3738 12.6792L10.3741 12.6797L9.59143 8.89298C9.59143 8.89298 9.4968 8.13483 8.48811 8.13483H4.82231L4.7793 8.2774C4.7793 8.2774 5.9003 8.49724 7.21225 9.23985L9.23298 16.5554H11.6564L15.3568 8.13483H12.8536ZM17.1362 16.5552H14.8103L16.264 8.13483H18.5901L17.1362 16.5552ZM28.5885 13.5766L29.8106 10.4255L30.4982 13.5766H28.5885Z" fill="#2566AF"/>
<path d="M10.3741 12.6795L9.59143 8.8928C9.59143 8.8928 9.4968 8.13464 8.48811 8.13464H4.82231L4.7793 8.27722C4.7793 8.27722 6.54122 8.62138 8.23121 9.91088C9.84713 11.1434 10.3741 12.6795 10.3741 12.6795Z" fill="#E6A540"/>
</svg>
